<svg width="80" height="80" viewBox="0 0 80 80" fill="none" xmlns="http://www.w3.org/2000/svg">
<circle cx="70" cy="69" r="9" fill="#FDC040"/>
<path d="M2 35L3 50.5L12 59.5L13 55L14 38.5V23.5L12 21.5L10 20.5H5L2 22.5V26V35Z" fill="#FDC040"/>
<path d="M49.7556 31.3671L50.4734 30.0005L48.1166 28.7625L47.3988 30.1298C46.0926 32.6213 43.9276 34.5548 41.3055 35.573V23.7452C44.3885 22.7927 46.9775 20.6732 48.5197 17.8385L49.1354 16.6988L46.7915 15.4336L46.1765 16.572C45.105 18.5413 43.3834 20.0777 41.3055 20.9183V12.0716H38.6424V20.9183C36.5645 20.0777 34.8428 18.5413 33.772 16.572L33.157 15.4336L30.8131 16.6988L31.4282 17.8385C32.9704 20.6732 35.5593 22.7927 38.6424 23.7452V35.573C36.0203 34.5548 33.8559 32.6213 32.5497 30.1298L31.8319 28.7625L29.4751 30.0005L30.1929 31.3671C31.9607 34.7408 35.0028 37.2699 38.6424 38.3921V50.2199C36.0203 49.2017 33.8559 47.2681 32.5497 44.7767L31.8319 43.4094L29.4751 44.6473L30.1929 46.014C31.9607 49.3877 35.0028 51.9168 38.6424 53.039V71.9906H41.3055V53.039C44.9457 51.9168 47.9872 49.3877 49.7556 46.014L50.4734 44.6473L48.1166 43.4094L47.3988 44.7767C46.0926 47.2681 43.9276 49.2017 41.3055 50.2199V38.3921C44.9457 37.2699 47.9872 34.7408 49.7556 31.3671Z" fill="#3BB77E"/>
<path d="M72.9964 59.3612C74.3142 58.2221 75.3038 56.7508 75.8616 55.1L73.3318 54.2587C72.839 55.73 71.88 57.0004 70.5992 57.8762V52.0176H67.9362V57.8762C66.6573 57.0017 65.6989 55.7339 65.2055 54.2652L62.6757 55.1072C63.2335 56.7573 64.2231 58.2286 65.541 59.3677C60.7128 61.1693 57.8671 66.169 58.7825 71.2403C59.6979 76.3109 64.1119 79.9999 69.2651 79.9999C74.4183 79.9999 78.8329 76.3109 79.7483 71.2403C80.6637 66.169 77.8173 61.1693 72.9892 59.3677L72.9964 59.3612ZM69.2677 77.3167C64.8557 77.3167 61.2785 73.7402 61.2785 69.3275C61.2785 64.9155 64.8557 61.3383 69.2677 61.3383C73.6803 61.3383 77.2569 64.9155 77.2569 69.3275C77.253 73.7382 73.6784 77.3122 69.2677 77.3167Z" fill="#3BB77E"/>
<path d="M75.915 1.58444C75.9625 1.2054 75.8448 0.824403 75.5919 0.538331C75.3396 0.25226 74.9762 0.0877686 74.5939 0.0877686H70.5993C69.9589 0.0877686 69.4089 0.544183 69.2905 1.17419L69.2678 1.29577L69.2457 1.17419C69.1273 0.544183 68.5773 0.0877686 67.9362 0.0877686H63.9416C63.56 0.0877686 63.1966 0.25226 62.9436 0.538331C62.6914 0.824403 62.5737 1.2054 62.6212 1.58444L65.2732 22.8064V33.6427C65.1808 36.4137 64.779 39.1658 64.0749 41.8477C63.9169 42.5401 63.9 43.2586 64.0255 43.9581C64.428 46.1446 66.1379 47.8572 68.3237 48.2629C68.6319 48.3162 68.9433 48.3435 69.2561 48.3441C70.6702 48.3461 72.0264 47.7856 73.027 46.787C74.0276 45.7877 74.59 44.4321 74.59 43.018C74.59 42.7592 74.5711 42.5011 74.5341 42.2456L74.2467 40.3497C73.6726 37.1672 73.3436 33.9456 73.2624 30.713V22.8064L75.915 1.58444ZM65.4507 2.75083H66.831L70.5993 22.848V27.0312L67.8927 22.2954L65.4507 2.75083ZM70.9803 45.055C70.3704 45.5686 69.5623 45.7818 68.7782 45.6356C67.6983 45.423 66.855 44.5764 66.6476 43.4959C66.5826 43.1428 66.5904 42.7807 66.6704 42.4309C67.4213 39.5585 67.8459 36.61 67.9362 33.6427V27.7372L70.6624 32.5068C70.8373 35.27 71.1565 38.0215 71.6181 40.7515L71.9029 42.6331C71.9217 42.7592 71.9315 42.8873 71.9308 43.0154C71.9308 43.8021 71.583 44.5491 70.9803 45.055ZM71.6649 14.0942L70.5798 8.30712L70.6565 8.32208L71.7046 2.75083H73.0855L71.6649 14.0942Z" fill="#3BB77E"/>
<path d="M61.2785 22.7238C61.2934 19.1525 59.2513 15.8913 56.031 14.3458C55.403 14.0637 55.1045 13.3407 55.3509 12.6977C56.8301 8.76679 55.4979 4.33203 52.0969 1.86726C48.6959 -0.597503 44.0667 -0.483075 40.7919 2.14618C40.3159 2.53563 39.632 2.53563 39.1567 2.14618C37.1971 0.564337 34.679 -0.154092 32.1791 0.156035C29.3412 0.505172 26.8212 2.13773 25.3414 4.58494C23.8623 7.0315 23.5879 10.0223 24.5976 12.6977C24.844 13.3407 24.5449 14.0637 23.9169 14.3458C21.3533 15.5902 19.5003 17.9393 18.8879 20.7226C18.2748 23.5053 18.9704 26.4154 20.7746 28.6215C21.129 29.0662 21.129 29.6968 20.7746 30.1422C17.9666 33.5731 17.9666 38.5085 20.7746 41.9394C21.1257 42.4055 21.1101 43.0512 20.7376 43.4998C18.5036 46.2649 18.0375 50.0599 19.5348 53.2834C21.0321 56.5069 24.2329 58.5985 27.7866 58.6752L29.5375 70.9256C30.2813 76.1178 34.7291 79.9739 39.9739 79.9739C45.2195 79.9739 49.6672 76.1178 50.411 70.9256L52.1619 58.6752C55.7163 58.5985 58.9177 56.5063 60.4151 53.2815C61.9117 50.056 61.4436 46.2604 59.2084 43.4959C58.8358 43.0473 58.8202 42.401 59.1707 41.9355C61.9794 38.5046 61.9794 33.5692 59.1707 30.1376C58.817 29.6929 58.817 29.0623 59.1707 28.6175C60.5308 26.9538 61.2752 24.8726 61.2785 22.7238ZM57.1135 31.8287C58.0836 33.0178 58.6141 34.5048 58.6154 36.0392C58.6213 37.5755 58.0894 39.0657 57.1122 40.2509C55.9569 41.693 55.9673 43.7475 57.1376 45.1778C58.7454 47.1732 59.0653 49.9143 57.96 52.2263C56.8548 54.5382 54.5207 56.0102 51.9577 56.0121C51.7003 56.0043 51.4428 55.9796 51.1886 55.9393C50.8408 55.8912 50.489 55.9842 50.2095 56.1961C49.9305 56.4087 49.7478 56.7234 49.701 57.0706L47.7759 70.5511C47.2187 74.4319 43.8944 77.3134 39.9739 77.3134C36.0541 77.3134 32.7292 74.4319 32.1726 70.5511L30.254 57.0778C30.1207 56.41 29.5284 55.9335 28.8477 55.9458C28.7879 55.9458 28.7287 55.9497 28.6696 55.9575C26.5526 56.1929 24.4526 55.3886 23.0346 53.799C20.854 51.3706 20.7616 47.7174 22.8175 45.1817C23.9877 43.7514 23.9981 41.6975 22.8428 40.2548C21.8617 39.0696 21.3279 37.5781 21.3325 36.0392C21.3344 34.5048 21.8643 33.0178 22.8344 31.8287C23.9955 30.4042 23.9955 28.3594 22.8344 26.9343C21.5464 25.3589 21.0503 23.281 21.4885 21.2935C21.9261 19.3066 23.2498 17.6292 25.0807 16.7417C26.9479 15.8555 27.8218 13.684 27.0877 11.7523C26.682 10.6854 26.5604 9.53138 26.7334 8.40335C27.1976 5.46461 29.5427 3.18254 32.4938 2.80025C34.2805 2.57399 36.0827 3.08502 37.4858 4.21565C38.9421 5.37554 41.0064 5.37554 42.4628 4.21565C43.8645 3.08307 45.6668 2.57009 47.4547 2.79504C50.4052 3.17929 52.7503 5.45941 53.2165 8.39814C53.3881 9.52618 53.2659 10.6796 52.8608 11.7465C52.1268 13.6788 53 15.8503 54.8672 16.7358C56.6981 17.624 58.0218 19.3014 58.46 21.2883C58.8976 23.2752 58.4015 25.3537 57.1135 26.9291C55.9497 28.3549 55.9497 30.4029 57.1135 31.8287Z" fill="#3BB77E"/>
<path d="M0.282215 25.6892L2.51162 74.7173C2.64101 77.6645 5.06806 79.9869 8.0172 79.9869C10.967 79.9869 13.3934 77.6645 13.5234 74.7173L15.7522 25.6892C15.8413 23.8714 15.1768 22.0977 13.9148 20.7864C13.7601 20.6238 13.5793 20.5003 13.4116 20.3553L14.6749 0.170343L12.0118 0.0052013L10.8285 18.9821C10.3454 18.8508 9.84936 18.7747 9.34873 18.7546V0.087772H6.68567V18.7546C6.21235 18.7721 5.74228 18.8404 5.28392 18.9581L4.0226 0L1.35953 0.175544L2.69107 20.1485L2.87636 20.1368C2.60785 20.3345 2.35428 20.5516 2.11762 20.7864C0.856309 22.0984 0.192493 23.872 0.282215 25.6892ZM4.04536 22.627C4.79695 21.8351 5.84176 21.3884 6.93338 21.3923H9.10102C10.1926 21.391 11.2375 21.837 11.9916 22.6257C12.7465 23.4143 13.1457 24.478 13.0956 25.5683L12.4955 38.7022H8.0172V41.3653H12.3739L11.4045 62.6698H8.0172V65.3329H11.2836L10.863 74.5977C10.7966 76.1217 9.54248 77.3225 8.0172 77.3225C6.49257 77.3225 5.23776 76.1217 5.17209 74.5977L4.14548 52.0176H8.0172V49.3545H4.0226L3.17739 30.713H8.0172V28.05H3.05581L2.94268 25.5683C2.88872 24.4773 3.28792 23.413 4.04536 22.627Z" fill="#3BB77E"/>
<path d="M63.9417 69.3275C63.941 70.6382 64.4241 71.9028 65.2985 72.8787L67.2828 71.1024C66.6905 70.4406 66.4675 69.5271 66.6879 68.6669C66.9077 67.8061 67.5423 67.1124 68.3797 66.8165L67.4928 64.305C65.3668 65.0598 63.9449 67.0708 63.9417 69.3275Z" fill="#3BB77E"/>
</svg>
