<svg width="80" height="80" viewBox="0 0 80 80" fill="none" xmlns="http://www.w3.org/2000/svg">
<rect x="35" y="54" width="30" height="24" rx="6" fill="#FDC040"/>
<path d="M6 7.5L7 10L10 9L16 8.5L25.5 8L35.5 8.5L52.5 10L54 8.5L55 6C55.1667 5.33333 55.5 3.9 55.5 3.5C55.5 3.1 54.1667 3 53.5 3L52 3.5L50.5 4H47.5C47 3.5 45.9 2.5 45.5 2.5C45.1 2.5 44.3333 1.83333 44 1.5H41.5L40 3L38 4H36L33.5 2.5L31 1L28.5 1.5L27 3L24.5 4L22 3.5C21.5 3.33333 20.4 3 20 3C19.6 3 19.1667 2 19 1.5H17.5L15.5 2C15.1667 2.33333 14.4 3 14 3C13.5 3 12.5 3.5 12.5 4C12.5 4.5 11 4 10.5 4C10 4 9.5 4 9 3.5C8.6 3.1 7.83333 3 7.5 3H5.5L5 5L6 7.5Z" fill="#FDC040"/>
<path d="M30.138 51.3666C35.4399 51.3666 40.4371 49.8171 44.2099 47.0033C48.0854 44.1127 50.2197 40.2373 50.2197 36.091C50.2197 31.9447 48.0854 28.0693 44.2099 25.1788C40.4371 22.365 35.4399 20.8154 30.138 20.8154C24.8362 20.8154 19.8389 22.365 16.0662 25.1788C12.1908 28.0693 10.0564 31.9447 10.0564 36.091C10.0564 40.2373 12.1907 44.1127 16.0662 47.0033C19.8389 49.8171 24.8362 51.3666 30.138 51.3666ZM12.4002 36.091C12.4002 28.9604 20.3574 23.1592 30.138 23.1592C39.9187 23.1592 47.8759 28.9604 47.8759 36.091C47.8759 43.2216 39.9187 49.0228 30.138 49.0228C20.3574 49.0228 12.4002 43.2216 12.4002 36.091Z" fill="#3BB77E"/>
<path d="M74.1882 68.7062C75.1642 67.9488 75.6953 67.0141 75.6953 65.9922C75.6953 64.9705 75.1643 64.0358 74.1882 63.2784C75.0425 62.6861 75.6223 62.0009 75.92 61.2293C76.1795 60.5567 76.345 59.4732 75.6592 58.1308C75.1246 57.085 74.2781 56.4064 73.2107 56.1681C71.5008 55.7866 69.2367 56.5566 66.4681 58.4568C65.1604 54.8953 61.8294 52.3456 57.8376 52.1648C57.0002 52.1268 56.1607 52.0971 55.3202 52.0712C56.1277 38.1217 55.8716 23.9894 54.5558 10.0343C54.9889 9.33659 55.8177 7.79187 56.3379 5.48933C56.6512 4.10336 56.0613 2.74005 54.8357 2.01613C53.6286 1.30346 52.1734 1.44253 51.1286 2.37067C50.604 2.83662 50.1084 3.12537 49.2593 3.12537C48.1441 3.12537 47.6461 2.63708 46.8924 1.89801C46.03 1.05221 44.9569 0 42.8845 0C40.8123 0 39.7393 1.05221 38.8771 1.89769C38.1233 2.63677 37.6253 3.12506 36.5105 3.12506C35.3954 3.12506 34.8976 2.63677 34.1439 1.89769C33.2815 1.05221 32.2083 0 30.1361 0C28.0639 0 26.9909 1.05221 26.1289 1.89769C25.3751 2.63677 24.8771 3.12506 23.7622 3.12506C22.6474 3.12506 22.1496 2.63677 21.3956 1.89769C20.5336 1.05221 19.4606 0 17.3884 0C15.3163 0 14.2435 1.05221 13.3814 1.89769C12.6276 2.63677 12.1298 3.12506 11.0153 3.12506C10.1665 3.12506 9.67087 2.83631 9.14649 2.37052C8.10209 1.44253 6.64738 1.30331 5.44001 2.01566C4.2142 2.73927 3.62451 4.10242 3.93764 5.48839C4.45796 7.79187 5.28719 9.3369 5.72033 10.0344C5.51767 12.1831 5.33579 14.3743 5.18157 16.5608C5.13594 17.2064 5.62236 17.7668 6.26799 17.8122C6.9166 17.8572 7.47396 17.3713 7.51958 16.7256C7.66318 14.6903 7.82974 12.6492 8.01615 10.6443C22.6999 8.87627 37.5766 8.87627 52.2611 10.6443C53.5366 24.3814 53.7747 38.2873 52.9759 52.0146C49.2715 51.9495 45.5533 51.9976 41.8706 52.1645C37.8788 52.3454 34.5478 54.895 33.2401 58.4565C30.4716 56.5563 28.2072 55.7861 26.4974 56.1678C25.4301 56.4061 24.5835 57.0847 24.049 58.1307C23.3632 59.4729 23.5286 60.5563 23.788 61.229C24.0072 61.7973 24.3807 62.3181 24.9027 62.79C19.2951 62.6315 13.6274 62.2129 8.01615 61.5367C6.77785 48.2017 6.51331 34.6976 7.2302 21.3845C7.26504 20.7382 6.76925 20.186 6.12299 20.1513C5.47282 20.1157 4.92469 20.6123 4.88969 21.2585C4.15717 34.861 4.44218 48.6594 5.73314 62.279C5.30344 62.9667 4.46296 64.5191 3.93811 66.8435C3.62435 68.2299 4.21405 69.5937 5.44032 70.3178C6.64722 71.0306 8.10256 70.8909 9.14649 69.9632C9.67165 69.4973 10.1676 69.2085 11.0156 69.2085C12.1308 69.2085 12.6289 69.6968 13.3828 70.4361C14.2452 71.2816 15.3183 72.3336 17.3906 72.3336C19.4631 72.3336 20.5362 71.2814 21.3986 70.4361C22.1524 69.6968 22.6507 69.2085 23.7657 69.2085C24.1437 69.2085 24.4512 69.266 24.7198 69.3684C24.2929 69.7936 23.9802 70.2561 23.7876 70.7554C23.5282 71.4281 23.3627 72.5116 24.0485 73.8539C24.583 74.8997 25.4296 75.5784 26.497 75.8166C26.7811 75.8801 27.0803 75.9116 27.3948 75.9116C28.9728 75.9116 30.9311 75.1108 33.2391 73.5269C34.5465 77.089 37.8778 79.6391 41.8701 79.8198C44.5191 79.9398 47.1863 79.9998 49.854 79.9998C52.5211 79.9998 55.1888 79.9398 57.8373 79.8198C61.8295 79.6389 65.1607 77.0889 66.4681 73.5267C68.7761 75.1108 70.7344 75.9115 72.3124 75.9115C72.6268 75.9115 72.9263 75.8798 73.2102 75.8165C74.2776 75.5782 75.1242 74.8996 75.6587 73.8536C76.3445 72.5114 76.179 71.428 75.9195 70.7553C75.6223 69.9836 75.0425 69.2984 74.1882 68.7062ZM7.45552 8.35282C7.09504 7.68468 6.57909 6.54466 6.22378 4.97197C6.09487 4.40118 6.50347 4.10961 6.6316 4.03399C6.78644 3.94258 7.1902 3.76773 7.59005 4.12289C8.29553 4.74947 9.32243 5.46886 11.0153 5.46886C13.0873 5.46886 14.1602 4.41665 15.0224 3.57116C15.776 2.83209 16.274 2.3438 17.3885 2.3438C18.5032 2.3438 19.0011 2.83209 19.755 3.57116C20.6169 4.41665 21.69 5.46886 23.7622 5.46886C25.8345 5.46886 26.9076 4.41665 27.7697 3.57116C28.5234 2.83209 29.0214 2.3438 30.1361 2.3438C31.251 2.3438 31.749 2.83209 32.5027 3.57116C33.3651 4.41665 34.4382 5.46886 36.5105 5.46886C38.5827 5.46886 39.6557 4.41665 40.5179 3.57116C41.2716 2.83209 41.7696 2.3438 42.8845 2.3438C43.9997 2.3438 44.4976 2.83209 45.2514 3.57116C46.1139 4.41665 47.1871 5.46886 49.2595 5.46886C50.9523 5.46886 51.9794 4.74962 52.6851 4.12289C53.0845 3.76789 53.4891 3.94242 53.6441 4.03414C53.7724 4.10992 54.1811 4.40149 54.0519 4.97244C53.6966 6.5456 53.1803 7.68578 52.8208 8.35266C37.7647 6.517 22.51 6.517 7.45552 8.35282ZM56.4354 77.5298C54.8575 77.5893 53.2747 77.6292 51.6898 77.6457C52.3905 72.505 53.6908 67.3152 55.5646 62.1986C55.7871 61.5907 55.4749 60.9178 54.8671 60.6951C54.2591 60.4726 53.5864 60.7849 53.3636 61.3926C51.3928 66.7746 50.0354 72.2395 49.3231 77.6531C47.7477 77.6482 46.1735 77.622 44.603 77.5748C46.1913 66.0239 50.4279 57.1438 51.8911 54.3403C53.3656 54.3575 54.8383 54.395 56.3066 54.4493C55.9679 55.1414 55.5688 55.9905 55.1363 56.9786C54.8768 57.5714 55.1468 58.2625 55.7397 58.5221C55.8927 58.5891 56.0521 58.6208 56.2091 58.6208C56.6605 58.6208 57.0907 58.3585 57.2832 57.9186C57.9007 56.5084 58.4446 55.3962 58.8326 54.6389C60.2206 54.9114 61.4625 55.57 62.4442 56.4995C60.5826 60.6673 57.6695 68.3049 56.4354 77.5298ZM19.7581 68.7621C19.0042 69.5012 18.5059 69.9896 17.3909 69.9896C16.2758 69.9896 15.7777 69.5014 15.0239 68.7623C14.1614 67.9168 13.0883 66.8646 11.0159 66.8646C9.32462 66.8646 8.29741 67.5835 7.59052 68.2106C7.19082 68.5656 6.78707 68.391 6.63238 68.2995C6.50394 68.2237 6.09518 67.932 6.22456 67.3602C6.60644 65.6688 7.17504 64.4767 7.53536 63.8361C13.0541 64.5072 18.6285 64.938 24.1504 65.1147C24.0605 65.3983 24.0132 65.6914 24.0132 65.9924C24.0132 66.2964 24.0613 66.5927 24.1532 66.879C24.0277 66.8705 23.8996 66.8647 23.7663 66.8647C21.6936 66.8646 20.6205 67.9168 19.7581 68.7621ZM27.0081 73.5291C26.7492 73.4713 26.4159 73.3347 26.1362 72.7874C25.8198 72.1678 25.8924 71.8123 25.9749 71.5989C26.2176 70.97 27.1026 70.3389 28.467 69.8218C28.9267 69.6476 29.2289 69.2051 29.2238 68.7135C29.2186 68.222 28.9072 67.7859 28.4439 67.6215C27.01 67.1124 26.357 66.4201 26.357 65.9921C26.357 65.5641 27.0101 64.8717 28.4439 64.3627C28.9072 64.1983 29.2186 63.7622 29.2238 63.2706C29.2288 62.779 28.9267 62.3365 28.467 62.1625C27.1026 61.6454 26.2176 61.0145 25.9749 60.3854C25.8926 60.172 25.8198 59.8165 26.1362 59.1971C26.4159 58.6496 26.7492 58.513 27.0081 58.4552C27.5601 58.3319 29.19 58.348 32.6854 60.9396C32.6749 61.0571 32.6646 61.1746 32.6584 61.2934C32.4938 64.4111 32.4938 67.5727 32.6584 70.6904C32.6646 70.8092 32.6749 70.9267 32.6854 71.0442C29.1903 73.636 27.5609 73.6522 27.0081 73.5291ZM34.9987 61.4171C35.1975 57.6483 38.1975 54.6772 41.9767 54.5061C42.0154 54.5043 42.0545 54.5033 42.0932 54.5014C40.4852 57.8057 37.4827 64.7533 35.7983 73.5358C35.3373 72.641 35.0551 71.6364 34.9987 70.5675C34.8387 67.5316 34.8387 64.453 34.9987 61.4171ZM37.7569 75.911C39.4947 65.2297 43.409 57.0166 44.763 54.405C46.2624 54.3612 47.7654 54.3365 49.2691 54.3315C47.4194 58.0914 43.6997 66.6841 42.2496 77.4893C42.1587 77.4854 42.0676 77.4826 41.9767 77.4785C40.3798 77.4062 38.923 76.8324 37.7569 75.911ZM64.7094 70.5673C64.5304 73.9633 62.0763 76.7107 58.8276 77.3464C59.939 69.4814 62.2883 62.8464 64.038 58.7118C64.4226 59.539 64.6585 60.4515 64.7094 61.417C64.8694 64.453 64.8694 67.5315 64.7094 70.5673ZM73.5721 72.7872C73.2924 73.3347 72.9591 73.4713 72.7002 73.5291C72.1479 73.6521 70.5182 73.6361 67.0229 71.0447C67.0334 70.9272 67.0437 70.8095 67.05 70.6908C67.2145 67.573 67.2145 64.4114 67.05 61.2937C67.0437 61.1749 67.0334 61.0574 67.0229 60.9399C70.5178 58.3485 72.1474 58.3321 72.7002 58.4555C72.9591 58.5133 73.2924 58.6499 73.5721 59.1971C73.8885 59.8166 73.8157 60.1721 73.7332 60.3856C73.4906 61.0145 72.6055 61.6456 71.2411 62.1625C70.7816 62.3367 70.4794 62.7792 70.4844 63.2708C70.4896 63.7623 70.801 64.1984 71.2643 64.3628C72.6983 64.8719 73.3513 65.5643 73.3513 65.9922C73.3513 66.4202 72.6982 67.1126 71.2643 67.6216C70.801 67.786 70.4896 68.2221 70.4844 68.7137C70.4792 69.2053 70.7814 69.6478 71.2411 69.822C72.6055 70.3389 73.4906 70.97 73.7334 71.5991C73.8156 71.8123 73.8885 72.1678 73.5721 72.7872Z" fill="#3BB77E"/>
<path d="M22.2968 32.2231C27.5 31.532 32.7757 31.532 37.9786 32.2231C38.031 32.23 38.083 32.2334 38.1344 32.2334C38.713 32.2334 39.2163 31.805 39.2946 31.2158C39.3799 30.5742 38.9288 29.985 38.2872 29.8998C32.8801 29.1817 27.3961 29.1817 21.9882 29.8998C21.3466 29.985 20.8955 30.5742 20.9808 31.2158C21.0661 31.8573 21.6552 32.3081 22.2968 32.2231Z" fill="#3BB77E"/>
<path d="M39.2946 41.2714C39.2095 40.6299 38.6198 40.1792 37.9786 40.2641C32.7757 40.9552 27.5 40.9552 22.2968 40.2641C21.6555 40.1789 21.066 40.6299 20.9808 41.2714C20.8955 41.913 21.3466 42.5022 21.9882 42.5874C24.692 42.9465 27.4147 43.126 30.1376 43.126C32.8606 43.126 35.5834 42.9465 38.2871 42.5874C38.929 42.5022 39.3799 41.913 39.2946 41.2714Z" fill="#3BB77E"/>
<path d="M42.4695 36.2435C42.4695 35.5963 41.9449 35.0716 41.2976 35.0716H18.9785C18.3312 35.0716 17.8066 35.5963 17.8066 36.2435C17.8066 36.8907 18.3312 37.4154 18.9785 37.4154H41.2976C41.9448 37.4154 42.4695 36.8907 42.4695 36.2435Z" fill="#3BB77E"/>
</svg>
