<svg width="80" height="80" viewBox="0 0 80 80" fill="none" xmlns="http://www.w3.org/2000/svg">
<g clip-path="url(#clip0)">
<path d="M64.5 35.5H34.5V37.5L35 38.5L37.5 41L39.5 42L40.5 43.5L40 45.5L36.5 47L34.5 50.5L34 61L35.5 72.5L36.5 76L38.5 78C39 78.1667 40.2 78.5 41 78.5C42 78.5 46.5 79 47.5 79H53H56.5L55.5 77C55.1667 76.1667 54.5 74.2 54.5 73C54.5 71.8 54.1667 68.5 54 67V59.5C54 58.7 55 52.8333 55.5 50V48.5C55.5 48 57 48 57.5 47.5C58 47 59.5 47 60 47C60.5 47 62 46.5 62.5 46.5C63 46.5 62 46 61.5 45.5C61 45 61.5 45 61.5 44.5C61.5 44 61.5 43 61 42.5C60.6 42.1 61.8333 41.3333 62.5 41C63 40.8333 64 40.4 64 40C64 39.6 65 39.1667 65.5 39L66.5 37.5V36L64.5 35.5Z" fill="#FDC040"/>
<path d="M7.55737 61.5928C7.55737 64.0975 9.59503 66.1352 12.0996 66.1352C14.6042 66.1352 16.6419 64.0975 16.6419 61.5928C16.6419 59.0881 14.6042 57.0505 12.0996 57.0505C9.59503 57.0505 7.55737 59.0881 7.55737 61.5928ZM14.2983 61.5928C14.2983 62.8052 13.3121 63.7914 12.0997 63.7914C10.8874 63.7914 9.90128 62.8052 9.90128 61.5928C9.90128 60.3805 10.8875 59.3942 12.0997 59.3942C13.3119 59.3942 14.2983 60.3806 14.2983 61.5928Z" fill="#3BB77E"/>
<path d="M17.8742 55.3313C19.8461 55.3313 21.4504 53.727 21.4504 51.7552C21.4504 49.7833 19.8461 48.1791 17.8742 48.1791C15.9023 48.1791 14.2981 49.7833 14.2981 51.7552C14.2981 53.727 15.9023 55.3313 17.8742 55.3313ZM17.8742 50.5227C18.5539 50.5227 19.1067 51.0755 19.1067 51.755C19.1067 52.4345 18.5539 52.9874 17.8742 52.9874C17.1947 52.9874 16.6418 52.4345 16.6418 51.755C16.6418 51.0755 17.1948 50.5227 17.8742 50.5227Z" fill="#3BB77E"/>
<path d="M30.3449 69.9974C30.3449 68.0255 28.7405 66.4213 26.7686 66.4213C24.7968 66.4213 23.1924 68.0255 23.1924 69.9974C23.1924 71.9692 24.7968 73.5735 26.7686 73.5735C28.7405 73.5735 30.3449 71.9692 30.3449 69.9974ZM25.5363 69.9974C25.5363 69.3178 26.0891 68.765 26.7688 68.765C27.4485 68.765 28.0013 69.3178 28.0013 69.9974C28.0013 70.6769 27.4485 71.2297 26.7688 71.2297C26.0891 71.2297 25.5363 70.6769 25.5363 69.9974Z" fill="#3BB77E"/>
<path d="M77.4983 50.2262C77.1608 47.7714 75.0402 45.9203 72.5657 45.9203H71.7355L72.5354 43.8403C72.7677 43.2363 72.4663 42.5581 71.8621 42.3259C71.2579 42.0934 70.5799 42.3952 70.3479 42.9991L69.2246 45.9203H64.3479C64.1827 45.8411 64.0155 45.7667 63.8452 45.7031C62.6269 45.2491 62.0093 44.5417 62.0093 43.6012C62.0093 42.7248 63.491 42.0139 64.1291 41.7484C66.0224 40.9584 67.3794 39.2875 67.7591 37.2778C68.5457 33.1047 68.9029 28.6397 69.046 26.3481C69.1188 25.1581 68.8494 23.9939 68.2671 22.9814C65.2077 17.662 59.6658 14.04 57.8124 12.9313V9.18375H57.8735C58.5208 9.18375 59.0454 8.65906 59.0454 8.01188V3.79797C59.0454 1.70375 57.3415 0 55.2472 0H45.9663C43.8722 0 42.1683 1.70375 42.1683 3.79797V8.01188C42.1683 8.65906 42.6929 9.18375 43.3402 9.18375H43.4016V12.9308C42.2054 13.6463 39.4726 15.4098 36.8626 17.9995V17.1773C38.1974 16.4552 39.1062 15.0423 39.1062 13.4211C39.1062 11.0678 37.1916 9.15344 34.8383 9.15344H16.3219C13.9687 9.15344 12.0543 11.068 12.0543 13.4211C12.0543 15.0427 12.9635 16.4558 14.2988 17.1778V20.7633C12.6947 21.6991 8.33709 24.4806 4.49834 29.092C3.80865 29.9228 3.36912 30.9309 3.22725 32.008C3.03646 33.4573 2.75053 35.8236 2.47209 38.8648C2.41303 39.5094 2.88771 40.0797 3.53225 40.1387C3.5685 40.142 3.60459 40.1438 3.64037 40.1438C4.23928 40.1438 4.75037 39.6869 4.806 39.0786C5.081 36.0755 5.36271 33.7422 5.55084 32.3141C5.61209 31.8494 5.7674 31.4073 6.00365 31.0122H32.5605C32.7672 32.9616 33.056 35.1581 33.4546 37.277C33.8324 39.2867 35.1896 40.9583 37.0858 41.7487C37.7224 42.0136 39.203 42.7242 39.203 43.6011C39.203 44.542 38.586 45.2492 37.3682 45.7033C35.1815 46.52 33.6397 48.5347 33.4404 50.8356C32.9791 56.1433 32.6368 66.4137 35.5277 75.5647C35.7712 76.3358 36.1508 77.0327 36.6346 77.6342C36.4096 77.648 36.1841 77.6564 35.9577 77.6564H15.2016C9.536 77.6564 4.77287 73.2384 4.35787 67.5986C3.82193 60.3138 3.84771 52.2808 4.43475 43.7227C4.47896 43.0769 3.99146 42.5177 3.34584 42.4733C2.70068 42.4286 2.14068 42.9164 2.09646 43.5622C1.50193 52.2306 1.47631 60.3755 2.02053 67.7705C2.26584 71.1061 3.75318 74.1966 6.2085 76.473C8.66162 78.7473 11.8555 80 15.2016 80H35.9579C37.0902 80 38.2112 79.8562 39.2969 79.5738C40.0155 79.8495 40.7937 79.9992 41.6016 79.9992L72.5657 80C75.0402 80 77.1608 78.1489 77.4983 75.6939C78.6599 67.2444 78.6599 58.6759 77.4983 50.2262ZM75.9165 67.3887C74.983 67.9598 73.921 68.2602 72.814 68.2602C69.5297 68.2602 66.8579 65.5889 66.8579 62.3056C66.8579 59.0214 69.5299 56.3494 72.814 56.3494C73.8908 56.3494 74.9263 56.6336 75.8394 57.1742C76.0555 60.5755 76.0819 63.9856 75.9165 67.3887ZM66.7068 26.2033C66.5949 27.9941 66.3491 31.1444 65.864 34.4075H35.3507C34.8663 31.1473 34.6188 27.9956 34.5057 26.2047C34.461 25.4734 34.6241 24.7634 34.9783 24.1494C35.1213 23.9008 35.2712 23.6562 35.4263 23.4153H65.7871C65.9424 23.6562 66.0924 23.9009 66.2354 24.1495C66.5885 24.7633 66.7513 25.4739 66.7068 26.2033ZM16.6426 17.6889H34.5188V20.2778H16.6426V17.6889ZM44.5121 3.79797C44.5121 2.99609 45.1644 2.34375 45.9663 2.34375H55.2472C56.0491 2.34375 56.7016 2.99609 56.7016 3.79797V6.84H44.5121V3.79797ZM55.4687 9.18375V12.4367H45.7454V9.18375H55.4687ZM44.8824 14.7805H56.3313C57.3207 15.3584 61.0391 17.6506 64.0146 21.0717H37.1988C40.1743 17.65 43.8941 15.3577 44.8824 14.7805ZM16.3219 11.4972H34.8383C35.8993 11.4972 36.7624 12.3603 36.7624 13.4211C36.7624 14.4816 35.9001 15.3442 34.8397 15.345H16.3204C15.2601 15.3442 14.3979 14.4814 14.3979 13.4211C14.3979 12.3603 15.261 11.4972 16.3219 11.4972ZM8.03646 28.6684C11.4183 25.2014 14.848 23.145 15.7721 22.6219H33.1605C33.0888 22.7406 33.0169 22.8591 32.9477 22.9795C32.3638 23.9914 32.0937 25.1561 32.1666 26.3502C32.2062 26.9769 32.2621 27.7672 32.338 28.6684H8.03646ZM72.5657 77.6562H59.6124V77.6555H58.7907C57.4879 77.6477 56.3736 76.6702 56.1955 75.3748C56.011 74.0316 55.8558 72.6797 55.7343 71.3567C55.6749 70.7123 55.1046 70.237 54.4601 70.297C53.8155 70.3562 53.3411 70.9267 53.4004 71.5713C53.5252 72.9289 53.6844 74.3158 53.8736 75.6939C53.9721 76.4095 54.2229 77.0733 54.589 77.6553H41.6016C39.8337 77.6553 38.291 76.5314 37.7629 74.8586C34.9941 66.0942 35.3293 56.1725 35.7754 51.038C35.8971 49.633 36.8443 48.4008 38.1876 47.8989C40.3224 47.103 41.5468 45.5364 41.5468 43.6009C41.5468 42.4445 40.9291 40.8089 37.9869 39.585C36.8227 39.0997 35.9894 38.075 35.758 36.8438C35.7522 36.813 35.7466 36.7819 35.741 36.7511H65.473C65.4674 36.7816 65.4618 36.8123 65.456 36.8428C65.2232 38.0747 64.3897 39.0998 63.2276 39.5847C60.2832 40.8095 59.6652 42.4448 59.6652 43.6011C59.6652 44.4583 59.9066 45.2427 60.3599 45.9203H58.806C56.3315 45.9203 54.2108 47.7714 53.8733 50.2261C53.1169 55.7188 52.8513 61.3153 53.0836 66.86C53.1108 67.5067 53.6633 68.0081 54.3035 67.9817C54.9502 67.9547 55.4526 67.4084 55.4254 66.7619C55.199 61.3564 55.4579 55.9005 56.1952 50.5456C56.3743 49.245 57.4966 48.2641 58.8062 48.2641H72.5657C73.8752 48.2641 74.9976 49.245 75.1766 50.5455C75.3572 51.8591 75.5057 53.1759 75.6287 54.4945C74.7347 54.1723 73.7863 54.0056 72.814 54.0056C68.2374 54.0056 64.5141 57.7289 64.5141 62.3056C64.5141 66.8814 68.2374 70.6039 72.814 70.6039C73.829 70.6039 74.8169 70.4228 75.7447 70.0723C75.6061 71.8434 75.419 73.6117 75.1766 75.3745C74.9976 76.6753 73.8752 77.6562 72.5657 77.6562Z" fill="#3BB77E"/>
</g>
<defs>
<clipPath id="clip0">
<rect width="80" height="80" fill="white"/>
</clipPath>
</defs>
</svg>
