<svg width="80" height="80" viewBox="0 0 80 80" fill="none" xmlns="http://www.w3.org/2000/svg">
<path d="M10 31L9 25.5V20.5C9.16667 19.3333 9.6 17 10 17C10.4 17 13 16 15 15.5L19 15C20 15 20.5 15 25.5 14C25.8922 13.9216 28.5 13.5 29.5 13.5L28 11.5L30 13.5L32 15.5L32.5 17C31.8333 17.1667 30.3 17.5 29.5 17.5H25.5L23.5 18.5V20C23.5 20.4 23.1667 23.8333 23 25.5L22.5 30.5L20.5 31H11H10Z" fill="#FDC040"/>
<path d="M47 17.5L49 15L55.5 10.5L63 7.5C65.3333 6.83334 70.6 5.8 73 7C76 8.5 76.5 9 79 13.5C78.8333 17 78.2 24.3 77 25.5L74.5 30L73 31H65.5H54.5H51V27.5C51 27 50.5 23.5 50.5 23V20L50 18L49 17.5H47Z" fill="#FDC040"/>
<path d="M57.4365 13.9525C56.7408 14.6482 56.3577 15.5731 56.3577 16.5569C56.3577 17.5406 56.7408 18.4655 57.4363 19.1612L65.9502 27.6751C66.6459 28.3707 67.5707 28.7537 68.5544 28.7537C69.5382 28.7537 70.463 28.3706 71.1585 27.6751C71.8542 26.9794 72.2373 26.0545 72.2373 25.0708C72.2373 24.087 71.8542 23.1621 71.1587 22.4664L62.6448 13.9524C61.2089 12.5165 58.8721 12.5169 57.4365 13.9525ZM69.5014 24.1239C69.7543 24.3767 69.8936 24.7131 69.8936 25.0708C69.8936 25.4284 69.7543 25.7647 69.5013 26.0177C69.2485 26.2706 68.912 26.4099 68.5544 26.4099C68.1967 26.4099 67.8604 26.2706 67.6075 26.0177L59.0935 17.5036C58.8407 17.2508 58.7013 16.9144 58.7013 16.5567C58.7013 16.199 58.8407 15.8628 59.0937 15.6098C59.3547 15.3487 59.6975 15.2182 60.0406 15.2182C60.3834 15.2182 60.7266 15.3487 60.9875 15.6098L69.5014 24.1239Z" fill="#3BB77E"/>
<path d="M79.7151 35.5274C79.2251 33.1065 77.4773 31.1647 75.2416 30.3405C80.7858 21.0909 81.5545 12.429 77.1191 7.9934C75.1734 6.04786 72.3554 5.05173 68.9639 5.11423C68.3168 5.12611 67.8018 5.66035 67.8137 6.3074C67.8254 6.94727 68.3478 7.45791 68.985 7.45791C68.9923 7.45791 68.9997 7.45791 69.007 7.45776C71.7817 7.40635 73.956 8.14481 75.4618 9.65065C77.7905 11.9793 77.8533 15.5174 77.4961 18.0755C76.9908 21.6931 75.3541 25.7728 72.7581 29.9089C65.999 29.78 59.2107 29.6909 52.4114 29.6422C52.3672 25.6508 52.1203 21.6108 51.6714 17.6142C51.61 17.0686 51.1781 16.6386 50.6321 16.5798C50.2826 16.5423 49.9326 16.5089 49.5829 16.4742C54.5301 12.2907 59.8192 9.34392 64.6878 8.08778C65.3146 7.92606 65.6914 7.28697 65.5297 6.66023C65.3681 6.03349 64.7286 5.65644 64.1022 5.81832C62.2365 6.29975 60.3176 7.00977 58.3834 7.92496C58.7601 6.28693 58.9396 4.32327 58.2205 2.85806C57.7874 1.97505 57.0702 1.373 56.1467 1.1169C54.7784 0.737821 52.6528 0.936891 50.2913 4.03935C50.1771 4.18951 50.0666 4.34077 49.9604 4.49124C49.9476 4.44671 49.9346 4.40233 49.9212 4.3578C49.4571 2.81368 48.2439 0.223114 45.3298 0.223114C44.3177 0.223114 43.4353 0.626567 42.7775 1.38972C41.9188 2.38616 41.5432 3.93388 41.4084 5.47643C40.3828 4.12763 39.1405 3.04353 37.7967 3.04353C36.9237 3.04353 36.1275 3.48824 35.5552 4.29577C34.0473 6.42303 34.0254 11.0332 35.4261 15.8634C35.0753 15.8678 34.7247 15.8757 34.374 15.8831C32.078 13.2039 29.3026 11.3601 28.0886 10.6223V8.0534C28.6388 7.95699 29.0571 7.47807 29.0571 6.90024V3.59152C29.0571 1.80833 27.6064 0.35765 25.8232 0.35765H18.5358C16.7526 0.35765 15.3019 1.80833 15.3019 3.59152V6.90024C15.3019 7.47807 15.7205 7.95699 16.2707 8.0534L16.2698 10.6218C14.6875 11.5828 10.4608 14.4152 8.09524 18.528C7.61272 19.3634 7.38928 20.3262 7.44975 21.3145C7.56319 23.1157 7.84492 26.6174 8.45729 29.8873C7.97743 29.8961 7.49709 29.9041 7.01755 29.9133C3.76242 29.9747 0.930757 32.3359 0.284796 35.5269C-0.0949059 37.3965 -0.0949059 39.2925 0.284639 41.1612C0.75872 43.5066 2.42019 45.4423 4.61464 46.2969C4.7434 48.6824 4.96388 52.075 5.32483 55.9308C4.35745 58.6707 3.40991 61.4116 2.49082 64.1469C1.7 66.5031 2.75879 69.118 4.95512 70.2302C5.79078 70.652 6.66941 70.9793 7.56866 71.2068C8.40916 73.5902 9.90922 75.6464 11.9418 77.1832C14.1862 78.8801 16.8607 79.777 19.6761 79.777H60.3241C63.1395 79.777 65.8139 78.8801 68.0584 77.1832C70.0911 75.6462 71.5912 73.5899 72.4317 71.2062C73.3352 70.9767 74.2136 70.649 75.0455 70.2285C77.2423 69.1183 78.3014 66.5031 77.5092 64.1453C76.5893 61.4084 75.6421 58.6676 74.6755 55.9297C75.0363 52.0741 75.2568 48.6816 75.3856 46.2962C77.5825 45.4396 79.2419 43.505 79.7152 41.1623C80.0948 39.2924 80.0948 37.3964 79.7151 35.5274ZM49.4433 18.8135C49.8184 22.4121 50.0268 26.0403 50.0677 29.6284C41.3752 29.578 32.6685 29.5922 23.9847 29.6725C24.0246 26.0705 24.2332 22.4274 24.6096 18.8133C32.8537 17.9908 41.1988 17.9908 49.4433 18.8135ZM37.4673 5.65113C37.5526 5.53081 37.679 5.38737 37.7967 5.38737C38.6404 5.38737 40.4102 7.79464 41.6688 10.6538C41.876 11.1604 42.4098 11.4582 42.9536 11.364C43.5152 11.2665 43.9252 10.7793 43.9252 10.2093C43.9252 10.138 43.9184 10.0666 43.9053 9.99629C43.3195 6.0363 43.9706 3.59543 44.5532 2.91962C44.7663 2.67227 44.9986 2.56679 45.3299 2.56679C48.0316 2.56679 48.122 7.94231 48.1222 7.99512C48.1222 8.54905 48.5102 9.02688 49.0521 9.14126C49.5949 9.25579 50.1424 8.97469 50.3663 8.46795C51.2042 6.57272 53.5641 2.83384 55.5201 3.37573C55.7986 3.45292 55.9769 3.60699 56.1159 3.89075C56.6145 4.90673 56.3477 7.15384 55.4747 9.44986C52.3753 11.2316 49.2841 13.5108 46.3528 16.1964C43.5323 15.9896 40.7036 15.8768 37.8742 15.8581C36.2413 10.7388 36.6238 6.84117 37.4673 5.65113ZM25.7448 10.1227H18.6139L18.6147 8.07215H25.745V10.1227H25.7448ZM18.5358 2.70133H25.8232C26.314 2.70133 26.7133 3.10056 26.7133 3.59136V5.72785H17.6458V3.59152C17.6458 3.10072 18.045 2.70133 18.5358 2.70133ZM10.768 29.493C10.1738 26.3374 9.89953 22.9221 9.78905 21.1694C9.75702 20.644 9.87312 20.136 10.1259 19.6984C12.3612 15.812 16.6813 13.0992 17.7548 12.4664H26.6036C27.2885 12.8695 29.2985 14.121 31.2444 15.986C28.6302 16.1045 26.0204 16.3007 23.4213 16.58C22.8752 16.6386 22.4431 17.0686 22.3819 17.6144C21.9311 21.6295 21.684 25.6877 21.6414 29.6962C18.0431 29.7345 14.4491 29.783 10.8627 29.8437C10.8242 29.7294 10.7908 29.6128 10.768 29.493ZM6.98848 46.7744C6.99833 46.7747 7.00801 46.7756 7.01786 46.7758L7.05536 46.7764C7.58085 46.7862 8.10634 46.7948 8.63198 46.8042C8.16228 48.0668 7.69585 49.3307 7.2349 50.5965C7.13161 49.1688 7.05098 47.8808 6.98848 46.7744ZM60.3239 77.433H19.676C15.5375 77.433 11.7901 74.949 10.1088 71.2432C11.6483 70.8593 12.9834 69.7512 13.5962 68.1883C14.2716 66.4668 14.8852 64.8808 15.4722 63.34C15.7027 62.7351 15.3993 62.0581 14.7944 61.8276C14.1895 61.5973 13.5125 61.9006 13.282 62.5054C12.6976 64.0392 12.0866 65.618 11.4141 67.3326C10.9285 68.5713 9.60467 69.2808 8.33181 68.9818C7.5321 68.7953 6.75129 68.5114 6.01251 68.1384C4.84825 67.5489 4.28948 66.1534 4.71262 64.893C7.71726 55.9517 10.9947 46.9472 14.4538 38.1298C14.9402 36.8909 16.2649 36.1809 17.5343 36.4782C18.3419 36.6677 19.1228 36.9521 19.8568 37.324C21.0213 37.9122 21.5796 39.3071 21.1556 40.5688C19.1892 46.4197 17.096 52.3277 14.9338 58.1289C14.7077 58.7353 15.0161 59.4101 15.6226 59.6363C16.2291 59.8625 16.9039 59.5539 17.13 58.9475C18.6034 54.994 20.0438 50.9912 21.4354 46.9905C27.5975 47.0574 33.7981 47.0919 39.9999 47.0919C46.2021 47.0919 52.4034 47.0575 58.566 46.9905C61.04 54.1034 63.6657 61.2104 66.4035 68.1872C67.0165 69.7501 68.3517 70.8582 69.8914 71.2423C68.2104 74.9485 64.4625 77.433 60.3239 77.433ZM73.9882 68.1366C73.2513 68.5089 72.4701 68.7933 71.6664 68.9816C70.3965 69.2793 69.0717 68.5697 68.5855 67.3309C65.1335 58.5337 61.8561 49.5292 58.8443 40.5674C58.4204 39.3061 58.9788 37.9111 60.1434 37.3226C60.88 36.9503 61.6613 36.6659 62.4651 36.4776C62.6599 36.432 62.856 36.4099 63.0501 36.4099C64.1219 36.4099 65.1344 37.0795 65.546 38.1283C68.998 46.9255 72.2753 55.93 75.2871 64.8919C75.711 66.1532 75.1526 67.5481 73.9882 68.1366ZM71.3688 46.8042C71.8935 46.7948 72.4184 46.7862 72.9431 46.7764L72.985 46.7756C72.9939 46.7755 73.0028 46.7745 73.0117 46.7744C72.9491 47.8803 72.8684 49.1679 72.7653 50.595C72.3043 49.3293 71.8381 48.066 71.3688 46.8042ZM77.4178 40.6968C77.0634 42.4503 75.7121 43.8621 73.968 44.2949C73.6392 44.3787 73.2917 44.4249 72.9383 44.4323L72.8994 44.433C72.0984 44.448 71.2976 44.4619 70.4966 44.4755C69.5872 42.0628 68.6645 39.6594 67.7278 37.2721C66.8195 34.9566 64.3262 33.634 61.9304 34.1956C60.9455 34.4264 59.9884 34.7747 59.086 35.231C56.8892 36.3412 55.8301 38.9564 56.6224 41.3142C56.9964 42.4272 57.3746 43.5408 57.7566 44.6546C45.9637 44.7771 34.035 44.7771 22.242 44.6546C22.6242 43.5405 23.0036 42.4269 23.3769 41.3157C24.1699 38.9572 23.1106 36.3418 20.9145 35.2325C20.0157 34.7772 19.0586 34.4286 18.0692 34.1963C15.6733 33.6351 13.1809 34.958 12.2716 37.2736C11.3346 39.6619 10.4122 42.0648 9.50358 44.4757C8.70198 44.4621 7.90023 44.448 7.09864 44.4332L7.06411 44.4326C6.70769 44.4251 6.36049 44.3788 6.02485 44.2933C4.2876 43.8622 2.93599 42.4505 2.58144 40.6959C2.26471 39.1357 2.26471 37.5536 2.5816 35.9927C3.01162 33.8689 4.89575 32.2977 7.06192 32.2568C28.9179 31.8373 51.0815 31.8373 72.9378 32.2568C75.1037 32.2977 76.9878 33.8689 77.418 35.9935C77.735 37.5534 77.735 39.1355 77.4178 40.6968Z" fill="#3BB77E"/>
<path d="M24.5096 51.1036H24.4305C21.7466 51.11 19.5808 53.2284 19.4998 55.9263C19.4047 59.1038 19.4047 62.3261 19.4998 65.5035C19.5808 68.2013 21.7465 70.3197 24.4314 70.3262H24.5096C27.1934 70.3197 29.3593 68.2014 29.4402 65.5035C29.5354 62.3261 29.5354 59.1038 29.4402 55.9263C29.3591 53.2282 27.1934 51.11 24.5096 51.1036ZM27.0973 65.4332C27.0553 66.8355 25.8918 67.9789 24.5049 67.9822H24.4361C23.0481 67.9789 21.8846 66.8353 21.8426 65.4332C21.7487 62.3023 21.7487 59.1274 21.8426 55.9965C21.8846 54.5942 23.0481 53.4508 24.4369 53.4475H24.503H24.5038C25.8918 53.4508 27.0553 54.5942 27.0973 55.9965C27.1912 59.1274 27.1912 62.3023 27.0973 65.4332Z" fill="#3BB77E"/>
<path d="M40.0393 51.1036H39.9603C37.2764 51.11 35.1106 53.2284 35.0296 55.9263C34.9345 59.1038 34.9345 62.3261 35.0296 65.5035C35.1106 68.2013 37.2763 70.3197 39.9612 70.3262H40.0393C42.7233 70.3197 44.889 68.2013 44.97 65.5035C45.0651 62.3261 45.0651 59.1038 44.97 55.9263C44.889 53.2284 42.7233 51.11 40.0393 51.1036ZM42.6271 65.4332C42.5851 66.8355 41.4217 67.9789 40.0348 67.9822H39.9661C38.578 67.9789 37.4146 66.8353 37.3725 65.4332C37.2786 62.3023 37.2786 59.1274 37.3725 55.9965C37.4146 54.5942 38.578 53.4508 39.9668 53.4475H40.0329H40.0337C41.4217 53.4508 42.5851 54.5942 42.6271 55.9965C42.721 59.1274 42.721 62.3023 42.6271 65.4332Z" fill="#3BB77E"/>
<path d="M55.5692 51.1036H55.4903C52.8063 51.11 50.6406 53.2284 50.5597 55.9263C50.4645 59.1038 50.4645 62.3261 50.5597 65.5035C50.6406 68.2013 52.8063 70.3198 55.4912 70.3262H55.5694C58.2534 70.3197 60.4191 68.2013 60.5 65.5035C60.5952 62.3261 60.5952 59.1038 60.5 55.9263C60.4191 53.2284 58.2534 51.11 55.5692 51.1036ZM58.1571 65.4332C58.1151 66.8355 56.9518 67.9789 55.5647 67.9822H55.4961C54.1081 67.9789 52.9447 66.8353 52.9027 65.4332C52.8086 62.3023 52.8086 59.1274 52.9027 55.9965C52.9447 54.5942 54.1081 53.4508 55.4969 53.4475H55.563H55.5639C56.9519 53.4508 58.1152 54.5942 58.1573 55.9965C58.251 59.1274 58.251 62.3023 58.1571 65.4332Z" fill="#3BB77E"/>
</svg>
