<svg width="80" height="80" viewBox="0 0 80 80" fill="none" xmlns="http://www.w3.org/2000/svg">
<g clip-path="url(#clip0)">
<path d="M40.5002 54.5C29.3335 54.6667 7.00016 54.9 7.00016 54.5H6.50016L7.00016 59.5C7.33344 59.6667 8.1 60.1 8.5 60.5C9 61 9.5 61.5 9.5 62V63.5C9.5 64 8.5 64.5 8.5 65C8.5 65.5 7.00016 66 6.50016 66.5C6.10016 66.9 6.33349 69 6.50016 70L41.0002 69L40.5002 54.5Z" fill="#FDC040"/>
<path d="M25.5 34.5L24 43L28.5 41L32.5 39C33.1667 39.3333 34.6 40.1 35 40.5C35.5 41 39 45.5 39.5 46C39.9 46.4 41 52.5 41.5 55.5V64L42.5 69H46C45.8333 70 45.5 72.1 45.5 72.5C45.5 73 45 74 45.5 74.5C46 75 47 74.5 48 75C49 75.5 52 75 54 75C56 75 60.5 75 61.5 74.5C62.5 74 65 73.5 65.5 73C66 72.5 67.5 69 67.5 68.5C67.5 68.1 66.8333 63.3333 66.5 61C65.6667 55.6667 64 44.9 64 44.5C64 44 61.5 33 61.5 32.5C61.5 32.1 60.8333 32.3333 60.5 32.5C59.3333 33 56.9 34 56.5 34H51C50.6 34 47.8333 33 46.5 32.5L41.0002 32C38.6668 32.1667 33.9 32.5 33.5 32.5C33.1 32.5 28 33.8333 25.5 34.5Z" fill="#FDC040"/>
<path d="M6.6659 63.9855C5.92966 63.9855 5.33272 64.5825 5.33272 65.3187V67.9851H1.33318C0.596937 67.9851 0 68.582 0 69.3183C0.0058587 74.47 4.18051 78.6447 9.33226 78.6505H38.6622C41.1008 78.6512 43.4416 77.6936 45.1804 75.9842H59.7959C62.5482 75.9881 65.1624 74.7773 66.9396 72.6753C68.7174 70.5733 69.4771 67.7943 69.0162 65.0805L67.4591 55.9865H70.2439C73.0964 56.0034 75.8175 54.7887 77.7098 52.6535C79.5755 50.562 80.3638 47.7224 79.8431 44.9682L76.2738 26.3037C75.3201 21.7847 71.2946 18.5773 66.6766 18.6574H61.3061L61.4181 13.4718L62.7304 7.01878C62.8099 6.6282 62.7103 6.22134 62.4583 5.91148C62.2071 5.60162 61.8295 5.4213 61.4305 5.41935L39.9954 5.32561C37.829 5.22862 35.7225 4.58677 33.8692 3.45929C31.2985 1.70428 28.153 1.00254 25.0798 1.49728L21.0712 2.29666C20.6311 2.38454 20.2653 2.68724 20.096 3.10256C19.9274 3.51788 19.9788 3.98983 20.2321 4.35958L26.5731 13.5773L26.6636 19.8858L22.6439 42.9853L5.95374 53.5258C5.90622 53.5629 5.86196 53.6033 5.82095 53.6469C5.77343 53.682 5.72916 53.7204 5.6875 53.7615C5.61003 53.8487 5.54429 53.9457 5.49286 54.0498C5.47398 54.0869 5.44729 54.1175 5.43167 54.1579C5.36983 54.307 5.33598 54.4665 5.33272 54.6285V54.6533V59.986C5.33272 60.7229 5.92966 61.3192 6.6659 61.3192C7.40215 61.3192 7.99908 61.9161 7.99908 62.6524C7.99908 63.3893 7.40215 63.9855 6.6659 63.9855ZM38.6622 75.9842H9.33226C6.16596 75.9809 3.43711 73.7533 2.79981 70.6514H45.1947C44.5574 73.7533 41.8285 75.9809 38.6622 75.9842ZM66.6766 21.3238C70.0122 21.2489 72.9324 23.5488 73.6419 26.8088L77.2112 45.4733C77.577 47.4191 77.0192 49.4241 75.701 50.9005C74.315 52.455 72.3263 53.337 70.2439 53.3201H67.0027L66.5458 50.6537H70.2439C71.4514 50.6674 72.6043 50.1512 73.3998 49.2424C74.2024 48.3389 74.5403 47.1138 74.3131 45.9264L70.7438 27.2619C70.3467 25.3383 68.6406 23.966 66.6766 23.9901H61.9825L61.5248 21.3238H66.6766ZM66.0901 47.9874L62.4382 26.6565H66.6766C67.3614 26.6324 67.9681 27.0952 68.1256 27.7618L71.6929 46.4264C71.7678 46.8059 71.6571 47.1978 71.3961 47.4822C71.1058 47.8136 70.684 47.9991 70.2439 47.9874H66.0901ZM29.2551 14.6579H58.725L58.6105 19.9626C58.6092 20.0479 58.6163 20.1325 58.6306 20.2165L60.5263 31.2751L56.4388 32.1122C52.6886 32.8765 48.8076 32.7027 45.14 31.6071C40.0468 30.0702 34.6021 30.1535 29.5578 31.8441L27.1583 32.6441L29.3196 20.2178C29.3306 20.1364 29.3345 20.0544 29.33 19.9724L29.2551 14.6579ZM23.5761 4.52623L25.5693 4.12588C27.9864 3.74962 30.4561 4.32312 32.4605 5.72596C34.7376 7.11252 37.3317 7.89237 39.9954 7.99197L59.7998 8.0792L58.9984 11.9915H28.7155L23.5761 4.52623ZM26.6304 35.6333L30.3976 34.377C34.9211 32.8602 39.804 32.7867 44.3712 34.1667C48.4599 35.3879 52.7876 35.5813 56.9694 34.7291L60.9689 33.9096L66.3921 65.5309C66.7235 67.4715 66.1799 69.4589 64.9079 70.9606C63.6353 72.4631 61.7644 73.3256 59.7959 73.3178H47.0812C47.6807 72.0699 47.9925 70.7035 47.9945 69.3183C47.9945 68.582 47.3976 67.9851 46.6613 67.9851H42.6618V54.6533C42.6468 47.5564 38.8315 41.011 32.6629 37.501C32.2339 37.2529 31.7034 37.2634 31.2842 37.5276L25.6852 41.0643L26.6304 35.6333ZM32.0165 40.2259C36.5752 43.0967 39.513 47.9496 39.942 53.3201H11.2787L32.0165 40.2259ZM7.99908 66.4241C9.59851 65.8597 10.6674 64.3481 10.6674 62.6524C10.6674 60.9566 9.59851 59.4457 7.99908 58.8813V55.9865H39.9954V67.9851H7.99908V66.4241Z" fill="#3BB77E"/>
<path d="M29.3301 62.6523H31.9964V65.3187H29.3301V62.6523Z" fill="#3BB77E"/>
<path d="M17.3315 58.6528H19.9979V61.3192H17.3315V58.6528Z" fill="#3BB77E"/>
</g>
<defs>
<clipPath id="clip0">
<rect width="80" height="80" fill="white"/>
</clipPath>
</defs>
</svg>
