<svg width="80" height="80" viewBox="0 0 80 80" fill="none" xmlns="http://www.w3.org/2000/svg">
<g clip-path="url(#clip0)">
<path d="M25 69.5L18 71L16.5 72L15 74L14 75.5L17 76.5C18.5 77 20.5 77.5 21.5 78C22.3 78.4 30.1667 78.5 34 78.5C50.8 78.1 63.6667 66.3333 68 60.5L74 50.5L76.5 41L77.5 27.5C76.6667 24 75 16.9 75 16.5C75 16.1 74 14.6667 73.5 14L70.5 14.5L69.5 18V19C69.3333 20 69 22.1 69 22.5C69 22.9 67.6667 26.3333 67 28L64.5 35L59.5 43.5L52 53L45 59.5L34.5 65.5L25 69.5Z" fill="#FDC040"/>
<path d="M75.5933 13.6286L72.7415 3.50559C72.3478 2.10808 71.1608 1.10445 69.7174 0.948619L67.5488 0.714477C66.5525 0.606627 65.5533 0.929081 64.8076 1.59837C64.0617 2.26767 63.6336 3.22643 63.6329 4.22865L63.6279 13.4379C62.4403 17.6728 60.8714 21.7877 58.9515 25.7328C58.1784 23.9509 57.2393 22.2339 56.1366 20.6077C55.015 18.9561 53.7672 17.4176 52.428 16.0352C49.863 13.387 45.9472 12.4827 42.4511 13.7321C40.0089 14.6043 37.4743 15.8065 34.9154 17.3035C34.7983 13.3569 33.8805 9.99548 33.0687 7.75612C32.0272 4.88294 30.5967 2.31378 29.3349 1.05115C27.5601 -0.723674 24.4259 -0.0629783 22.7226 1.63964C21.2878 3.07419 20.5237 5.66133 23.0926 8.23128C24.5051 9.6438 25.6766 12.5748 26.4597 16.6034C24.3218 15.4291 22.2087 14.4633 20.1614 13.7322C16.6673 12.4834 12.7509 13.3873 10.1849 16.0349C9.39226 16.8525 8.62543 17.7327 7.90612 18.6506C7.50677 19.1602 7.59617 19.8972 8.10572 20.2964C8.61543 20.6956 9.35209 20.6065 9.75144 20.0968C10.4203 19.2433 11.1324 18.4259 11.8683 17.6669C13.796 15.6777 16.7415 15 19.3727 15.9402C21.7163 16.777 24.16 17.9404 26.636 19.3978C29.5167 21.0929 33.0956 21.0929 35.9766 19.3978C38.4519 17.9406 40.8956 16.7773 43.2398 15.9402C45.8721 14.9995 48.8174 15.6774 50.744 17.6667C51.9894 18.9525 53.1512 20.3851 54.1966 21.9246C55.593 23.9842 56.7092 26.1989 57.5265 28.5122C54.1206 34.82 49.7971 40.6418 44.6828 45.7561C36.951 53.489 27.5929 59.4197 17.3867 63.0945C10.99 59.1367 6.40451 52.9792 4.44821 45.6954C2.44565 38.2391 3.43193 30.4774 7.22558 23.8398C7.54678 23.2777 7.35156 22.5615 6.78949 22.2403C6.22758 21.9191 5.51139 22.1145 5.19003 22.6764C1.08768 29.8542 0.0201287 38.245 2.18431 46.303C4.13139 53.5528 8.49132 59.7693 14.5717 64.0441C13.9022 64.2548 13.23 64.4572 12.5541 64.6486C12.5516 64.6493 12.5491 64.6502 12.5466 64.6508C12.5454 64.6511 12.5441 64.6516 12.5429 64.6519C12.5421 64.6521 12.5415 64.6525 12.5407 64.6529C12.3076 64.7194 12.0985 64.8567 11.9449 65.0497L7.83172 70.2196C7.46472 70.6809 7.49723 71.3428 7.90768 71.7658L12.5483 76.5493C12.6664 76.6711 12.8086 76.7633 12.9635 76.8238C12.9672 76.8253 12.9704 76.8278 12.9743 76.8294C18.5238 78.9362 24.3713 80 30.2505 80C33.5356 80 36.8311 79.6677 40.0886 78.9995C49.4115 77.0873 57.9125 72.5037 64.6725 65.7446C69.5323 60.8848 73.2366 55.1935 75.6822 48.8288C75.9144 48.2246 75.6128 47.5464 75.0084 47.3141C74.4035 47.0817 73.7256 47.3836 73.4937 47.9879C71.1665 54.0441 67.641 59.4605 63.0148 64.0867C56.5804 70.5205 48.4896 74.8829 39.6177 76.7028C31.5552 78.3566 23.2558 77.848 15.4995 75.2418L18.8718 71.7656C19.3179 71.3059 19.3122 70.5735 18.8596 70.1207L15.0809 66.3408C26.8153 62.6823 37.5891 56.167 46.3414 47.4133C55.4311 38.3237 62.1035 27.0659 65.6765 14.8073L73.6594 15.1347C77.038 24.1996 77.4899 34.2931 74.922 43.6467C74.7505 44.271 75.1178 44.9161 75.7421 45.0875C76.3662 45.2593 77.0114 44.8918 77.1829 44.2674C79.9453 34.2047 79.3799 23.3269 75.5933 13.6286ZM29.0748 17.9518C28.2134 12.4093 26.7601 8.58249 24.7511 6.57337C23.5585 5.3803 23.4305 4.24757 24.3808 3.29755C25.3429 2.33535 27.0068 2.03821 27.6771 2.7086C29.399 4.43185 32.596 10.8406 32.583 18.203C31.4169 18.4232 30.2066 18.3407 29.0748 17.9518ZM13.3896 74.0494L10.3079 70.8728L12.9618 67.5373L16.3851 70.9617L13.3896 74.0494ZM66.3734 3.34335C66.6287 3.11452 66.9572 3.00839 67.2972 3.04543L69.4656 3.27958C69.952 3.3321 70.3521 3.67034 70.4848 4.14144L72.9121 12.7575L65.9731 12.4729L65.9775 4.2299C65.9778 3.88697 66.1183 3.57218 66.3734 3.34335Z" fill="#3BB77E"/>
<path d="M68.2853 17.7866C66.524 30.3703 60.2386 42.6161 50.5862 52.2685C42.5534 60.3011 32.8073 65.9847 22.4012 68.705C21.7747 68.8688 21.3998 69.5094 21.5636 70.1357C21.7013 70.6627 22.1766 71.0118 22.6969 71.0118C22.7951 71.0118 22.8948 70.9993 22.9941 70.9733C33.8028 68.1477 43.9172 62.253 52.2443 53.9262C62.2546 43.9159 68.7761 31.1967 70.6073 18.1114C70.697 17.4702 70.25 16.8777 69.6087 16.788C68.968 16.6984 68.3748 17.1453 68.2853 17.7866Z" fill="#3BB77E"/>
</g>
<defs>
<clipPath id="clip0">
<rect width="80" height="80" fill="white"/>
</clipPath>
</defs>
</svg>
