<svg width="80" height="80" viewBox="0 0 80 80" fill="none" xmlns="http://www.w3.org/2000/svg">
<g clip-path="url(#clip0)">
<path d="M22.5 57C20.1 56.6 18.8333 57.5 18.5 58L18 58.5C17.5 59.1667 16.5 60.6 16.5 61V64C16.5 64.5 16.5 66 17 67C17.5 68 17.5 68.5 18 69C18.5 69.5 19 70 19.5 70C20 70 22.5 70.5 23 70.5H28.5C30 70.5 30.5 70 31.5 70C32.5 70 33.5 69.5 33.5 69C33.5 68.5 34 68 34.5 67.5C35 67 34.5 66 35 65.1754C35.5 64.3507 35 64 35 63.5V61C35 60.5 34.5 60 34.5 59.5C34.5 59 33.5 58.5 33 58C32.6 57.6 31.5 57.1667 31 57C29.1667 57.1667 24.9 57.4 22.5 57Z" fill="#FDC040"/>
<path d="M67 31C59.8 33.8 46 32.1667 40 31L38.5 32L36 36L34.5 39.5C36.1 39.9 40.8333 44 43 46L44.5 49C48.1 49.4 49 52.5 49 54L49.5 64.5C56.3 66.5 72 63.3333 79 61.5C79.4 60.7 77.8333 52.1667 77 48C75 42 69.5 34.1667 67 31Z" fill="#FDC040"/>
<path d="M74.0949 38.9178C71.7068 34.5531 69.3328 31.7326 68.4777 30.7777V24.3355L79.5718 15.226C79.8359 15.0089 79.9923 14.6875 79.9997 14.3456C80.0072 14.0037 79.8648 13.6758 79.6103 13.4476L71.2162 5.92389C70.7343 5.49199 69.9933 5.53262 69.5613 6.01436C69.1292 6.49625 69.1699 7.23722 69.6518 7.66927L77.0288 14.2814L68.4781 21.3025V16.5098C68.4781 15.8626 67.9536 15.3378 67.3062 15.3378C66.6588 15.3378 66.1343 15.8626 66.1343 16.5098L66.1337 30.2442C57.766 31.5985 49.2972 31.5983 40.9296 30.2439V16.5098C40.9296 15.8626 40.405 15.3378 39.7576 15.3378C39.1103 15.3378 38.5857 15.8626 38.5857 16.5098V21.3029L30.0344 14.2814L39.1571 6.10342C40.4992 4.89994 42.2324 4.39976 43.9003 4.5979C44.2437 6.07327 45.0325 9.16792 46.2438 12.2509C48.2342 17.3168 50.5559 20.3454 53.1441 21.2521C53.2696 21.296 53.4005 21.3181 53.5315 21.3181C53.6624 21.3181 53.7935 21.296 53.9188 21.2521C56.507 20.3454 58.8288 17.3168 60.8197 12.251C62.029 9.17386 62.8168 6.08733 63.1617 4.60837C64.1942 4.48492 65.2605 4.62305 66.2518 5.04745C66.8473 5.3023 67.5358 5.02619 67.7905 4.43133C68.0453 3.8363 67.7694 3.14753 67.1745 2.89283C64.1639 1.60387 60.6541 2.19593 58.232 4.40054L57.1505 5.38496C55.0871 7.26378 51.9766 7.26378 49.914 5.38496L48.8327 4.40054C45.6394 1.49356 40.807 1.47559 37.5924 4.35851L27.4528 13.4479C27.1981 13.6761 27.0559 14.0042 27.0634 14.3459C27.0707 14.6878 27.2271 15.0092 27.4912 15.2263L38.5854 24.3359V30.777C37.8171 31.6321 35.8426 33.967 33.7382 37.5475C31.9559 36.5977 30.071 35.66 28.1617 34.7108C26.4932 33.8811 24.8127 33.0454 23.1995 32.1968C24.7761 30.2225 25.9923 27.9877 26.5252 25.3678C27.3396 21.364 26.1483 17.7876 23.2568 15.5555C20.5156 13.4395 16.7406 12.9678 13.8629 14.3817C12.3203 15.1396 9.73255 17.1065 9.73255 21.7636C9.73255 24.7115 11.6047 27.4983 15.4562 30.2834C16.6609 31.1546 18.0154 31.9983 19.457 32.8217C17.6697 34.5797 15.6186 36.1444 13.6808 37.6223C9.50895 40.8043 5.55082 43.8257 5.44847 47.8965C2.89619 48.5084 0.926892 50.6367 0.584066 53.3175C-0.19534 59.4208 -0.19534 65.6101 0.584066 71.7138C0.977831 74.7913 3.51621 77.1432 6.62008 77.3059C12.8435 77.6304 19.1106 77.7926 25.3779 77.7926C31.645 77.7926 37.9126 77.6303 44.1361 77.3059C47.2407 77.1431 49.7783 74.791 50.1702 71.7138C50.4037 69.889 50.5657 68.0565 50.6596 66.2209C51.6131 66.2495 52.5745 66.2648 53.5315 66.2648C68.8305 66.2648 78.8121 62.6852 79.2296 62.5328C79.692 62.3639 79.9997 61.9242 79.9997 61.432C80 51.7438 76.7889 43.8413 74.0949 38.9178ZM48.3361 7.11721C51.2975 9.8156 55.7656 9.8156 58.7288 7.11753L59.8101 6.13327C60.0298 5.93326 60.2622 5.75185 60.5045 5.58903C60.0975 7.14159 59.4731 9.27058 58.6388 11.3933C56.6853 16.3643 54.8409 18.227 53.5319 18.8756C52.2231 18.227 50.3787 16.3643 48.4256 11.3933C47.5915 9.27027 46.967 7.13987 46.5599 5.58668C46.8012 5.74966 47.0337 5.93154 47.2553 6.13311L48.3361 7.11721ZM12.077 21.7629C12.077 19.2163 13.0521 17.3911 14.897 16.4846C15.6686 16.1055 16.5503 15.9216 17.4579 15.9216C18.9745 15.9216 20.5627 16.4355 21.8252 17.4101C23.0929 18.3886 25.0908 20.6629 24.2291 24.8998C23.7567 27.2224 22.601 29.2429 21.0928 31.0544C16.0278 28.216 12.077 25.2026 12.077 21.7629ZM6.74228 50.0667C8.83126 49.9583 10.921 49.8676 12.9536 49.7973C13.6005 49.7748 14.1066 49.2325 14.0841 48.5856C14.0616 47.9385 13.5233 47.4344 12.8724 47.4549C11.2148 47.5122 9.51926 47.5836 7.81732 47.6665C8.1192 44.8142 11.3834 42.322 15.1028 39.4854C17.2877 37.8187 19.6072 36.0496 21.6008 34.0009C23.3967 34.958 25.2718 35.8905 27.1185 36.8088C28.9671 37.7281 30.8306 38.6549 32.598 39.5979C31.437 41.8037 30.2952 44.3707 29.3502 47.2627C25.4079 47.2188 21.4721 47.2358 17.5657 47.3216C16.9185 47.3358 16.4055 47.8718 16.4197 48.519C16.4339 49.1662 16.9672 49.6845 17.6169 49.6648C26.3532 49.4731 35.2346 49.6084 44.0145 50.0667C45.9858 50.1689 47.5972 51.6605 47.8459 53.614C48.0105 54.9002 48.137 56.1904 48.2298 57.4828C48.1351 58.7797 48.0065 60.0673 47.8459 61.3129C47.5973 63.2649 45.9855 64.7557 44.0126 64.8581C41.3591 64.9967 38.6934 65.1046 36.0653 65.1835C36.1216 63.5286 36.0851 61.8669 35.9525 60.2213C35.7733 57.9956 33.9677 56.2257 31.7529 56.1046C27.9608 55.8971 24.1153 55.8969 20.3241 56.1046C18.1091 56.2257 16.3037 57.9956 16.1244 60.2213C15.9908 61.8794 15.9547 63.554 16.0128 65.2215C12.9266 65.1393 9.81521 65.019 6.74228 64.8581C4.77001 64.7559 3.15807 63.265 2.90963 61.3125C2.75243 60.0815 2.62352 58.7981 2.52539 57.4968C2.61821 56.1998 2.74478 54.9049 2.90963 53.614C3.15932 51.6608 4.77126 50.1689 6.74228 50.0667ZM34.6604 40.7348C38.457 42.9074 41.5246 45.1801 42.5554 47.651C38.9824 47.4804 35.3962 47.3621 31.8111 47.2978C32.6559 44.8513 33.6501 42.6517 34.6604 40.7348ZM33.6161 66.9977C33.5305 68.0604 32.6744 68.9049 31.6248 68.9624C31.6247 68.9624 31.6247 68.9624 31.6247 68.9624C27.9178 69.1653 24.1591 69.1653 20.4519 68.9624C19.4023 68.9049 18.5462 68.0604 18.4605 66.9977C18.2844 64.812 18.2844 62.5953 18.4605 60.4096C18.5462 59.3469 19.4023 58.5023 20.452 58.4448C22.3054 58.3434 24.1719 58.2927 26.0383 58.2927C27.9048 58.2927 29.7713 58.3434 31.6248 58.4448C32.6744 58.5023 33.5305 59.3469 33.6161 60.4096C33.7922 62.5953 33.7922 64.812 33.6161 66.9977ZM44.0142 74.9647C31.6482 75.6094 19.1085 75.6094 6.74306 74.9647C4.77173 74.8613 3.15932 73.3689 2.90963 71.4161C2.65118 69.392 2.48336 67.358 2.40211 65.3211C3.49371 66.4155 4.97768 67.1136 6.6204 67.1988C9.7863 67.3647 12.9936 67.4879 16.1726 67.5705C16.5163 69.6125 18.2384 71.1888 20.3239 71.3028C22.2199 71.4066 24.1292 71.4585 26.0383 71.4585C27.9475 71.4585 29.8569 71.4066 31.7526 71.3028C33.851 71.188 35.5809 69.5931 35.9097 67.5332C38.6277 67.4533 41.3879 67.3424 44.1342 67.1988C45.7779 67.1136 47.2625 66.415 48.3542 65.3203C48.2728 67.3575 48.1047 69.392 47.8458 71.4166C47.597 73.3692 45.9855 74.8613 44.0142 74.9647ZM73.8099 61.6368C73.5688 58.1137 73.1233 54.6034 72.4811 51.1824C72.3617 50.5463 71.7498 50.1276 71.1131 50.2469C70.477 50.3662 70.058 50.9788 70.1776 51.6149C70.8243 55.0605 71.2645 58.5999 71.4932 62.1501C70.5909 62.335 69.5677 62.527 68.4353 62.7139C68.2936 58.0009 67.7906 53.3081 66.9346 48.7445C66.8153 48.1083 66.2027 47.6897 65.5668 47.8086C64.9306 47.928 64.5117 48.5404 64.6311 49.1765C65.4816 53.7122 65.9752 58.3797 66.1013 63.0664C62.607 63.546 58.3396 63.9207 53.5316 63.9207C52.602 63.9207 51.6681 63.906 50.7418 63.8783C50.8081 60.3513 50.6185 56.8203 50.1705 53.3178C49.8191 50.5581 47.7433 48.3843 45.0813 47.8469C44.2209 44.2659 40.5442 41.3892 35.8051 38.6847C37.6782 35.5144 39.4306 33.3759 40.1958 32.4985C44.6222 33.2351 49.0772 33.6045 53.5322 33.6045C57.9869 33.6045 62.4416 33.2353 66.8679 32.4987C67.7473 33.5043 69.9241 36.1632 72.0769 40.1135C74.5435 44.6396 77.4693 51.8136 77.6472 60.5893C76.885 60.8298 75.5781 61.2146 73.8099 61.6368Z" fill="#3BB77E"/>
<path d="M30.741 60.2223C29.1756 60.1491 27.5935 60.112 26.0383 60.112C24.4829 60.112 22.9007 60.1491 21.3353 60.2223C20.7375 60.2503 20.2568 60.7242 20.2203 61.3218C20.1242 62.9021 20.1242 64.505 20.2203 66.0855C20.2567 66.6831 20.7375 67.157 21.3353 67.185C22.8994 67.2581 24.4818 67.2953 26.0383 67.2953C27.5946 67.2953 29.1769 67.2582 30.741 67.185C31.3388 67.157 31.8195 66.6831 31.856 66.0855C31.9521 64.505 31.9521 62.9023 31.856 61.3218C31.8196 60.7244 31.339 60.2503 30.741 60.2223ZM29.5655 64.8878C27.2099 64.9724 24.8664 64.9724 22.5111 64.8878C22.486 64.0995 22.486 63.3079 22.5111 62.5196C24.8679 62.4349 27.2087 62.4349 29.5655 62.5196C29.5906 63.3079 29.5906 64.0995 29.5655 64.8878Z" fill="#3BB77E"/>
</g>
<defs>
<clipPath id="clip0">
<rect width="80" height="80" fill="white"/>
</clipPath>
</defs>
</svg>
