<svg width="80" height="80" viewBox="0 0 80 80" fill="none" xmlns="http://www.w3.org/2000/svg">
<ellipse cx="29" cy="35" rx="19" ry="18" fill="#FDC040"/>
<path d="M29.2251 54.4913C40.6509 54.4913 49.9464 45.8928 49.9464 35.3237C49.9464 24.7546 40.6508 16.1561 29.2251 16.1561C17.7994 16.1561 8.50391 24.7546 8.50391 35.3237C8.50391 45.8928 17.7994 54.4913 29.2251 54.4913ZM29.2251 18.5021C39.3573 18.5021 47.6004 26.0482 47.6004 35.3237C47.6004 44.5992 39.3572 52.1453 29.2251 52.1453C19.093 52.1453 10.8499 44.5992 10.8499 35.3237C10.8499 26.0482 19.093 18.5021 29.2251 18.5021Z" fill="#3BB77E"/>
<path d="M35.5706 32.3495C35.5706 34.255 37.1208 35.8053 39.0264 35.8053C40.9319 35.8053 42.4821 34.255 42.4821 32.3495C42.4821 30.4441 40.9319 28.8938 39.0264 28.8938C37.1208 28.8938 35.5706 30.4441 35.5706 32.3495ZM39.0263 31.2399C39.6381 31.2399 40.1359 31.7377 40.1359 32.3495C40.1359 32.9614 39.6381 33.4592 39.0263 33.4592C38.4143 33.4592 37.9164 32.9614 37.9164 32.3495C37.9164 31.7377 38.4144 31.2399 39.0263 31.2399Z" fill="#3BB77E"/>
<path d="M33.4311 30.0822C35.3365 30.0822 36.8868 28.5319 36.8868 26.6265C36.8868 24.721 35.3365 23.1707 33.4311 23.1707C31.5256 23.1707 29.9753 24.721 29.9753 26.6265C29.9753 28.5319 31.5256 30.0822 33.4311 30.0822ZM33.4311 25.5166C34.0429 25.5166 34.5407 26.0145 34.5407 26.6263C34.5407 27.2382 34.0429 27.736 33.4311 27.736C32.8192 27.736 32.3214 27.2382 32.3214 26.6263C32.3214 26.0145 32.8192 25.5166 33.4311 25.5166Z" fill="#3BB77E"/>
<path d="M19.4237 35.8053C21.3293 35.8053 22.8796 34.255 22.8796 32.3495C22.8796 30.4441 21.3293 28.8938 19.4237 28.8938C17.5183 28.8938 15.968 30.4441 15.968 32.3495C15.968 34.255 17.5183 35.8053 19.4237 35.8053ZM19.4237 31.2399C20.0357 31.2399 20.5336 31.7377 20.5336 32.3495C20.5336 32.9614 20.0357 33.4592 19.4237 33.4592C18.8119 33.4592 18.3141 32.9614 18.3141 32.3495C18.3141 31.7377 18.8119 31.2399 19.4237 31.2399Z" fill="#3BB77E"/>
<path d="M25.019 30.0822C26.9244 30.0822 28.4747 28.5319 28.4747 26.6265C28.4747 24.721 26.9244 23.1707 25.019 23.1707C23.1135 23.1707 21.5632 24.721 21.5632 26.6265C21.5632 28.5319 23.1135 30.0822 25.019 30.0822ZM25.019 25.5166C25.6308 25.5166 26.1286 26.0145 26.1286 26.6263C26.1286 27.2382 25.6308 27.736 25.019 27.736C24.4071 27.736 23.9093 27.2382 23.9093 26.6263C23.9093 26.0145 24.4071 25.5166 25.019 25.5166Z" fill="#3BB77E"/>
<path d="M23.3008 34.769C23.1378 35.5358 22.7022 36.2371 22.0411 36.7972C20.5562 38.055 19.7802 39.8924 19.9119 41.8382C20.1171 44.8691 22.5596 47.2887 25.5934 47.4662C26.5939 47.5244 27.5981 47.3353 28.4984 46.9182C28.9532 46.7075 29.4964 46.7075 29.9512 46.9182C30.7448 47.2859 31.6192 47.4765 32.5004 47.4765C32.619 47.4765 32.7378 47.4731 32.8564 47.4662C35.8901 47.2885 38.3325 44.869 38.5377 41.8381C38.6694 39.8922 37.8933 38.0548 36.4086 36.7972C35.7475 36.2371 35.3119 35.5358 35.1491 34.7691C34.8662 33.438 34.1609 32.2679 33.1094 31.3853C30.8946 29.5262 27.5548 29.5262 25.3401 31.3853C24.2888 32.2681 23.5837 33.4381 23.3008 34.769ZM26.8486 33.1821C28.2032 32.0449 30.2463 32.0449 31.6009 33.1821C32.2478 33.725 32.6811 34.4424 32.854 35.2566C33.126 36.5363 33.8306 37.6881 34.892 38.5872C35.8021 39.3581 36.2777 40.4853 36.1968 41.6796C36.0712 43.5346 34.5762 45.0154 32.7191 45.1241C32.0956 45.1605 31.4955 45.0481 30.9372 44.7894C30.393 44.5373 29.8089 44.4113 29.2247 44.4113C28.6406 44.4113 28.0562 44.5374 27.5121 44.7894C26.9539 45.0481 26.3541 45.1608 25.7304 45.1241C23.8732 45.0154 22.3782 43.5346 22.2526 41.6798C22.1717 40.4853 22.6474 39.3581 23.5575 38.5872C24.6188 37.6882 25.3236 36.5365 25.5955 35.2566C25.7687 34.4425 26.2019 33.7251 26.8486 33.1821Z" fill="#3BB77E"/>
<path d="M75.379 62.801C77.8703 59.6224 79.2413 55.6681 79.2413 51.616C79.2413 41.6044 71.0962 33.4592 61.0845 33.4592C59.2129 33.4592 57.3842 33.7405 55.6275 34.2947C55.5011 28.4952 55.2004 22.7034 54.7235 16.9426C54.553 14.8963 54.9995 12.8999 56.0149 11.1692C57.3948 8.81548 58.6306 5.60031 56.6799 3.6495C55.8438 2.814 53.7003 1.60282 44.7772 0.73478C39.2074 0.193001 33.0913 0 29.2247 0C25.3581 0 19.242 0.193001 13.672 0.734936C4.74891 1.60297 2.60556 2.81415 1.76912 3.64997C-0.181377 5.60031 1.05436 8.81548 2.43446 11.1697C3.44967 12.9001 3.8962 14.8964 3.72556 16.9423C3.6594 17.7334 3.59387 18.5756 3.51974 19.5932C3.4725 20.2393 3.95813 20.8014 4.60423 20.8485C5.25049 20.8959 5.81245 20.4101 5.85952 19.764C5.93319 18.755 5.99794 17.9205 6.06347 17.1377C6.27446 14.6068 5.71923 12.1325 4.45815 9.98272C4.39403 9.87324 4.33397 9.7661 4.27422 9.65912C7.8255 8.16375 19.4228 7.18858 29.2248 7.18858C32.9557 7.18858 38.876 7.37251 44.3027 7.88848C50.2957 8.45842 52.9765 9.16676 54.1717 9.66506C54.113 9.77001 54.0542 9.87511 53.9912 9.98256C52.73 12.1325 52.1746 14.6066 52.3854 17.137C53.6016 31.8292 53.6656 46.7252 52.5826 61.4322C50.0658 61.4316 47.5485 61.4514 45.0445 61.4924C44.7231 57.5019 41.373 54.3532 37.3012 54.3532C33.0176 54.3532 29.5326 57.8382 29.5326 62.1218C29.5326 63.9933 30.2027 65.7778 31.4031 67.1767C31.1028 67.5266 30.8358 67.9005 30.6042 68.294C23.5876 68.3455 16.4796 68.003 9.46664 67.2721C7.63313 67.0821 6.19344 65.6055 6.0433 63.7604C4.97381 50.7091 4.80975 37.4696 5.55563 24.4095C5.59254 23.7627 5.09815 23.2084 4.45143 23.1714C3.80486 23.1348 3.25041 23.6289 3.21334 24.2756C2.4612 37.4438 2.62668 50.7927 3.70492 63.951C3.9464 66.921 6.26789 69.2989 9.22406 69.6053C15.8587 70.2968 22.5768 70.6462 29.2273 70.646C29.3842 70.646 29.5408 70.6438 29.6976 70.6434C29.5899 71.1609 29.5325 71.6922 29.5325 72.2313C29.5325 76.5149 33.0174 79.9998 37.301 79.9998C41.3728 79.9998 44.7229 76.8513 45.0443 72.8607C49.9781 72.9417 54.9626 72.9417 59.8951 72.8607C60.2165 76.8511 63.5668 79.9998 67.6386 79.9998C68.8886 79.9998 70.1326 79.6953 71.236 79.119C71.8103 78.8192 72.0327 78.1105 71.7329 77.5362C71.4328 76.9619 70.7241 76.7393 70.1501 77.0395C69.3695 77.447 68.5245 77.6538 67.6386 77.6538C64.6486 77.6538 62.216 75.2213 62.216 72.2313C62.216 72.0956 62.2232 71.9476 62.2386 71.7656C62.2666 71.4346 62.1529 71.1073 61.9258 70.8648C61.6987 70.6224 61.3797 70.4876 61.0473 70.494C55.3565 70.6027 49.5846 70.6027 43.8924 70.494C43.562 70.4877 43.2412 70.6224 43.0139 70.8648C42.7868 71.1073 42.6731 71.4346 42.7011 71.7656C42.7164 71.9464 42.7236 72.0945 42.7236 72.2313C42.7236 75.2213 40.2911 77.6538 37.3012 77.6538C34.3112 77.6538 31.8787 75.2213 31.8787 72.2313C31.8787 70.6255 32.5862 69.1105 33.8201 68.0748C34.0855 67.8519 34.239 67.523 34.239 67.1764C34.239 66.8298 34.0857 66.5009 33.8201 66.278C32.5862 65.2423 31.8787 63.7274 31.8787 62.1214C31.8787 59.1315 34.3112 56.699 37.3012 56.699C40.2911 56.699 42.7236 59.1315 42.7236 62.1214C42.7236 62.2583 42.7164 62.4064 42.7011 62.5872C42.6731 62.9182 42.7868 63.2455 43.0139 63.4879C43.2412 63.7304 43.5616 63.866 43.8924 63.8588C49.5844 63.7502 55.3563 63.7502 61.0473 63.8588C61.38 63.866 61.6987 63.7304 61.9258 63.4879C62.1529 63.2455 62.2666 62.9182 62.2386 62.5872C62.2232 62.4052 62.216 62.2572 62.216 62.1214C62.216 59.1315 64.6486 56.699 67.6386 56.699C70.6293 56.699 73.0627 59.1315 73.0627 62.1214C73.0627 63.7277 72.3548 65.2425 71.1201 66.2775C70.8544 66.5004 70.7008 66.8295 70.7008 67.1764C70.7008 67.5233 70.8542 67.8524 71.1201 68.0752C72.3548 69.1103 73.0627 70.6252 73.0627 72.2313C73.0627 72.9161 72.9369 73.5831 72.6888 74.2137C72.4516 74.8167 72.7483 75.4975 73.3511 75.7347C73.954 75.9718 74.635 75.6753 74.8721 75.0725C75.228 74.1673 75.4087 73.2115 75.4087 72.2315C75.4087 70.3596 74.7383 68.5751 73.5373 67.1765C74.5923 65.9485 75.2374 64.4223 75.379 62.801ZM29.225 4.84239C29.0128 4.84239 9.65213 4.87617 3.32627 7.53674C3.00314 6.49478 3.02629 5.71073 3.42793 5.30909C3.74527 4.99191 5.43833 3.89302 13.8992 3.06987C19.3857 2.53623 25.4133 2.34604 29.2247 2.34604C33.0361 2.34604 39.0637 2.53623 44.5501 3.06987C53.011 3.89302 54.7041 4.99191 55.0211 5.30878C55.4231 5.71073 55.4464 6.49462 55.1233 7.53658C48.7972 4.87632 29.4374 4.84239 29.225 4.84239ZM67.6389 54.3531C63.5671 54.3531 60.2168 57.5016 59.8954 61.4922C58.2465 61.4652 56.5911 61.4506 54.9343 61.4416C55.5329 53.2487 55.78 44.9985 55.6708 36.7567C57.3999 36.1251 59.2173 35.8053 61.0845 35.8053C69.8026 35.8053 76.8953 42.898 76.8953 51.616C76.8953 54.3243 76.1926 56.983 74.8855 59.324C73.7599 56.4192 70.937 54.3531 67.6389 54.3531Z" fill="#3BB77E"/>
</svg>
