<svg width="80" height="80" viewBox="0 0 80 80" fill="none" xmlns="http://www.w3.org/2000/svg">
<g clip-path="url(#clip0)">
<path d="M31.0001 31.5C30.6001 31.9 30.5001 34 30.5001 35C30.5001 35.1667 30.9001 35.4 32.5001 35C34.5001 34.5 33.5001 34.5 34.5001 33.5C35.5001 32.5 35.0001 33.5 37.0001 34C39.0001 34.5 38.0001 35 39.0001 35.5C40.0001 36 40.0001 35.5 40.5001 35.5C41.0001 35.5 42.0001 34.5 43.0001 34C44.0001 33.5 44.0001 33.5 44.5001 33C44.9001 32.6 45.0001 32.1667 45.0001 32C45.0001 31.6667 44.9001 30.8 44.5001 30C44.0001 29 43.5001 28.5 43.0001 28C42.5001 27.5 41.5001 27.5 40.5001 27C39.5001 26.5 38.5001 27 37.5001 27C36.5001 27 34.5001 27.5 34.0001 27.5C33.5001 27.5 32.5001 29 32.0001 29.5C31.5001 30 31.5001 31 31.0001 31.5Z" fill="#FDC040"/>
<path d="M55.5001 21.5C55.0001 22 52.0001 33 52.0001 33.5C52.3334 33.8333 53.5001 34.7 55.5001 35.5C57.5001 36 56.5001 35 58.0001 34.5C59.5001 34 59.0001 34 60.5001 34C62.0001 34 61.5001 34 63.0001 35C64.5001 36 64.0001 35 65.0001 35C65.8001 35 66.3334 34 66.5001 33.5L68.5001 29.5L72.5001 20.5L75.5001 9L71.5001 8.5C68.1667 8.33333 61.4001 8 61.0001 8C60.6001 8 59.8334 10.6667 59.5001 12C58.3334 15 55.9001 21.1 55.5001 21.5Z" fill="#FDC040"/>
<path d="M25.0001 68C19.0001 69.6 16.8334 64 16.5001 61H15.5001C15.1667 60.8333 14.4 60.5 14 60.5C13.5 60.5 10.5 60 10.0001 60C9.50011 60 7 60.5 7 61C7 61.5 5.00005 64 4.50005 64.5C4.00005 65 4.50005 69 4.50005 69.5C4.50005 70 5.50005 72.5 5.50005 73C5.50005 73.5 6.00005 74.5 6.50005 75.5C7.00005 76.5 7.50005 77 8.50005 78C9.50005 79 8.50005 78.5 10.0001 78.5C11.5001 78.5 11.5001 78.5 12.5001 78C13.5001 77.5 15.0001 77.5 15.5001 77.5C16.0001 77.5 16.5001 78.5 17.5001 78.5C18.5001 78.5 18.5001 79 19.5001 78.5C20.5001 78 21.0001 78 22.0001 77.5C23.0001 77 24.0001 74 24.0001 73.5C24.0001 73.1 24.6667 69.6667 25.0001 68Z" fill="#FDC040"/>
<path d="M63.9731 12.4121L66.509 11.5866L69.1131 19.5872L66.5773 20.4121L63.9731 12.4121Z" fill="#3BB77E"/>
<path d="M60.0649 21.7467L62.6008 20.9212L65.2056 28.9206L62.6698 29.7467L60.0649 21.7467Z" fill="#3BB77E"/>
<path d="M15.104 25.6361C14.8228 27.6732 15.4172 29.7344 16.7414 31.3079L18.6665 33.7227V56H21.3332V35.8255L23.2596 37.1094C23.7082 37.4082 24.2915 37.4082 24.7401 37.1094L27.9998 34.9336L31.2596 37.1068C31.7082 37.4056 32.2915 37.4056 32.7401 37.1068L35.9998 34.9336L39.2596 37.1068C39.7082 37.4056 40.2915 37.4056 40.7401 37.1068L43.9998 34.9336L47.2596 37.1068C47.7082 37.4056 48.2915 37.4056 48.7401 37.1068L51.9998 34.9336L54.6665 36.7109V77.3333H25.3332V80H62.6665C66.3468 79.9954 69.3286 77.0137 69.3332 73.3333V33.3333C69.3299 33.0404 69.229 32.7565 69.0467 32.5267L76.7518 12.0137C77.7889 9.25782 77.4093 6.16928 75.7362 3.74675C74.1463 1.39649 71.4914 -0.00845603 68.6548 7.50484e-06C65.0389 0.0338617 61.8182 2.29298 60.5558 5.68165L58.4653 11.2468L55.9998 8.78126V4.00001C55.9998 3.26368 55.4028 2.66667 54.6665 2.66667H39.9998C39.2635 2.66667 38.6665 3.26368 38.6665 4.00001V6.28777C37.1593 4.92188 34.8859 4.84441 33.2889 6.10548V4.00001C33.2889 1.81772 31.52 0.0481845 29.3371 0.0481845C27.1548 0.0481845 25.3853 1.81772 25.3853 4.00001V6.10678C24.6554 5.50196 23.7368 5.17123 22.7889 5.17318C21.6886 5.17058 20.634 5.61459 19.8664 6.4043C18.285 8.03386 18.2752 10.6224 19.8436 12.2643L21.0851 13.5456C20.6333 13.7526 20.2231 14.0404 19.8748 14.3945L19.8664 14.3997L19.8534 14.4134C19.5428 14.7324 19.2856 15.0996 19.0929 15.5013L17.5734 12.6947L15.2277 13.9642L18.6756 20.3281C18.5213 20.416 18.3664 20.5013 18.2199 20.6016C18.1652 20.6387 18.117 20.6816 18.0636 20.7188L12.9041 15.9642L11.0962 17.9251L16.2212 22.6504C15.6326 23.5508 15.2511 24.5703 15.104 25.6361ZM43.2596 32.224L39.9998 34.3997L36.7401 32.2266C36.2915 31.9277 35.7082 31.9277 35.2596 32.2266L32.0304 34.3802C32.0226 34.2467 31.9998 34.1309 31.9998 34.0026C31.9914 31.0723 34.1066 28.5664 36.9966 28.0833C39.8872 27.5996 42.7023 29.2806 43.6476 32.0547C43.5103 32.0905 43.3794 32.1471 43.2596 32.224ZM46.6665 33.5091L46.6411 33.4922C46.481 30.6895 44.9712 28.1387 42.591 26.6497C40.2114 25.1608 37.257 24.9186 34.6665 26V17.3333H46.6665V33.5091ZM66.6665 73.3333C66.6665 75.5423 64.8755 77.3333 62.6665 77.3333H57.3332V36.7135L59.9998 34.9336L63.2596 37.1068C63.7082 37.4056 64.2915 37.4056 64.7401 37.1068L66.6665 35.8255V73.3333ZM63.0519 6.6185C63.9211 4.26824 66.1489 2.69727 68.6548 2.66667C70.6144 2.66277 72.4471 3.63477 73.5441 5.25847C74.7212 6.96355 74.9868 9.13738 74.2557 11.0762L65.9998 33.0664L63.9998 34.3997L60.7401 32.2266C60.2915 31.9277 59.7082 31.9277 59.2596 32.2266L55.9998 34.3997L53.2948 32.5964L63.0519 6.6185ZM57.436 13.9883L50.3599 32.8242L49.3332 33.5091V16.5521L54.6665 11.2188L57.436 13.9883ZM41.3332 5.33334H53.3332V8.00001H41.3332V5.33334ZM40.5519 10.6667H51.4477L47.4478 14.6667H36.5519L40.5519 10.6667ZM21.7694 8.27475C22.0369 7.9987 22.4048 7.84245 22.7889 7.84245C23.1737 7.84311 23.5415 7.9987 23.8091 8.27475L25.7668 10.2747C26.147 10.6628 26.7244 10.7806 27.2264 10.5742C27.7283 10.3672 28.0552 9.87631 28.0519 9.33334V4.00001C28.0304 3.5267 28.2707 3.08009 28.6769 2.83725C29.0838 2.59376 29.591 2.59376 29.9972 2.83725C30.4041 3.08009 30.6444 3.5267 30.6222 4.00001V9.33334C30.6229 9.87436 30.9504 10.3613 31.4517 10.5658C31.9523 10.7708 32.5272 10.6524 32.9067 10.2669L34.8703 8.26693C35.4328 7.7129 36.3351 7.7129 36.897 8.26693C37.4764 8.86003 37.4764 9.80665 36.897 10.3997L32.9692 14.3997L33.0089 14.4401L32.3905 15.0586C32.283 15.1693 32.1964 15.2982 32.1333 15.4388C32.1144 15.4798 32.104 15.5215 32.089 15.5638C32.0493 15.6777 32.0252 15.7962 32.0174 15.916C32.0174 15.9453 32.0011 15.9694 32.0011 15.9987V27.7598C31.6978 28.0501 31.4158 28.362 31.1587 28.6934L28.6398 23.3333C27.7101 21.4837 26.0298 20.1231 24.0265 19.6003C23.5604 19.4798 23.0825 19.4069 22.6014 19.3841L22.2596 18.9837C21.9933 18.6784 21.7922 18.4401 21.7596 18.4069C21.4152 18.0462 21.2661 17.541 21.3599 17.0508C21.4093 16.7721 21.5376 16.5143 21.729 16.3066L21.7531 16.2839L21.7863 16.2481C22.2694 15.7747 23.0174 15.7051 23.5799 16.0801C24.1457 16.4583 24.9048 16.3496 25.3423 15.8288C25.7798 15.3073 25.7544 14.541 25.2837 14.0495L21.7596 10.4121C21.1873 9.81316 21.1919 8.8685 21.7694 8.27475ZM17.7466 26C17.9204 24.7077 18.6359 23.5501 19.7147 22.8171C20.7843 22.0938 22.1131 21.8646 23.3638 22.1882C24.6138 22.5124 25.6645 23.3581 26.2479 24.5104L29.6463 31.7494C29.5623 32.0612 29.4959 32.3776 29.4478 32.6973L28.7453 32.2279C28.2974 31.929 27.7134 31.929 27.2655 32.2279L23.9998 34.3997L21.0428 32.4264L20.757 32.0684L24.1945 29.4108L22.5623 27.3014L19.0962 29.9824L18.8 29.6133C17.9517 28.6133 17.5688 27.2995 17.7466 26Z" fill="#3BB77E"/>
<path d="M5.51375 76.6744C6.52677 78.718 8.61401 80.0078 10.8946 80C11.8289 79.9986 12.7494 79.7812 13.5854 79.3652L14.6667 78.8242L15.7494 79.3652C16.5847 79.7812 17.5053 79.9986 18.4389 80C20.7201 80.0078 22.8067 78.718 23.8204 76.6744L24.2852 75.7415C25.8464 72.6087 26.6615 69.1575 26.6667 65.6575C26.6622 61.7981 23.5352 58.6712 19.6759 58.6666C18.3751 58.6705 17.101 59.0397 16.0001 59.733V58.6666C16.0001 55.7213 13.6121 53.3333 10.6667 53.3333V55.9999C12.1394 55.9999 13.3334 57.194 13.3334 58.6666V59.733C12.2325 59.0397 10.9584 58.6705 9.65763 58.6666C5.79826 58.6712 2.67131 61.7981 2.66675 65.6575C2.67131 69.1582 3.48641 72.6106 5.04826 75.7441L5.51375 76.6744ZM9.65763 61.3333C10.8048 61.33 11.9057 61.7864 12.7149 62.6002L13.724 63.6093C14.2449 64.1295 15.0886 64.1295 15.6095 63.6093L16.6186 62.6002C17.8556 61.3632 19.7149 60.9934 21.3308 61.6627C22.9467 62.332 24.0001 63.9088 24.0001 65.6575C23.9968 68.7447 23.2781 71.789 21.8998 74.552L21.435 75.4856C20.8692 76.6217 19.7078 77.3378 18.4389 77.3333C17.9194 77.3326 17.407 77.2115 16.9415 76.9798L15.2631 76.1399C14.8875 75.9524 14.446 75.9524 14.071 76.1399L12.3933 76.9798C11.9278 77.2115 11.4148 77.3326 10.8946 77.3333C9.62508 77.3372 8.46297 76.6191 7.89852 75.4811L7.43368 74.5481C6.05607 71.7864 5.33732 68.7434 5.33341 65.6575C5.33667 63.2708 7.27092 61.3365 9.65763 61.3333Z" fill="#3BB77E"/>
</g>
<defs>
<clipPath id="clip0">
<rect width="80" height="80" fill="white"/>
</clipPath>
</defs>
</svg>
