<svg width="80" height="80" viewBox="0 0 80 80" fill="none" xmlns="http://www.w3.org/2000/svg">
<g clip-path="url(#clip0)">
<path d="M52.5 50.5L50.5 55L52 58V59.5L52.5 61.5C53.1667 61.8333 54.6 62.5 55 62.5C55.4 62.5 56.5 62.8333 57 63C57 63.5 56.9 64.6 56.5 65C56.1 65.4 55.3333 65.5 55 65.5C54.6667 66.1667 54 67.6 54 68C54 68.5 53.5 70 53.5 70.5C53.5 70.9 52.5 72.6667 52 73.5L52.5 78C54 78.1667 57.1 78.5 57.5 78.5H65.5C68.1667 77.6667 73.5 75.9 73.5 75.5C73.5 75.1 75.5 74.3333 76.5 74L78.5 70L76.5 65.5L71 54.5L70 54C69.3333 54.1667 67.9 54.4 67.5 54C67 53.5 65.5 53.5 65.5 53C65.5 52.5 64.5 52.5 64.5 52C64.5 51.5 64 51 64 50.5V48.5C64 48 64.5 47.5 64.5 47C64.5 46.6 65.5 46.1667 66 46V44.5C65.6667 43.8333 65 42.4 65 42C65 41.5 63.5 40.5 63 40.5C62.5 40.5 61 40 60.5 40C60.1 40 58.6667 40.6667 58 41L56 44.5L52.5 50.5Z" fill="#FDC040"/>
<path d="M32.5 30L24 29.5L23.5 31.5V36L24 43C24.5 43.1667 25.7 43.6 26.5 44C27.5 44.5 30.5 44 31 44C31.5 44 38 43.5 38.5 43C39 42.5 39.5 41.5 40 41C40.5 40.5 40.5 39 40.5 38.5V34.5C40.5 33.5 40 32 40 31.5C40 31.1 39 30.3333 38.5 30H32.5Z" fill="#FDC040"/>
<path d="M79.4871 68.1252L71.687 52.6062C71.5223 52.2786 71.2137 52.0469 70.8532 51.9801C70.4926 51.9134 70.1215 52.0194 69.8506 52.2664C69.2998 52.7684 68.5829 53.045 67.8323 53.045C66.1737 53.045 64.8244 51.695 64.8244 50.0356C64.8244 48.6018 65.8441 47.3606 67.2493 47.0838C67.6087 47.0131 67.9143 46.7784 68.0754 46.4495C68.2365 46.1205 68.2345 45.7352 68.0701 45.4079L66.1059 41.498C65.1633 39.6239 63.2746 38.4597 61.1769 38.4595C61.1767 38.4595 61.1766 38.4595 61.1764 38.4595C60.9736 38.4595 60.7738 38.4736 60.5755 38.495C60.5241 35.6001 60.4495 32.7015 60.3506 29.8575C60.2514 26.9842 59.4066 24.1778 57.9072 21.7415C57.5679 21.1902 56.8461 21.0184 56.295 21.3578C55.7439 21.697 55.572 22.4189 55.9112 22.97C57.1979 25.0608 57.9231 27.4705 58.0083 29.9388C58.1156 33.019 58.1944 36.1637 58.2454 39.298C57.4087 39.8222 56.7129 40.5725 56.2479 41.4967L50.5146 52.9045C48.295 49.4551 45.1873 46.7793 41.5618 46.7793C35.238 46.7793 30.489 54.9185 29.2831 61.1071H29.2073C28.5889 57.9336 27.0387 54.2481 24.8222 51.4092C24.8063 49.1762 24.806 46.933 24.8196 44.6852C26.0304 44.7093 27.244 44.7251 28.4609 44.7251C31.5015 44.7251 34.5545 44.6502 37.5833 44.5011C39.6366 44.4001 41.3031 42.845 41.5459 40.8036C41.8737 38.047 41.8737 35.2515 41.5459 32.4949C41.3031 30.4535 39.6368 28.8985 37.584 28.7975C33.4856 28.596 29.3353 28.5317 25.2268 28.6033C25.8377 23.7922 28.8189 19.6548 33.2528 17.561H49.8727C51.0382 18.1113 52.1258 18.8182 53.107 19.669C53.3287 19.8613 53.602 19.9555 53.8741 19.9555C54.2021 19.9555 54.5284 19.8187 54.7601 19.5515C55.184 19.0626 55.1314 18.3224 54.6424 17.8983C54.1145 17.4405 53.5585 17.02 52.9807 16.6344C53.9941 15.8386 54.6471 14.6035 54.6471 13.218C54.6471 11.2292 53.303 9.54964 51.476 9.03682V4.89271C51.4755 2.19487 49.2808 0 46.5828 0H36.5419C33.8441 0 31.6492 2.19487 31.6492 4.89271V9.03714C29.822 9.54996 28.4779 11.2295 28.4779 13.2183C28.4779 14.6036 29.1306 15.8385 30.1437 16.6343C28.3745 17.8143 26.8396 19.3285 25.6307 21.1049C23.8705 23.6914 22.8828 26.7181 22.7746 29.8575C22.5547 36.202 22.4514 42.6153 22.4658 48.9629C20.8255 47.6193 18.9583 46.7795 16.9284 46.7795C14.079 46.7795 11.1957 48.524 8.80956 51.6917C8.42002 52.2086 8.52346 52.9434 9.0405 53.3328C9.55753 53.7223 10.2922 53.6189 10.6816 53.1019C11.801 51.6159 14.101 49.1232 16.9286 49.1232C19.1309 49.1232 21.4445 50.6656 23.4435 53.4659C25.0263 55.6835 26.2404 58.4577 26.8157 61.1073H7.04016C7.33954 59.7323 7.81564 58.3074 8.44315 56.9204C8.70987 56.3307 8.44815 55.6364 7.85845 55.3696C7.26891 55.1028 6.57453 55.3646 6.30765 55.9543C5.53811 57.6554 4.97529 59.4166 4.65123 61.1071H3.04215C1.36572 61.1071 0.00195312 62.4709 0.00195312 64.1473C0.00195312 65.8236 1.36588 67.1875 3.04215 67.1875H3.61809C3.81262 68.9828 4.1406 70.7721 4.46138 72.5118C4.68998 73.7515 4.92639 75.0335 5.10608 76.2829C5.34952 77.97 6.69828 79.2826 8.38674 79.4753C11.4593 79.8245 14.1924 79.9992 16.9267 79.9992C19.6569 79.9992 22.3882 79.8252 25.4583 79.4769C26.0187 79.4131 26.5401 79.225 26.9981 78.9436C28.194 79.6366 29.5415 79.9997 30.9445 79.9997H41.5634L41.5604 79.9989C44.2954 79.9991 47.03 79.8245 50.1041 79.4752C50.9182 79.3823 51.6518 79.0272 52.2223 78.497C55.1217 79.498 58.1376 79.99 61.1402 79.99C67.2471 79.99 73.2961 77.9614 78.1833 74.0749C79.9605 72.6629 80.509 70.1607 79.4871 68.1252ZM33.993 4.89271C33.993 3.48723 35.1364 2.34378 36.5419 2.34378H46.5828C47.9883 2.34378 49.1317 3.48723 49.1317 4.89271V8.8751H33.993V4.89271ZM32.8211 11.2189H50.3036C51.4062 11.2189 52.3029 12.1158 52.3029 13.2181C52.3029 14.3206 51.406 15.2175 50.3036 15.2175H32.8211C31.7186 15.2175 30.8217 14.3206 30.8217 13.2181C30.8217 12.1158 31.7187 11.2189 32.8211 11.2189ZM37.4685 31.1388C38.3751 31.1833 39.111 31.8702 39.2182 32.7719C39.5241 35.3449 39.5241 37.9542 39.2182 40.527C39.111 41.4288 38.3749 42.1158 37.4679 42.1603C33.2717 42.3669 29.0296 42.4272 24.8388 42.3436C24.879 38.5428 24.961 34.7362 25.0847 30.9505C29.201 30.8749 33.3609 30.9369 37.4685 31.1388ZM58.3414 42.5499C58.8917 41.4563 59.9513 40.8034 61.1761 40.8034H61.1764C62.4014 40.8036 63.4614 41.4569 64.0116 42.5508L65.3816 45.2777C63.6397 46.1779 62.4807 47.9976 62.4807 50.0357C62.4807 52.9875 64.8813 55.3889 67.8323 55.3889C68.6587 55.3889 69.4628 55.2002 70.1886 54.8438L76.7452 67.8886C76.7382 67.8942 76.7318 67.9005 76.7247 67.9061C73.4284 70.5279 69.4868 72.2815 65.3262 72.9774C61.5755 73.6048 57.7059 73.3654 54.0701 72.2929C54.3779 70.6218 54.6862 68.9077 54.8723 67.1875H55.4489C57.1253 67.1875 58.489 65.8237 58.489 64.1473C58.489 62.4709 57.1253 61.1071 55.4489 61.1071H53.8401C53.484 59.2798 52.8191 57.2827 51.8957 55.3749L58.3414 42.5499ZM35.0463 53.4663C37.0454 50.6656 39.3593 49.1232 41.5615 49.1232C43.7643 49.1232 46.0783 50.6656 48.0772 53.4663C49.6599 55.6836 50.8738 58.4579 51.449 61.1074H31.674C32.2492 58.4582 33.4633 55.6839 35.0463 53.4663ZM2.34573 64.1476C2.34573 63.7636 2.65823 63.4512 3.04215 63.4512H55.4489C55.8329 63.4512 56.1453 63.7636 56.1453 64.1476C56.1453 64.5315 55.8329 64.844 55.4489 64.844H3.04215C2.65808 64.8439 2.34573 64.5315 2.34573 64.1476ZM28.5328 77.1062C28.6345 76.8447 28.7101 76.5698 28.7514 76.2828C28.8609 75.5145 28.9909 74.599 29.1268 73.6221C29.1362 73.5559 29.1412 73.5193 29.2451 73.5193C29.3492 73.5193 29.3542 73.5559 29.3634 73.6212C29.4995 74.5992 29.6295 75.5146 29.7392 76.2842C29.8078 76.7606 29.9675 77.2056 30.1961 77.6056C29.6161 77.5279 29.0568 77.36 28.5328 77.1062ZM49.8388 77.1468C43.8879 77.8231 39.2499 77.8236 33.2972 77.1484C32.6592 77.0757 32.15 76.5832 32.0592 75.952C31.95 75.1859 31.8205 74.2732 31.6845 73.297C31.5095 72.0479 30.5062 71.1755 29.245 71.1757C27.9837 71.1757 26.9806 72.048 26.8055 73.298C26.6698 74.2732 26.5402 75.186 26.4312 75.9507C26.3402 76.5832 25.831 77.0757 25.1935 77.1484C19.2397 77.8236 14.6017 77.8231 8.6519 77.1468C8.02142 77.075 7.5172 76.5821 7.42579 75.9489C7.23954 74.6542 6.99891 73.349 6.76609 72.0869C6.46875 70.4747 6.16546 68.8192 5.9764 67.1877H52.5138C52.3244 68.8236 52.0204 70.4836 51.7224 72.1002C51.4905 73.3584 51.2507 74.6592 51.0644 75.9498C50.9732 76.5828 50.469 77.075 49.8388 77.1468ZM76.7247 72.2405C70.1628 77.4586 61.3102 79.0098 53.3615 76.4061C53.3687 76.3654 53.3784 76.3257 53.3843 76.2848C53.4641 75.7318 53.5559 75.1724 53.6521 74.6132C56.1006 75.3104 58.642 75.664 61.188 75.664C62.7011 75.664 64.2158 75.5395 65.7129 75.2892C70.0426 74.5649 74.1541 72.7918 77.651 70.1504C77.696 70.9393 77.3682 71.7293 76.7247 72.2405Z" fill="#3BB77E"/>
<path d="M62.2685 67.7178C63.0582 68.8663 64.2479 69.6385 65.6183 69.8923C65.939 69.9517 66.2604 69.981 66.5794 69.981C67.6247 69.981 68.6449 69.6663 69.5249 69.0613C70.6735 68.2717 71.4457 67.082 71.6994 65.7115C71.9533 64.341 71.658 62.9537 70.8685 61.8051C70.0788 60.6565 68.8891 59.8843 67.5186 59.6306C66.1477 59.3768 64.7608 59.672 63.6122 60.4615C62.4636 61.2512 61.6915 62.4409 61.4377 63.8113C61.1836 65.182 61.4788 66.5693 62.2685 67.7178ZM63.7421 64.2381C63.8819 63.4831 64.3074 62.8277 64.94 62.3927C65.4247 62.0595 65.9866 61.8862 66.5624 61.8862C66.7382 61.8862 66.9154 61.9024 67.0918 61.9351C67.8468 62.0749 68.5021 62.5002 68.9372 63.1331C69.3722 63.7657 69.5347 64.5299 69.395 65.2849C69.2552 66.0399 68.8297 66.6952 68.1971 67.1302C67.5643 67.5652 66.7999 67.7277 66.0454 67.5881C65.2904 67.4482 64.635 67.0229 64.1999 66.3901C63.7649 65.7573 63.6022 64.9931 63.7421 64.2381Z" fill="#3BB77E"/>
<path d="M57.3469 60.6886C57.5806 60.7319 57.815 60.7533 58.0477 60.7533C58.8097 60.7533 59.5534 60.5237 60.195 60.0828C61.0323 59.507 61.5953 58.6397 61.7803 57.6406C61.9655 56.6414 61.7502 55.63 61.1745 54.7925C60.5989 53.955 59.7314 53.392 58.7323 53.207C56.6697 52.8253 54.6808 54.1925 54.2989 56.2551C53.9167 58.3178 55.2842 60.3067 57.3469 60.6886ZM56.6033 56.6819C56.7499 55.89 57.5136 55.3647 58.3055 55.5117C58.6891 55.5828 59.022 55.7989 59.2431 56.1205C59.4642 56.442 59.5467 56.8303 59.4758 57.2139C59.4047 57.5975 59.1886 57.9306 58.867 58.1515C58.5456 58.3726 58.1577 58.4553 57.7736 58.3842C56.9817 58.2373 56.4567 57.4737 56.6033 56.6819Z" fill="#3BB77E"/>
</g>
<defs>
<clipPath id="clip0">
<rect width="80" height="80" fill="white"/>
</clipPath>
</defs>
</svg>
