<svg width="14" height="14" viewBox="0 0 14 14" fill="none" xmlns="http://www.w3.org/2000/svg">
<path d="M14 5.25C14 4.78587 13.8156 4.34075 13.4874 4.01256C13.1592 3.68437 12.7141 3.5 12.25 3.5H11.0833V0H2.91667V3.5H1.75C1.28587 3.5 0.840752 3.68437 0.512563 4.01256C0.184374 4.34075 0 4.78587 0 5.25L0 12.25H2.91667V14H11.0833V12.25H14V5.25ZM4.08333 1.16667H9.91667V3.5H4.08333V1.16667ZM9.91667 12.8333H4.08333V9.33333H9.91667V12.8333ZM12.8333 11.0833H11.0833V8.16667H2.91667V11.0833H1.16667V5.25C1.16667 5.09529 1.22812 4.94692 1.33752 4.83752C1.44692 4.72812 1.59529 4.66667 1.75 4.66667H12.25C12.4047 4.66667 12.5531 4.72812 12.6625 4.83752C12.7719 4.94692 12.8333 5.09529 12.8333 5.25V11.0833Z" fill="white"/>
<path d="M11.0833 5.83325H8.75V6.99993H11.0833V5.83325Z" fill="white"/>
</svg>
