<svg width="17" height="17" viewBox="0 0 17 17" fill="none" xmlns="http://www.w3.org/2000/svg">
<g clip-path="url(#clip0)">
<path d="M14.3333 8.71789V7.76855C14.3333 6.17726 13.7012 4.65113 12.576 3.52591C11.4508 2.4007 9.92463 1.76855 8.33333 1.76855C6.74203 1.76855 5.21591 2.4007 4.09069 3.52591C2.96547 4.65113 2.33333 6.17726 2.33333 7.76855V8.71789C1.6341 9.02578 1.06186 9.56452 0.712412 10.2439C0.362959 10.9233 0.257505 11.7022 0.413703 12.45C0.5699 13.1979 0.978269 13.8694 1.57044 14.3522C2.16262 14.8349 2.90266 15.0996 3.66666 15.1019H5V8.43522H3.66666V7.76855C3.66666 6.53088 4.15833 5.34389 5.0335 4.46872C5.90867 3.59355 7.09565 3.10189 8.33333 3.10189C9.57101 3.10189 10.758 3.59355 11.6332 4.46872C12.5083 5.34389 13 6.53088 13 7.76855V8.43522H11.6667V13.7686H9V15.1019H13C13.764 15.0996 14.504 14.8349 15.0962 14.3522C15.6884 13.8694 16.0968 13.1979 16.253 12.45C16.4092 11.7022 16.3037 10.9233 15.9542 10.2439C15.6048 9.56452 15.0326 9.02578 14.3333 8.71789ZM3.66666 13.7686C3.13623 13.7686 2.62752 13.5578 2.25245 13.1828C1.87738 12.8077 1.66666 12.299 1.66666 11.7686C1.66666 11.2381 1.87738 10.7294 2.25245 10.3543C2.62752 9.97927 3.13623 9.76855 3.66666 9.76855V13.7686ZM13 13.7686V9.76855C13.5304 9.76855 14.0391 9.97927 14.4142 10.3543C14.7893 10.7294 15 11.2381 15 11.7686C15 12.299 14.7893 12.8077 14.4142 13.1828C14.0391 13.5578 13.5304 13.7686 13 13.7686Z" fill="#3BB77E"/>
</g>
<defs>
<clipPath id="clip0">
<rect width="16" height="16" fill="white" transform="translate(0.333344 0.435059)"/>
</clipPath>
</defs>
</svg>
