<svg width="16" height="17" viewBox="0 0 16 17" fill="none" xmlns="http://www.w3.org/2000/svg">
<g clip-path="url(#clip0)">
<path d="M8.00001 16.7564L7.53334 16.3564C6.89001 15.8178 1.27267 10.9664 1.27267 7.41776C1.27267 5.63356 1.98145 3.92244 3.24306 2.66082C4.50468 1.3992 6.21581 0.69043 8.00001 0.69043C9.78421 0.69043 11.4953 1.3992 12.757 2.66082C14.0186 3.92244 14.7273 5.63356 14.7273 7.41776C14.7273 10.9664 9.11001 15.8178 8.46934 16.3591L8.00001 16.7564ZM8.00001 2.1451C6.6021 2.14668 5.2619 2.70271 4.27342 3.69118C3.28495 4.67965 2.72893 6.01985 2.72734 7.41776C2.72734 9.6471 6.18334 13.2084 8.00001 14.8384C9.81667 13.2078 13.2727 9.64443 13.2727 7.41776C13.2711 6.01985 12.7151 4.67965 11.7266 3.69118C10.7381 2.70271 9.39792 2.14668 8.00001 2.1451Z" fill="#3BB77E"/>
<path d="M8.00001 10.0843C7.47259 10.0843 6.95702 9.92791 6.51849 9.6349C6.07996 9.34188 5.73817 8.9254 5.53633 8.43813C5.3345 7.95086 5.28169 7.41469 5.38458 6.8974C5.48748 6.38012 5.74145 5.90497 6.11439 5.53203C6.48733 5.15909 6.96249 4.90511 7.47977 4.80222C7.99705 4.69932 8.53323 4.75213 9.0205 4.95397C9.50777 5.1558 9.92425 5.49759 10.2173 5.93612C10.5103 6.37465 10.6667 6.89023 10.6667 7.41764C10.6667 8.12489 10.3857 8.80317 9.88563 9.30326C9.38553 9.80336 8.70726 10.0843 8.00001 10.0843ZM8.00001 6.08431C7.7363 6.08431 7.47852 6.16251 7.25925 6.30902C7.03999 6.45553 6.86909 6.66377 6.76817 6.9074C6.66726 7.15103 6.64085 7.41912 6.6923 7.67776C6.74374 7.93641 6.87073 8.17398 7.0572 8.36045C7.24367 8.54692 7.48125 8.67391 7.73989 8.72536C7.99853 8.77681 8.26662 8.7504 8.51026 8.64948C8.75389 8.54857 8.96213 8.37767 9.10864 8.1584C9.25515 7.93914 9.33335 7.68135 9.33335 7.41764C9.33335 7.06402 9.19287 6.72488 8.94282 6.47484C8.69277 6.22479 8.35363 6.08431 8.00001 6.08431Z" fill="#3BB77E"/>
</g>
<defs>
<clipPath id="clip0">
<rect width="16" height="16" fill="white" transform="translate(0 0.750977)"/>
</clipPath>
</defs>
</svg>
