<svg width="14" height="16" viewBox="0 0 14 16" fill="none" xmlns="http://www.w3.org/2000/svg">
<path fill-rule="evenodd" clip-rule="evenodd" d="M12.6869 1.14286V14.8571L7.33398 9.52381L1.98104 14.8571V1.14286H12.6869ZM12.6869 0H1.98104C1.67682 0 1.38506 0.120401 1.16994 0.334728C0.954828 0.549056 0.833984 0.839753 0.833984 1.14286V14.8571C0.83411 15.0831 0.901435 15.3039 1.02747 15.4917C1.15351 15.6795 1.3326 15.8259 1.5421 15.9124C1.68086 15.9712 1.83026 16.001 1.98104 16C2.13183 16.0005 2.28121 15.9711 2.4205 15.9136C2.55979 15.856 2.68621 15.7714 2.7924 15.6648L7.33398 11.0476L11.876 15.6648C11.9821 15.7714 12.1085 15.856 12.2477 15.9135C12.3869 15.9711 12.5362 16.0004 12.6869 16C12.8376 16.001 12.9868 15.9711 13.1255 15.9124C13.335 15.826 13.5142 15.6796 13.6403 15.4918C13.7664 15.304 13.8338 15.0831 13.834 14.8571V1.14286C13.834 0.839753 13.7131 0.549056 13.498 0.334728C13.2829 0.120401 12.9911 0 12.6869 0Z" fill="#B6B6B6"/>
</svg>
