<svg width="14" height="14" viewBox="0 0 14 14" fill="none" xmlns="http://www.w3.org/2000/svg">
<g clip-path="url(#clip0_386_7184)">
<path d="M5.76287 10.5712C5.92539 10.7338 6.11835 10.8628 6.33075 10.9508C6.54314 11.0388 6.77079 11.0841 7.0007 11.0841C7.23061 11.0841 7.45826 11.0388 7.67066 10.9508C7.88305 10.8628 8.07602 10.7338 8.23853 10.5712L10.1116 8.69808C10.212 8.58701 10.2659 8.44158 10.2621 8.29188C10.2582 8.14219 10.197 7.99971 10.091 7.89394C9.98497 7.78817 9.84236 7.72721 9.69266 7.72369C9.54296 7.72016 9.39764 7.77434 9.28678 7.875L7.57995 9.58242L7.58403 0.583333C7.58403 0.428624 7.52258 0.280251 7.41318 0.170854C7.30378 0.0614582 7.15541 0 7.0007 0V0C6.84599 0 6.69762 0.0614582 6.58822 0.170854C6.47883 0.280251 6.41737 0.428624 6.41737 0.583333L6.41212 9.57133L4.71462 7.875C4.60516 7.76562 4.45674 7.7042 4.302 7.70426C4.14725 7.70431 3.99887 7.76583 3.88949 7.87529C3.78011 7.98475 3.7187 8.13317 3.71875 8.28791C3.7188 8.44266 3.78033 8.59104 3.88978 8.70042L5.76287 10.5712Z" fill="white"/>
<path d="M13.4167 9.33325C13.262 9.33325 13.1136 9.39471 13.0042 9.50411C12.8948 9.6135 12.8333 9.76187 12.8333 9.91658V12.2499C12.8333 12.4046 12.7719 12.553 12.6625 12.6624C12.5531 12.7718 12.4047 12.8332 12.25 12.8332H1.75C1.59529 12.8332 1.44692 12.7718 1.33752 12.6624C1.22812 12.553 1.16667 12.4046 1.16667 12.2499V9.91658C1.16667 9.76187 1.10521 9.6135 0.995812 9.50411C0.886416 9.39471 0.738043 9.33325 0.583333 9.33325V9.33325C0.428624 9.33325 0.280251 9.39471 0.170854 9.50411C0.0614582 9.6135 0 9.76187 0 9.91658L0 12.2499C0 12.714 0.184374 13.1592 0.512563 13.4873C0.840752 13.8155 1.28587 13.9999 1.75 13.9999H12.25C12.7141 13.9999 13.1592 13.8155 13.4874 13.4873C13.8156 13.1592 14 12.714 14 12.2499V9.91658C14 9.76187 13.9385 9.6135 13.8291 9.50411C13.7197 9.39471 13.5714 9.33325 13.4167 9.33325Z" fill="white"/>
</g>
<defs>
<clipPath id="clip0_386_7184">
<rect width="14" height="14" fill="white"/>
</clipPath>
</defs>
</svg>
