<svg width="20" height="18" viewBox="0 0 20 18" fill="none" xmlns="http://www.w3.org/2000/svg">
<path fill-rule="evenodd" clip-rule="evenodd" d="M10.7535 1.24675C11.645 0.810407 12.4226 0.666686 13.629 0.666701C16.7163 0.679486 19.0013 3.28322 19.0013 6.59992C19.0013 9.13148 17.5898 11.5769 14.9606 13.9416C13.5806 15.1828 11.8185 16.4111 10.5566 17.0646L9.83463 17.4385L9.11264 17.0646C7.85074 16.4111 6.08871 15.1828 4.70867 13.9416C2.07949 11.5769 0.667969 9.13148 0.667969 6.59992C0.667969 3.24774 2.93167 0.666687 6.04676 0.666687C7.20987 0.666687 8.0274 0.824 8.93614 1.27347C9.25253 1.42995 9.5498 1.61557 9.82628 1.82982C10.1138 1.60285 10.4235 1.4083 10.7535 1.24675ZM13.8461 12.7024C16.1564 10.6245 17.3346 8.58327 17.3346 6.59992C17.3346 4.15749 15.7415 2.34213 13.6255 2.33336C12.6571 2.33335 12.1229 2.4321 11.4862 2.74371C11.0946 2.93538 10.7472 3.19415 10.4442 3.52298L9.83658 4.18227L9.22341 3.52816C8.92703 3.212 8.58464 2.95899 8.19725 2.76739C7.54141 2.44301 6.97154 2.33335 6.04676 2.33335C3.90434 2.33335 2.33464 4.12312 2.33464 6.59992C2.33464 8.58327 3.51282 10.6245 5.8232 12.7024C7.08282 13.8353 8.70217 14.9675 9.83463 15.5614C10.9671 14.9675 12.5865 13.8353 13.8461 12.7024Z" fill="#B6B6B6"/>
</svg>
