<?xml version="1.0" encoding="utf-8"?>
<!-- Generator: Adobe Illustrator 24.0.0, SVG Export Plug-In . SVG Version: 6.00 Build 0)  -->
<svg version="1.1" id="Layer_1" xmlns="http://www.w3.org/2000/svg" xmlns:xlink="http://www.w3.org/1999/xlink" x="0px" y="0px"
	 viewBox="0 0 17 17" style="enable-background:new 0 0 17 17;" xml:space="preserve">
<style type="text/css">
	.st0{clip-path:url(#SVGID_2_);}
	.st1{fill:#3BB77E;}
</style>
<g>
	<defs>
		<rect id="SVGID_1_" x="0.7" y="0.9" width="16" height="16"/>
	</defs>
	<clipPath id="SVGID_2_">
		<use xlink:href="#SVGID_1_"  style="overflow:visible;"/>
	</clipPath>
	<g class="st0">
		<path class="st1" d="M10.1,15.5h6.7v1.3h-6.7V15.5z M11.4,14.2h5.3v-1.3h-5.3V14.2z M12.7,11.5h4v-1.3h-4V11.5z M8.7,0.9
			c-2.1,0-4.2,0.8-5.7,2.3C1.6,4.7,0.7,6.7,0.7,8.9c0,2.1,0.8,4.2,2.3,5.7s3.5,2.3,5.7,2.3v-1.3c-1.3,0-2.6-0.4-3.7-1.1
			c-1.1-0.7-2-1.8-2.5-3c-0.5-1.2-0.6-2.6-0.4-3.9C2.4,6.3,3.1,5.1,4,4.2c0.9-0.9,2.1-1.6,3.4-1.8c1.3-0.3,2.6-0.1,3.9,0.4
			c1.2,0.5,2.3,1.4,3,2.5c0.7,1.1,1.1,2.4,1.1,3.7h1.3c0-2.1-0.8-4.2-2.3-5.7C12.9,1.7,10.8,0.9,8.7,0.9L8.7,0.9z M8.1,5.5v3.1
			l-1.8,1.8l0.9,0.9l2.2-2.2V5.5H8.1z"/>
	</g>
</g>
</svg>
