<svg width="29" height="29" viewBox="0 0 29 29" fill="none" xmlns="http://www.w3.org/2000/svg">
<rect width="28" height="28" transform="translate(0.300781 0.772888)" fill="#1877F2"/>
<path d="M27.5035 15.2304C27.5035 8.14901 21.7629 2.40839 14.6814 2.40839C7.6 2.40839 1.85938 8.14901 1.85938 15.2304C1.85938 21.6303 6.54821 26.9348 12.678 27.8967V18.9368H9.42238V15.2304H12.678V12.4056C12.678 9.19206 14.5922 7.417 17.5211 7.417C18.9239 7.417 20.3912 7.66743 20.3912 7.66743V10.8229H18.7744C17.1816 10.8229 16.6849 11.8112 16.6849 12.8252V15.2304H20.241L19.6725 18.9368H16.6849V27.8967C22.8146 26.9348 27.5035 21.6303 27.5035 15.2304Z" fill="white"/>
</svg>
