<svg width="29" height="29" viewBox="0 0 29 29" fill="none" xmlns="http://www.w3.org/2000/svg">
<g clip-path="url(#clip0)">
<rect width="28.258" height="28.258" transform="translate(0.300781 0.0234375)" fill="black"/>
<path d="M25.3578 21.716C24.9483 22.6621 24.4635 23.533 23.9018 24.3337C23.1363 25.4253 22.5094 26.1808 22.0263 26.6004C21.2774 27.2891 20.4751 27.6418 19.6159 27.6618C18.9991 27.6618 18.2552 27.4863 17.3893 27.1303C16.5206 26.7759 15.7223 26.6004 14.9923 26.6004C14.2267 26.6004 13.4056 26.7759 12.5274 27.1303C11.6478 27.4863 10.9392 27.6719 10.3974 27.6903C9.5735 27.7254 8.75225 27.3626 7.9325 26.6004C7.40929 26.144 6.75487 25.3617 5.97089 24.2535C5.12975 23.07 4.43822 21.6976 3.89645 20.133C3.31625 18.443 3.02539 16.8066 3.02539 15.2222C3.02539 13.4074 3.41754 11.8421 4.20302 10.5304C4.82034 9.47682 5.64159 8.64571 6.66945 8.03558C7.69731 7.42545 8.80791 7.11453 10.0039 7.09464C10.6584 7.09464 11.5166 7.29707 12.583 7.69491C13.6465 8.09408 14.3293 8.29651 14.6287 8.29651C14.8525 8.29651 15.6111 8.05981 16.8971 7.58793C18.1131 7.15031 19.1395 6.96911 19.9803 7.04048C22.2587 7.22436 23.9704 8.1225 25.1087 9.7406C23.0711 10.9752 22.0631 12.7045 22.0832 14.9228C22.1015 16.6508 22.7284 18.0887 23.9603 19.2304C24.5187 19.7602 25.1422 20.1698 25.8359 20.4606C25.6854 20.8969 25.5266 21.3148 25.3578 21.716ZM20.1324 1.15383C20.1324 2.50816 19.6376 3.7727 18.6514 4.94314C17.4612 6.33457 16.0216 7.1386 14.4605 7.01173C14.4407 6.84925 14.4291 6.67825 14.4291 6.49855C14.4291 5.19839 14.9951 3.80697 16.0002 2.66928C16.5021 2.09326 17.1403 1.6143 17.9142 1.23222C18.6865 0.855847 19.417 0.647704 20.104 0.612061C20.1241 0.793114 20.1324 0.974179 20.1324 1.15381V1.15383Z" fill="white"/>
</g>
<defs>
<clipPath id="clip0">
<rect width="28.258" height="28.258" fill="white" transform="translate(0.300781 0.0234375)"/>
</clipPath>
</defs>
</svg>
