<svg width="29" height="29" viewBox="0 0 29 29" fill="none" xmlns="http://www.w3.org/2000/svg">
<rect width="28.4092" height="28.4092" transform="translate(0.300781 0.0682983)" fill="white"/>
<path fill-rule="evenodd" clip-rule="evenodd" d="M27.5741 14.582C27.5741 13.6168 27.4875 12.6886 27.3266 11.7976H14.5059V17.0633H21.832C21.5164 18.7649 20.5573 20.2066 19.1156 21.1718V24.5874H23.515C26.0891 22.2175 27.5741 18.7277 27.5741 14.582Z" fill="#4285F4"/>
<path fill-rule="evenodd" clip-rule="evenodd" d="M14.5066 27.8852C18.1821 27.8852 21.2635 26.6663 23.5158 24.5872L19.1164 21.1717C17.8975 21.9884 16.3382 22.471 14.5066 22.471C10.9611 22.471 7.96015 20.0764 6.88969 16.8589H2.3418V20.3858C4.58171 24.8347 9.18529 27.8852 14.5066 27.8852Z" fill="#34A853"/>
<path fill-rule="evenodd" clip-rule="evenodd" d="M6.88837 16.8593C6.61612 16.0425 6.46143 15.17 6.46143 14.2728C6.46143 13.3756 6.61612 12.5032 6.88837 11.6864V8.15948H2.34048C1.41853 9.99721 0.892578 12.0762 0.892578 14.2728C0.892578 16.4694 1.41853 18.5485 2.34048 20.3862L6.88837 16.8593Z" fill="#FBBC05"/>
<path fill-rule="evenodd" clip-rule="evenodd" d="M14.5066 6.07407C16.5052 6.07407 18.2996 6.7609 19.7104 8.1098L23.6148 4.20541C21.2573 2.00881 18.1759 0.659912 14.5066 0.659912C9.1853 0.659912 4.58171 3.7104 2.3418 8.1593L6.88969 11.6862C7.96015 8.46868 10.9611 6.07407 14.5066 6.07407Z" fill="#EA4335"/>
</svg>
