<svg width="82" height="21" viewBox="0 0 82 21" fill="none" xmlns="http://www.w3.org/2000/svg">
<g clip-path="url(#clip0)">
<path d="M30.2706 5.3551H25.7924C25.4859 5.3551 25.2253 5.57804 25.1771 5.8804L23.3659 17.3639C23.3575 17.4173 23.3607 17.4718 23.3754 17.5237C23.3901 17.5757 23.4159 17.6238 23.4511 17.6648C23.4862 17.7058 23.5298 17.7387 23.5789 17.7612C23.6279 17.7837 23.6813 17.7953 23.7353 17.7951H25.8736C26.1794 17.7951 26.4406 17.5722 26.4883 17.2692L26.9765 14.1716C27.0236 13.8686 27.2853 13.6457 27.5912 13.6457H29.0088C31.9588 13.6457 33.6612 12.2186 34.1059 9.38981C34.3059 8.15216 34.1141 7.17981 33.5353 6.49863C32.8983 5.75098 31.7694 5.3551 30.2706 5.3551ZM30.7871 9.54922C30.5424 11.1563 29.3147 11.1563 28.1271 11.1563H27.4512L27.9253 8.1551C27.9392 8.0673 27.984 7.98734 28.0516 7.92964C28.1192 7.87194 28.2052 7.84029 28.2941 7.8404H28.6041C29.413 7.8404 30.1753 7.8404 30.57 8.30098C30.8053 8.57628 30.8771 8.9851 30.7877 9.54922H30.7871ZM43.6571 9.49746H41.5118C41.4228 9.49749 41.3368 9.52926 41.2692 9.58706C41.2016 9.64486 41.1568 9.72489 41.143 9.81275L41.0488 10.4127L40.8983 10.1951C40.4336 9.52098 39.3983 9.29569 38.3653 9.29569C35.9959 9.29569 33.9712 11.091 33.5771 13.6086C33.3724 14.8645 33.6641 16.0657 34.3765 16.9027C35.0294 17.6733 35.9647 17.9939 37.0777 17.9939C38.9871 17.9939 40.0459 16.7663 40.0459 16.7663L39.95 17.3622C39.9414 17.4155 39.9445 17.47 39.959 17.522C39.9736 17.574 39.9993 17.6223 40.0343 17.6634C40.0693 17.7045 40.1128 17.7375 40.1619 17.7602C40.2109 17.7828 40.2643 17.7945 40.3183 17.7945H42.25C42.5571 17.7945 42.8165 17.5716 42.8647 17.2686L44.0236 9.92863C44.0322 9.87547 44.0291 9.82108 44.0146 9.76921C44.0001 9.71734 43.9746 9.66924 43.9396 9.62823C43.9047 9.58723 43.8613 9.5543 43.8125 9.53171C43.7636 9.50913 43.7104 9.49744 43.6565 9.49746H43.6571ZM40.6677 13.6716C40.4606 14.8969 39.4883 15.7186 38.2483 15.7186C37.6253 15.7186 37.1277 15.5192 36.8083 15.141C36.4912 14.7645 36.3706 14.2298 36.4718 13.6339C36.6647 12.4192 37.6541 11.5704 38.8747 11.5704C39.4841 11.5704 39.9788 11.7727 40.3047 12.1545C40.6318 12.5398 40.7612 13.078 40.6677 13.6716ZM55.0783 9.49746H52.9236C52.7177 9.49746 52.5247 9.59981 52.4083 9.7704L49.4359 14.1486L48.1759 9.94157C48.1373 9.81325 48.0583 9.70079 47.9508 9.6208C47.8433 9.54082 47.7129 9.49757 47.5788 9.49746H45.4612C45.4017 9.49736 45.3431 9.51146 45.2902 9.53858C45.2373 9.56571 45.1916 9.60507 45.157 9.6534C45.1224 9.70172 45.0998 9.75762 45.0911 9.81644C45.0824 9.87526 45.0879 9.9353 45.1071 9.99157L47.4806 16.9575L45.2488 20.1075C45.209 20.1633 45.1854 20.229 45.1805 20.2974C45.1757 20.3658 45.1898 20.4343 45.2212 20.4952C45.2527 20.5561 45.3004 20.6072 45.359 20.6427C45.4177 20.6783 45.485 20.6971 45.5536 20.6969H47.7059C47.91 20.6969 48.1012 20.5975 48.2177 20.4298L55.3847 10.0839C55.4238 10.028 55.4467 9.96247 55.4511 9.89441C55.4555 9.82635 55.4412 9.7584 55.4096 9.69793C55.3781 9.63747 55.3306 9.5868 55.2723 9.55146C55.2139 9.51611 55.147 9.49743 55.0788 9.49746H55.0783Z" fill="#253B80"/>
<path d="M62.2141 5.35508H57.7347C57.4288 5.35508 57.1688 5.57802 57.1205 5.88037L55.3094 17.3639C55.3008 17.4171 55.304 17.4716 55.3186 17.5235C55.3332 17.5754 55.3589 17.6235 55.3939 17.6645C55.4289 17.7055 55.4724 17.7385 55.5214 17.761C55.5704 17.7835 55.6237 17.7952 55.6776 17.7951H57.9758C58.0795 17.7949 58.1798 17.7577 58.2585 17.6902C58.3372 17.6227 58.3893 17.5293 58.4052 17.4268L58.9194 14.1716C58.9664 13.8686 59.2282 13.6457 59.5335 13.6457H60.9511C63.9011 13.6457 65.6035 12.2186 66.0488 9.38979C66.2494 8.15214 66.0564 7.17979 65.477 6.49861C64.8411 5.75096 63.7123 5.35508 62.2141 5.35508ZM62.7305 9.5492C62.4864 11.1563 61.2588 11.1563 60.0705 11.1563H59.3958L59.8705 8.15508C59.8842 8.06737 59.9287 7.98743 59.9961 7.92972C60.0636 7.872 60.1494 7.84031 60.2382 7.84037H60.5482C61.3558 7.84037 62.1194 7.84037 62.5141 8.30096C62.7494 8.57626 62.82 8.98508 62.7305 9.5492ZM75.6 9.49743H73.4564C73.3675 9.49727 73.2816 9.529 73.2141 9.58685C73.1466 9.64471 73.1022 9.72486 73.0888 9.81273L72.9935 10.4127L72.8429 10.1951C72.3788 9.52096 71.3441 9.29567 70.3105 9.29567C67.9411 9.29567 65.9176 11.091 65.5235 13.6086C65.3194 14.8645 65.6094 16.0657 66.3217 16.9027C66.9764 17.6733 67.91 17.9939 69.0229 17.9939C70.9323 17.9939 71.9911 16.7663 71.9911 16.7663L71.8952 17.3621C71.8867 17.4155 71.8899 17.4701 71.9046 17.5222C71.9192 17.5742 71.945 17.6225 71.9801 17.6636C72.0153 17.7047 72.0589 17.7377 72.108 17.7603C72.1571 17.7829 72.2106 17.7946 72.2647 17.7945H74.1958C74.5017 17.7945 74.7623 17.5716 74.81 17.2686L75.97 9.92861C75.9782 9.87522 75.9748 9.82067 75.9599 9.76873C75.9451 9.71678 75.9192 9.66867 75.8839 9.6277C75.8487 9.58672 75.805 9.55386 75.7559 9.53138C75.7068 9.50889 75.6534 9.49731 75.5994 9.49743H75.6ZM72.6105 13.6716C72.4047 14.8968 71.4311 15.7186 70.1911 15.7186C69.5694 15.7186 69.0705 15.5192 68.7511 15.141C68.4341 14.7645 68.3147 14.2298 68.4147 13.6339C68.6088 12.4192 69.5964 11.5704 70.8176 11.5704C71.4264 11.5704 71.9217 11.7727 72.2476 12.1545C72.5758 12.5398 72.7052 13.078 72.6105 13.6716ZM78.1282 5.67037L76.29 17.3645C76.2815 17.4177 76.2847 17.4721 76.2994 17.5239C76.314 17.5758 76.3397 17.6238 76.3747 17.6647C76.4097 17.7057 76.4532 17.7385 76.5022 17.761C76.5511 17.7835 76.6043 17.7951 76.6582 17.7951H78.5058C78.8129 17.7951 79.0735 17.5721 79.1205 17.2692L80.9335 5.78626C80.942 5.73298 80.9388 5.6785 80.9243 5.62656C80.9097 5.57463 80.884 5.52647 80.849 5.48543C80.814 5.44438 80.7705 5.41142 80.7215 5.38881C80.6725 5.36621 80.6192 5.3545 80.5653 5.35449H78.4958C78.407 5.35495 78.3213 5.38697 78.2539 5.44484C78.1866 5.50271 78.142 5.58266 78.1282 5.67037Z" fill="#179BD7"/>
<path d="M4.76802 20.0262L5.11037 17.8509L4.34802 17.8333H0.705078L3.23625 1.7815C3.24375 1.73241 3.26869 1.68766 3.30651 1.65546C3.34432 1.62327 3.39248 1.60578 3.44214 1.60621H9.58449C11.6233 1.60621 13.031 2.03033 13.7657 2.86797C14.1098 3.26091 14.3292 3.6715 14.4351 4.12327C14.5468 4.59739 14.5486 5.16444 14.4398 5.85503L14.4321 5.90503V6.34797L14.7763 6.54327C15.0668 6.6968 15.2968 6.87268 15.4739 7.07444C15.768 7.41092 15.9592 7.83739 16.0398 8.34386C16.1227 8.86444 16.0951 9.48386 15.9592 10.185C15.8021 10.9921 15.5474 11.6944 15.2045 12.2691C14.9019 12.7843 14.495 13.2305 14.0098 13.5792C13.5539 13.9027 13.0121 14.148 12.4004 14.305C11.8068 14.4597 11.1304 14.538 10.3886 14.538H9.91037C9.5692 14.538 9.23684 14.6609 8.97625 14.8815C8.71587 15.1044 8.54306 15.4125 8.48861 15.7509L8.45331 15.9468L7.84743 19.7809L7.82037 19.9221C7.81331 19.9662 7.80037 19.9886 7.78214 20.0033C7.76445 20.0181 7.74224 20.0264 7.7192 20.0268H4.76802V20.0262Z" fill="#253B80"/>
<path d="M15.1028 5.9563C15.0846 6.07395 15.0634 6.19336 15.0399 6.3163C14.2299 10.4751 11.4587 11.9122 7.91929 11.9122H6.11694C5.68459 11.9122 5.31988 12.2263 5.25224 12.6534L4.32929 18.5045L4.06812 20.1634C4.05775 20.2292 4.06176 20.2964 4.07988 20.3605C4.09799 20.4246 4.12977 20.484 4.17303 20.5347C4.2163 20.5853 4.27002 20.626 4.33051 20.6539C4.39099 20.6818 4.4568 20.6963 4.52341 20.6963H7.71929C8.09812 20.6963 8.41929 20.4216 8.47929 20.0481L8.51047 19.8857L9.11224 16.0669L9.15106 15.8575C9.20988 15.4828 9.53224 15.2075 9.91047 15.2075H10.3887C13.4852 15.2075 15.9093 13.9504 16.6181 10.3122C16.914 8.79218 16.7605 7.52336 15.9775 6.631C15.7294 6.35483 15.433 6.1262 15.1028 5.9563Z" fill="#179BD7"/>
<path d="M14.2543 5.61809C13.9957 5.54332 13.7326 5.48497 13.4667 5.44338C12.9412 5.36263 12.4101 5.32388 11.8784 5.3275H7.06372C6.88056 5.32742 6.70341 5.39283 6.56425 5.51193C6.42509 5.63102 6.33311 5.79594 6.30489 5.97691L5.28136 12.4646L5.25195 12.654C5.28396 12.4476 5.3887 12.2594 5.54728 12.1235C5.70585 11.9876 5.9078 11.9129 6.11666 11.9128H7.91901C11.4584 11.9128 14.2296 10.4751 15.0396 6.31691C15.0637 6.19397 15.0843 6.07397 15.1025 5.95691C14.8888 5.84494 14.6661 5.75108 14.4367 5.67633C14.3778 5.65633 14.3167 5.6375 14.2549 5.61927L14.2543 5.61809Z" fill="#222D65"/>
<path d="M6.30564 5.97685C6.33365 5.79588 6.42562 5.63096 6.56485 5.51202C6.70409 5.39308 6.88135 5.328 7.06447 5.32861H11.8786C12.4492 5.32861 12.9815 5.36567 13.4674 5.44449C13.7963 5.49616 14.1206 5.57346 14.4374 5.67567C14.6667 5.75071 14.8894 5.84456 15.1033 5.95626C15.3445 4.4192 15.1015 3.37332 14.2704 2.42567C13.3545 1.38214 11.7009 0.935669 9.58506 0.935669H3.4427C3.01035 0.935669 2.64211 1.25037 2.57506 1.67743L0.0162319 17.8945C0.00433022 17.9698 0.00889598 18.0468 0.0296148 18.1202C0.0503336 18.1936 0.086713 18.2616 0.136248 18.3196C0.185782 18.3776 0.247295 18.4241 0.316549 18.456C0.385803 18.488 0.461152 18.5045 0.537408 18.5045H4.32917L5.28211 12.4639L6.30564 5.97743V5.97685Z" fill="#253B80"/>
</g>
<defs>
<clipPath id="clip0">
<rect width="81.1765" height="20" fill="white" transform="translate(0 0.800415)"/>
</clipPath>
</defs>
</svg>
