<svg width="27" height="21" viewBox="0 0 27 21" fill="none" xmlns="http://www.w3.org/2000/svg">
<g clip-path="url(#clip0)">
<path d="M5.31706 20.6075V19.2904C5.3247 19.1797 5.30867 19.0687 5.27004 18.9646C5.23141 18.8606 5.17106 18.766 5.09302 18.6872C5.01498 18.6083 4.92103 18.547 4.81743 18.5072C4.71383 18.4675 4.60295 18.4503 4.49219 18.4567C4.3471 18.4472 4.20212 18.4768 4.07238 18.5425C3.94264 18.6081 3.83291 18.7074 3.75462 18.8299C3.68331 18.7111 3.58125 18.6137 3.45921 18.548C3.33717 18.4823 3.19967 18.4508 3.06121 18.4567C2.9405 18.4506 2.82028 18.4761 2.71247 18.5307C2.60466 18.5854 2.51299 18.6672 2.44658 18.7682V18.5094H1.99023V20.6075H2.45121V19.4531C2.44141 19.3813 2.44757 19.3083 2.46926 19.2392C2.49095 19.1702 2.52763 19.1067 2.57668 19.0535C2.62573 19.0002 2.68593 18.9584 2.75299 18.9311C2.82006 18.9038 2.89232 18.8917 2.96462 18.8955C3.26755 18.8955 3.42121 19.0931 3.42121 19.4487V20.6163H3.88219V19.4528C3.87282 19.3812 3.8793 19.3084 3.90115 19.2395C3.92301 19.1706 3.95971 19.1074 4.00867 19.0542C4.05763 19.0011 4.11765 18.9593 4.18451 18.9319C4.25137 18.9045 4.32342 18.8921 4.3956 18.8955C4.70706 18.8955 4.85658 19.0931 4.85658 19.4487V20.6163L5.31731 20.6075H5.31706ZM12.1361 18.5094H11.3854V17.8728H10.9244V18.5094H10.5073V18.9265H10.9332V19.8919C10.9332 20.3792 11.1219 20.6689 11.6617 20.6689C11.8634 20.6696 12.0613 20.6133 12.2324 20.5065L12.1007 20.1158C11.9783 20.1889 11.8393 20.2297 11.6968 20.2343C11.4773 20.2343 11.3941 20.0938 11.3941 19.8831V18.9263H12.1402L12.1358 18.5092L12.1361 18.5094ZM16.0293 18.4567C15.8024 18.4499 15.5902 18.568 15.4763 18.7641V18.5094H15.0241V20.6075H15.4807V19.4311C15.4807 19.0843 15.63 18.8911 15.9197 18.8911C16.0173 18.8899 16.1141 18.9077 16.2051 18.9438L16.3454 18.5048C16.2411 18.4676 16.1312 18.4484 16.0205 18.448L16.0293 18.4567ZM10.1434 18.6763C9.88496 18.5226 9.58781 18.4464 9.28731 18.4567C8.75633 18.4567 8.4095 18.7111 8.4095 19.1282C8.4095 19.4706 8.66414 19.6814 9.13389 19.747L9.3534 19.7777C9.6034 19.8128 9.72194 19.8787 9.72194 19.9972C9.72194 20.1597 9.55511 20.2519 9.2434 20.2519C8.99276 20.2591 8.74697 20.1818 8.5456 20.0324L8.32609 20.388C8.59198 20.5736 8.91045 20.6691 9.23462 20.6602C9.84048 20.6602 10.1917 20.3748 10.1917 19.9753C10.1917 19.576 9.91511 19.4136 9.45853 19.3477L9.23902 19.317C9.04145 19.2906 8.88365 19.2511 8.88365 19.1106C8.88365 18.9702 9.03292 18.8648 9.28292 18.8648C9.51421 18.8675 9.74095 18.9294 9.94145 19.0448L10.1434 18.676V18.6763ZM22.3697 18.4567C22.1429 18.4499 21.9307 18.568 21.8166 18.7641V18.5094H21.3646V20.6075H21.821V19.4311C21.821 19.0843 21.9702 18.8911 22.26 18.8911C22.3576 18.8899 22.4546 18.9077 22.5454 18.9438L22.6858 18.5048C22.5816 18.4676 22.4717 18.4484 22.361 18.448L22.3697 18.4567ZM16.4878 19.5541C16.4824 19.7015 16.5078 19.8485 16.5624 19.9855C16.617 20.1226 16.6996 20.2467 16.805 20.35C16.9104 20.4533 17.0361 20.5334 17.1742 20.5853C17.3123 20.6372 17.4598 20.6597 17.6071 20.6514C17.8811 20.6653 18.1505 20.576 18.3619 20.4011L18.1424 20.0324C17.9847 20.1527 17.7923 20.2189 17.5939 20.2211C17.4249 20.2078 17.2671 20.1313 17.152 20.0068C17.037 19.8824 16.973 19.7191 16.973 19.5496C16.973 19.38 17.037 19.2167 17.152 19.0923C17.2671 18.9678 17.4249 18.8913 17.5939 18.878C17.7924 18.8802 17.9848 18.9464 18.1427 19.0667L18.3622 18.698C18.1506 18.5231 17.8812 18.4339 17.6071 18.448C17.4598 18.4396 17.3123 18.4621 17.1742 18.514C17.0361 18.5659 16.9104 18.6461 16.805 18.7493C16.6996 18.8526 16.617 18.9768 16.5624 19.1138C16.5078 19.2509 16.4824 19.3978 16.4878 19.5453V19.5541ZM20.7629 19.5541V18.5094H20.3066V18.7638C20.229 18.664 20.1289 18.5841 20.0144 18.5307C19.8999 18.4773 19.7743 18.4518 19.648 18.4565C19.357 18.4565 19.0778 18.5721 18.872 18.7779C18.6662 18.9837 18.5506 19.2629 18.5506 19.5539C18.5506 19.845 18.6662 20.1241 18.872 20.3299C19.0778 20.5358 19.357 20.6514 19.648 20.6514C19.7743 20.6561 19.8999 20.6306 20.0144 20.5772C20.1289 20.5238 20.229 20.4438 20.3066 20.3441V20.5987H20.7629V19.5541ZM19.0644 19.5541C19.0717 19.4306 19.1149 19.312 19.1887 19.2127C19.2626 19.1135 19.3638 19.0381 19.48 18.9957C19.5962 18.9533 19.7223 18.9458 19.8427 18.9741C19.9631 19.0024 20.0725 19.0653 20.1576 19.1551C20.2427 19.2448 20.2997 19.3575 20.3216 19.4793C20.3435 19.601 20.3292 19.7265 20.2807 19.8402C20.2322 19.954 20.1514 20.0511 20.0484 20.1195C19.9454 20.188 19.8246 20.2248 19.701 20.2255C19.6141 20.2267 19.5279 20.2098 19.4478 20.176C19.3677 20.1422 19.2955 20.0922 19.2357 20.0291C19.1759 19.966 19.1298 19.8913 19.1004 19.8095C19.0709 19.7278 19.0586 19.6408 19.0644 19.5541ZM13.5558 18.4565C13.2658 18.462 12.9897 18.5822 12.788 18.7907C12.5863 18.9992 12.4753 19.2791 12.4794 19.5692C12.4834 19.8593 12.6022 20.136 12.8097 20.3388C13.0171 20.5416 13.2965 20.654 13.5866 20.6514C13.9023 20.6676 14.2128 20.5659 14.4578 20.366L14.2383 20.028C14.0651 20.167 13.8505 20.2443 13.6283 20.2475C13.4773 20.2605 13.3273 20.2141 13.21 20.1182C13.0928 20.0223 13.0176 19.8844 13.0005 19.7338H14.5588V19.5582C14.5588 18.8999 14.1505 18.4611 13.5624 18.4611L13.5558 18.4567V18.4565ZM13.5558 18.8648C13.6938 18.8619 13.8272 18.914 13.9268 19.0095C14.0264 19.105 14.0839 19.2361 14.0868 19.3741H12.9895C12.9975 19.2332 13.0603 19.101 13.1645 19.0058C13.2687 18.9106 13.406 18.86 13.5471 18.8648H13.5558ZM24.9922 19.5585V17.6663H24.5532V18.7638C24.4756 18.664 24.3755 18.5841 24.261 18.5307C24.1465 18.4773 24.0209 18.4518 23.8946 18.4565C23.6036 18.4565 23.3245 18.5721 23.1187 18.7779C22.9129 18.9837 22.7973 19.2628 22.7973 19.5538C22.7973 19.8448 22.9129 20.124 23.1187 20.3297C23.3245 20.5355 23.6036 20.6511 23.8946 20.6511C24.0209 20.6558 24.1465 20.6304 24.261 20.5769C24.3755 20.5235 24.4756 20.4436 24.5532 20.3438V20.5985H24.9922V19.5582V19.5585ZM25.7536 20.3024C25.7822 20.302 25.8105 20.3072 25.8371 20.3177C25.8623 20.328 25.8853 20.3429 25.9051 20.3616C25.93 20.3854 25.9484 20.4151 25.9587 20.4479C25.969 20.4807 25.9708 20.5156 25.9641 20.5494C25.9573 20.5831 25.9421 20.6146 25.9199 20.6408C25.8977 20.6671 25.8692 20.6873 25.8371 20.6997C25.8108 20.7113 25.7824 20.7172 25.7536 20.7172C25.712 20.7169 25.6714 20.7048 25.6364 20.6822C25.6014 20.6597 25.5736 20.6277 25.5561 20.5899C25.5451 20.5643 25.5394 20.5366 25.5394 20.5087C25.5394 20.4808 25.5451 20.4531 25.5561 20.4275C25.5673 20.4029 25.5829 20.3806 25.6022 20.3616C25.6219 20.3429 25.645 20.328 25.6702 20.3177C25.6988 20.3063 25.7295 20.3011 25.7602 20.3024H25.7536ZM25.7536 20.6731C25.7749 20.6733 25.7961 20.6692 25.8157 20.6609C25.8353 20.6526 25.8531 20.6404 25.8678 20.625C25.8953 20.5951 25.9105 20.5559 25.9105 20.5153C25.9105 20.4746 25.8953 20.4355 25.8678 20.4055C25.8453 20.3821 25.8162 20.3662 25.7844 20.3599C25.7526 20.3537 25.7197 20.3573 25.69 20.3704C25.6703 20.3785 25.6524 20.3904 25.6373 20.4055C25.6098 20.4355 25.5946 20.4746 25.5946 20.5153C25.5946 20.5559 25.6098 20.5951 25.6373 20.625C25.6524 20.6399 25.6702 20.6519 25.69 20.6602C25.7119 20.6697 25.7361 20.6741 25.7602 20.6733H25.7536V20.6731ZM25.7668 20.4121C25.7873 20.4111 25.8075 20.4173 25.8239 20.4297C25.8306 20.4353 25.8358 20.4424 25.8392 20.4504C25.8426 20.4584 25.844 20.4671 25.8434 20.4758C25.8441 20.4904 25.8385 20.5048 25.8283 20.5153C25.8155 20.5268 25.7991 20.5337 25.7819 20.5348L25.8458 20.6075H25.7954L25.7361 20.535H25.7163V20.6075H25.6746V20.4143L25.7668 20.4119V20.4121ZM25.7185 20.4494V20.5021H25.7668C25.7754 20.5046 25.7846 20.5046 25.7932 20.5021C25.7947 20.499 25.7955 20.4957 25.7955 20.4922C25.7955 20.4888 25.7947 20.4854 25.7932 20.4824C25.7947 20.4793 25.7955 20.4759 25.7955 20.4725C25.7955 20.469 25.7947 20.4657 25.7932 20.4626C25.7846 20.46 25.7754 20.46 25.7668 20.4626L25.7185 20.4494ZM23.3044 19.5585C23.3117 19.435 23.3549 19.3163 23.4287 19.2171C23.5026 19.1179 23.6038 19.0425 23.72 19.0001C23.8362 18.9577 23.9623 18.9502 24.0827 18.9785C24.2031 19.0068 24.3125 19.0697 24.3976 19.1595C24.4827 19.2492 24.5397 19.3619 24.5616 19.4837C24.5835 19.6054 24.5692 19.7309 24.5207 19.8446C24.4722 19.9584 24.3914 20.0555 24.2884 20.1239C24.1854 20.1924 24.0646 20.2292 23.941 20.2299C23.8541 20.2311 23.7679 20.2142 23.6878 20.1804C23.6077 20.1466 23.5355 20.0966 23.4757 20.0335C23.4159 19.9704 23.3698 19.8957 23.3404 19.8139C23.3109 19.7321 23.2986 19.6452 23.3044 19.5585ZM7.89145 19.5585V18.5094H7.43487V18.7638C7.35734 18.664 7.25719 18.5841 7.14269 18.5307C7.02818 18.4773 6.90261 18.4518 6.77633 18.4565C6.48527 18.4565 6.20614 18.5721 6.00033 18.7779C5.79452 18.9837 5.67889 19.2629 5.67889 19.5539C5.67889 19.845 5.79452 20.1241 6.00033 20.3299C6.20614 20.5358 6.48527 20.6514 6.77633 20.6514C6.90261 20.6561 7.02818 20.6306 7.14269 20.5772C7.25719 20.5238 7.35734 20.4438 7.43487 20.3441V20.5987H7.89145V19.5585ZM6.19267 19.5585C6.19995 19.435 6.24318 19.3163 6.31703 19.2171C6.39088 19.1179 6.49213 19.0425 6.60832 19.0001C6.72451 18.9577 6.85056 18.9502 6.97095 18.9785C7.09134 19.0068 7.20083 19.0697 7.28592 19.1595C7.37102 19.2492 7.42801 19.3619 7.44987 19.4837C7.47174 19.6054 7.45754 19.7309 7.409 19.8446C7.36047 19.9584 7.27973 20.0555 7.17672 20.1239C7.07372 20.1924 6.95294 20.2292 6.82926 20.2299C6.74199 20.2317 6.65531 20.2153 6.57472 20.1817C6.49413 20.1482 6.42139 20.0983 6.36112 20.0351C6.30085 19.972 6.25436 19.897 6.22461 19.815C6.19486 19.7329 6.18248 19.6455 6.18828 19.5585H6.19267Z" fill="#231F20"/>
<path d="M9.99219 2.52136H16.9054V14.9453H9.99219V2.52136Z" fill="#FF5F00"/>
<path d="M10.4309 8.73449C10.4296 7.53771 10.7007 6.35633 11.2236 5.27983C11.7465 4.20332 12.5075 3.25992 13.4489 2.52107C10.2092 -0.0245373 5.55748 0.346195 2.76236 3.37302C-0.0327647 6.39985 -0.0327647 11.0664 2.76236 14.0933C5.55748 17.1201 10.2092 17.4908 13.4487 14.9452C12.5076 14.2066 11.7468 13.2636 11.224 12.1875C10.7012 11.1115 10.4299 9.93059 10.4309 8.73424V8.73449Z" fill="#EB001B"/>
<path d="M26.2326 8.73453C26.2325 10.217 25.8152 11.6694 25.0286 12.9259C24.242 14.1825 23.1178 15.1923 21.7844 15.8401C20.451 16.4879 18.9622 16.7475 17.4883 16.5892C16.0143 16.4309 14.6147 15.8612 13.4492 14.945C14.3899 14.2057 15.1504 13.2625 15.6734 12.1864C16.1963 11.1103 16.468 9.92949 16.468 8.73306C16.468 7.53664 16.1963 6.35584 15.6734 5.27975C15.1504 4.20366 14.3899 3.26039 13.4492 2.52111C14.6147 1.60488 16.0144 1.03504 17.4884 0.876728C18.9624 0.718411 20.4512 0.978006 21.7847 1.62584C23.1181 2.27367 24.2424 3.28361 25.029 4.5402C25.8156 5.7968 26.2328 7.24936 26.2329 8.73184V8.73428L26.2326 8.73453ZM25.4778 13.6284V13.3736H25.5809V13.3209H25.32V13.3736H25.4317V13.6282H25.478L25.4778 13.6284ZM25.9848 13.6284V13.3211H25.9058L25.8136 13.5406L25.7214 13.3211H25.6512V13.6284H25.7082V13.3979L25.7936 13.5977H25.8531L25.9385 13.3979V13.6306L25.9848 13.6282V13.6284Z" fill="#F79E1B"/>
</g>
<defs>
<clipPath id="clip0">
<rect width="25.8537" height="20" fill="white" transform="translate(0.509766 0.800415)"/>
</clipPath>
</defs>
</svg>
