<svg width="60" height="21" viewBox="0 0 60 21" fill="none" xmlns="http://www.w3.org/2000/svg">
<g clip-path="url(#clip0)">
<path d="M26.1769 20.0078H21.4323L24.4003 1.65713H29.1449L26.1769 20.0078ZM43.3783 2.1058C42.4416 1.7338 40.9583 1.32446 39.1216 1.32446C34.4356 1.32446 31.1363 3.82313 31.1156 7.39513C31.0769 10.0311 33.4783 11.4951 35.2743 12.3738C37.1103 13.2718 37.7343 13.8578 37.7343 14.6585C37.7156 15.8878 36.2509 16.4545 34.8849 16.4545C32.9903 16.4545 31.9749 16.1625 30.4323 15.4785L29.8076 15.1851L29.1436 19.3051C30.2569 19.8118 32.3069 20.2618 34.4356 20.2811C39.4143 20.2811 42.6556 17.8211 42.6943 14.0145C42.7129 11.9251 41.4449 10.3245 38.7116 9.01646C37.0516 8.17646 36.0356 7.61046 36.0356 6.7518C36.0549 5.97046 36.8956 5.17046 38.7689 5.17046C40.3109 5.1318 41.4443 5.50246 42.3023 5.87313L42.7323 6.06846L43.3776 2.1058H43.3783ZM49.6843 13.5071C50.0749 12.4525 51.5789 8.37246 51.5789 8.37246C51.5589 8.4118 51.9689 7.29913 52.2029 6.61513L52.5349 8.19646C52.5349 8.19646 53.4336 12.5898 53.6283 13.5065H49.6843V13.5071ZM55.5416 1.65646H51.8716C50.7396 1.65646 49.8796 1.9878 49.3916 3.17913L42.3429 20.0071H47.3223C47.3223 20.0071 48.1423 17.7418 48.3176 17.2538H54.4102C54.5462 17.8985 54.9763 20.0071 54.9763 20.0071H59.3696L55.5416 1.65713V1.65646ZM5.78159 4.04313C4.32159 3.1898 2.65692 2.5038 0.794922 2.02713L0.872922 1.65646H8.50692C9.54225 1.69513 10.3816 2.02646 10.6549 3.19913L12.3136 11.6305L12.3143 11.6318L12.8223 14.1698L17.4689 1.65646H22.4863L15.0283 19.9885H10.0103L5.78159 4.04313Z" fill="#1A1F71"/>
</g>
<defs>
<clipPath id="clip0">
<rect width="59.3333" height="20" fill="white" transform="translate(0.175781 0.800415)"/>
</clipPath>
</defs>
</svg>
