<svg width="81" height="21" viewBox="0 0 81 21" fill="none" xmlns="http://www.w3.org/2000/svg">
<g clip-path="url(#clip0)">
<path d="M12.2565 4.60698C12.2783 4.58558 12.2979 4.56374 12.3189 4.54147L12.4224 4.41569C12.6521 4.11958 12.7949 3.75185 12.7949 3.34787C12.7949 2.88339 12.6104 2.43794 12.282 2.10951C11.9536 1.78107 11.5081 1.59656 11.0436 1.59656C10.5877 1.59661 10.1499 1.77535 9.82427 2.09444L0.699131 12.0053C0.481502 12.3023 0.363892 12.6608 0.363281 13.029C0.363281 13.4935 0.547793 13.9389 0.876227 14.2673C1.20466 14.5958 1.65011 14.7803 2.11459 14.7803H10.8253C11.2897 14.7803 11.7352 14.5958 12.0636 14.2673C12.3921 13.9389 12.5766 13.4935 12.5766 13.029C12.5766 12.5645 12.3921 12.119 12.0636 11.7906C11.7352 11.4622 11.2897 11.2777 10.8253 11.2777H6.30725C6.30725 11.2777 5.97183 11.2095 6.27362 10.9082L12.2565 4.60698ZM8.64509 1.58521H2.24124V1.58957C1.78432 1.60223 1.35036 1.79268 1.03171 2.12041C0.713062 2.44813 0.534866 2.88726 0.535036 3.34436C0.535207 3.80146 0.713732 4.24045 1.03263 4.56794C1.35152 4.89542 1.78562 5.08555 2.24255 5.09787C2.25522 5.09787 2.26701 5.09393 2.28011 5.0935H5.49929L8.64509 1.58564V1.58521ZM18.6 1.88524C18.6 1.88524 15.1075 1.91494 14.3318 3.76582C14.3318 3.76582 14.0925 4.92972 14.182 5.7058C14.182 5.7058 15.8844 4.44014 18.1222 4.39254C20.9283 4.33271 20.6597 6.72121 20.6597 6.72121C20.6597 6.72121 12.7797 5.82547 12.7797 11.4074C12.7797 11.4074 12.7792 15.0493 17.0776 15.0493C17.0776 15.0493 19.4656 14.8397 20.5998 12.8993V14.7204C20.5998 14.7204 24.1522 15.079 24.1522 12.0345V5.55644C24.1518 5.55644 23.9732 1.88481 18.6 1.88481V1.88524ZM18.1013 12.4595C16.267 12.5237 16.2272 10.6047 16.2272 10.6047C16.2272 10.6047 15.9766 9.21016 18.4415 8.96821C18.4415 8.96821 20.6811 8.68128 20.6994 9.16212C20.6999 9.16212 21.0029 12.3577 18.1017 12.4595H18.1013ZM33.0826 2.0084C33.0826 2.0084 29.7634 2.07304 29.0515 4.20824V2.01845C29.0515 2.01845 25.2397 1.63587 25.2397 4.70568C25.2397 7.77549 25.2755 20.6203 25.2755 20.6203C25.2755 20.6203 29.048 20.9806 29.048 17.8352V13.2006C29.048 13.2006 30.2949 15.1956 32.6952 15.1956C35.4466 15.1956 38.3068 13.3172 38.3068 8.10653C38.3073 1.93241 33.0822 2.00884 33.0822 2.00884L33.0826 2.0084ZM31.3068 12.1385C30.2181 12.1385 28.8895 10.7287 28.8895 8.26201C28.8895 5.79533 30.1866 4.70568 31.6593 4.70568C31.6593 4.70568 34.5264 4.83408 34.5264 8.18165C34.5264 11.5292 32.548 12.1385 31.3068 12.1385ZM46.7524 2.0084C46.7524 2.0084 43.4332 2.07304 42.7205 4.20824V2.01845C42.7205 2.01845 38.9095 1.63587 38.9095 4.70568C38.9095 7.77549 38.9445 20.6203 38.9445 20.6203C38.9445 20.6203 42.7178 20.9806 42.7178 17.8352V13.2006C42.7178 13.2006 43.9643 15.1956 46.3646 15.1956C49.1165 15.1956 51.9766 13.3172 51.9766 8.10653C51.9766 1.93241 46.7524 2.00884 46.7524 2.00884V2.0084ZM44.9771 12.1385C43.8874 12.1385 42.5589 10.7287 42.5589 8.26201C42.5589 5.79533 43.8555 4.70568 45.3291 4.70568C45.3291 4.70568 48.1963 4.83408 48.1963 8.18165C48.1963 11.5292 46.217 12.1385 44.9766 12.1385H44.9771ZM61.68 2.86484C60.7959 2.40609 59.8146 2.16615 58.8185 2.16519C55.3067 2.16519 52.4605 5.06642 52.4605 8.64546C52.4605 12.2245 55.3067 15.1253 58.8185 15.1253C59.0037 15.1253 59.1871 15.1157 59.3688 15.1C59.8344 15.0393 60.7817 14.8654 61.7193 14.4056C62.2676 14.1161 62.7708 13.7483 63.213 13.3137C63.6798 12.8033 64.001 12.1769 64.1432 11.5H63.6043C63.6043 11.5 62.6072 12.5206 59.5461 12.5206C56.4846 12.5206 56.057 9.4591 56.057 9.4591H64.3843C64.4664 8.50702 64.621 4.51526 61.68 2.8644V2.86484ZM60.9777 7.39509H56.0418C56.0418 7.39509 56.1684 4.54671 58.6364 4.54671C61.104 4.54671 60.9773 7.39509 60.9773 7.39509H60.9777ZM69.1054 8.8944C69.1054 6.42772 70.2448 5.36558 71.7184 5.36558C71.7184 5.36558 72.3835 5.40009 73.0731 5.80407V2.01146C72.6141 2.0333 69.7644 2.24642 69.1106 4.20824V2.01801C69.1106 2.01801 65.2979 1.63587 65.2979 4.70611C65.2979 7.77549 65.3119 14.8353 65.3119 14.8353C65.3119 14.8353 69.1076 15.0969 69.1076 11.952C69.1076 9.20798 69.1054 8.93371 69.1054 8.89484V8.8944ZM75.7481 2.22633H74.7777V1.88568H77.1234V2.22633H76.153V5.08433H75.7486V2.22633H75.7481ZM77.6706 1.88568H78.1537L78.7729 3.60205L79.0027 4.2554H79.0214L79.2464 3.60205L79.86 1.88568H80.3386V5.08433H79.953V3.32428C79.953 3.04128 79.9871 2.66045 80.0067 2.37788H79.9871L79.7338 3.08976L79.1193 4.76245H78.8852L78.2711 3.08976L78.017 2.37788H77.9982C78.017 2.66045 78.0467 3.04084 78.0467 3.32385V5.08433H77.6711V1.88524H77.6706V1.88568Z" fill="#3D80C0"/>
</g>
<defs>
<clipPath id="clip0">
<rect width="80" height="20" fill="white" transform="translate(0.363281 0.800415)"/>
</clipPath>
</defs>
</svg>
