<?xml version="1.0" encoding="utf-8"?>
<!-- Generator: Adobe Illustrator 24.0.0, SVG Export Plug-In . SVG Version: 6.00 Build 0)  -->
<svg version="1.1" id="Capa_1" xmlns="http://www.w3.org/2000/svg" xmlns:xlink="http://www.w3.org/1999/xlink" x="0px" y="0px"
	 viewBox="0 0 473.8 473.8" style="enable-background:new 0 0 473.8 473.8;" xml:space="preserve">
<g>
	<g>
		<path d="M44.5,348.6c-10.1,10-15.4,21.9-15.4,34.3c0,12.3,5.2,24.3,15.1,34.6c4.3,4.5,8.7,8.8,13,12.9
			c6.3,6.1,12.3,11.8,17.5,18.1c0.1,0.2,0.3,0.3,0.4,0.5c15.2,16.5,34.6,24.8,57.7,24.8c2,0,4.2-0.1,6.3-0.2c34.3-2.2,65-15.1,88-26
			c60.2-29.1,112.9-70.4,156.7-122.7c36.1-43.4,60.3-83.9,76.5-127.6c6.6-17.8,15.2-45,12.8-74.2c-1.6-18.1-8.9-33.7-21.7-46.5
			l-34-34.3c-0.1-0.1-0.1-0.1-0.2-0.2c-10-9.6-21.8-14.7-34-14.7c-12.2,0-23.8,5.1-33.5,14.7c-6.5,6-12.8,12.4-18.8,18.6
			c-3,3.2-6.2,6.4-9.3,9.5l-27.3,27.3c-21,21-21,48.2,0,69.2c2.8,2.8,5.6,5.7,8.4,8.5c7.4,7.5,15,15.3,23.2,22.8
			c-6.1,13.5-14.5,26.8-27,42.6c-25.8,31.7-52.7,56.2-82.3,75c-2.9,1.8-6.3,3.5-9.9,5.3c-2.5,1.3-5.1,2.6-7.7,4l-31.6-31.5
			c-10.1-10.1-21.9-15.4-34.2-15.4c-12.4,0-24.1,5.4-33.8,15.5L44.5,348.6z M63.7,367.5l55.1-55.1c0.1-0.1,0.1-0.1,0.2-0.2
			c3.1-3.4,8.2-7.3,14.4-7.3c6.3,0,11.7,4.1,15.1,7.5l34.2,34.2c1.7,1.7,6.9,6.9,15.2,6.9c3.3,0,6.5-0.8,9.9-2.5
			c0.4-0.2,0.8-0.5,1.2-0.7c2.9-1.8,6.3-3.5,9.9-5.3c4-2,8.2-4.1,12.3-6.7c32.1-20.3,61.2-46.8,88.8-80.8l0.1-0.1
			c15.2-19.3,25.2-35.5,32.3-52.7c0.1-0.3,0.2-0.6,0.3-0.9c1.8-5.7,3.4-14.1-5.2-22.7c-0.1-0.2-0.3-0.3-0.5-0.5
			c-8.7-7.8-16.7-15.8-25.1-24.4c-2.9-2.8-5.7-5.7-8.6-8.6c-10.6-10.6-10.6-20.4,0-31l27.3-27.3c3.2-3.3,6.4-6.5,9.5-9.7
			c6.1-6.3,11.9-12.2,18-17.9c0.1-0.1,0.2-0.2,0.3-0.3c3.2-3.2,8.3-7,14.6-7c5.1,0,10.3,2.5,15.2,7.1l34.1,34.1
			c8.3,8.3,12.8,18,13.8,29.7c1.5,18.3-1.9,37.7-11.2,62.6c-15.1,40.8-37.9,78.8-72,119.9c-41.3,49.3-91,88.2-147.6,115.6
			c-20.7,9.9-48.3,21.5-78,23.4c-1.5,0.1-3.1,0.1-4.6,0.1c-15.6,0-27.5-5.1-37.6-15.9c-6.2-7.3-12.8-13.8-19.3-20
			c-4.3-4.2-8.3-8-12.2-12.2c0.1,0.1,0.1,0,0,0C53.4,388.2,53.4,377.7,63.7,367.5z"/>
		<path d="M228.7,97.1c-1.3-7.3-8.2-12.2-15.6-11c-31.7,5.4-60.6,20.4-83.5,43.3s-37.9,51.8-43.3,83.5c-1.2,7.4,3.7,14.4,11.1,15.6
			c0.8,0.1,1.5,0.2,2.3,0.2c6.5,0,12.2-4.6,13.3-11.2c4.5-26.2,16.8-50,35.8-69s42.8-31.4,69-35.8C225.2,111.5,230,104.4,228.7,97.1
			z"/>
		<path d="M11.6,224.4c0.8,0.1,1.5,0.2,2.3,0.2c6.5,0,12.2-4.6,13.3-11.2c7.9-46.6,29.9-89.1,63.7-122.9
			c33.8-33.7,76.3-55.8,122.9-63.7c7.4-1.3,12.3-8.2,11.1-15.6c-1.3-7.3-8.2-12.3-15.5-11c-52.2,8.9-99.7,33.5-137.5,71.3
			S9.5,156.8,0.6,209C-0.7,216.3,4.3,223.3,11.6,224.4z"/>
	</g>
</g>
</svg>
