<svg width="33" height="33" viewBox="0 0 33 33" fill="none" xmlns="http://www.w3.org/2000/svg">
<circle cx="16.667" cy="16.0522" r="16" fill="#FD1D1D"/>
<g clip-path="url(#clip0)">
<path fill-rule="evenodd" clip-rule="evenodd" d="M16.6668 10.0522C14.9721 10.0522 14.7596 10.0592 14.094 10.0884C13.4298 10.1175 12.9762 10.2189 12.5793 10.3672C12.169 10.5206 11.821 10.7257 11.4741 11.0593C11.1272 11.3929 10.9138 11.7275 10.7544 12.122C10.6001 12.5037 10.4946 12.9398 10.4643 13.5785C10.4339 14.2184 10.4268 14.4227 10.4268 16.0523C10.4268 17.6817 10.4339 17.8861 10.4643 18.526C10.4946 19.1647 10.6001 19.6008 10.7544 19.9825C10.9138 20.377 11.1272 20.7116 11.4741 21.0452C11.821 21.3788 12.169 21.5839 12.5793 21.7373C12.9762 21.8856 13.4298 21.987 14.094 22.0161C14.7596 22.0453 14.9721 22.0522 16.6668 22.0522C18.3614 22.0522 18.5739 22.0453 19.2395 22.0161C19.9037 21.987 20.3573 21.8856 20.7542 21.7373C21.1645 21.5839 21.5125 21.3788 21.8594 21.0452C22.2063 20.7116 22.4197 20.377 22.5792 19.9825C22.7334 19.6008 22.8389 19.1647 22.8692 18.526C22.8996 17.8861 22.9068 17.6817 22.9068 16.0523C22.9068 14.4227 22.8996 14.2184 22.8692 13.5785C22.8389 12.9398 22.7334 12.5037 22.5792 12.122C22.4197 11.7275 22.2063 11.3929 21.8594 11.0593C21.5125 10.7257 21.1645 10.5206 20.7542 10.3672C20.3573 10.2189 19.9037 10.1175 19.2395 10.0884C18.5739 10.0592 18.3614 10.0522 16.6668 10.0522ZM16.6668 11.1333C18.3329 11.1333 18.5303 11.1394 19.1883 11.1683C19.7966 11.195 20.1271 11.2927 20.3469 11.3749C20.6382 11.4837 20.8461 11.6138 21.0644 11.8237C21.2828 12.0337 21.418 12.2336 21.5312 12.5136C21.6166 12.725 21.7183 13.0427 21.746 13.6277C21.7761 14.2604 21.7824 14.4502 21.7824 16.0523C21.7824 17.6543 21.7761 17.8441 21.746 18.4768C21.7183 19.0618 21.6166 19.3794 21.5312 19.5909C21.418 19.8709 21.2828 20.0708 21.0644 20.2808C20.8461 20.4907 20.6382 20.6207 20.3469 20.7296C20.1271 20.8118 19.7966 20.9095 19.1883 20.9362C18.5304 20.965 18.333 20.9712 16.6668 20.9712C15.0005 20.9712 14.8032 20.965 14.1453 20.9362C13.5369 20.9095 13.2065 20.8118 12.9866 20.7296C12.6953 20.6207 12.4874 20.4907 12.2691 20.2808C12.0508 20.0708 11.9155 19.8709 11.8023 19.5909C11.7169 19.3794 11.6152 19.0618 11.5875 18.4768C11.5574 17.8441 11.5511 17.6543 11.5511 16.0523C11.5511 14.4502 11.5574 14.2604 11.5875 13.6277C11.6152 13.0427 11.7169 12.725 11.8023 12.5136C11.9155 12.2336 12.0507 12.0337 12.2691 11.8237C12.4874 11.6138 12.6953 11.4837 12.9866 11.3749C13.2065 11.2927 13.5369 11.195 14.1453 11.1683C14.8032 11.1394 15.0006 11.1333 16.6668 11.1333ZM16.6668 12.9712C14.8971 12.9712 13.4624 14.3506 13.4624 16.0523C13.4624 17.7539 14.8971 19.1333 16.6668 19.1333C18.4365 19.1333 19.8711 17.7539 19.8711 16.0523C19.8711 14.3506 18.4365 12.9712 16.6668 12.9712ZM16.6668 18.0522C15.518 18.0522 14.5868 17.1568 14.5868 16.0523C14.5868 14.9477 15.518 14.0522 16.6668 14.0522C17.8155 14.0522 18.7468 14.9477 18.7468 16.0523C18.7468 17.1568 17.8155 18.0522 16.6668 18.0522ZM20.7465 12.8494C20.7465 13.2471 20.4112 13.5694 19.9977 13.5694C19.5841 13.5694 19.2489 13.2471 19.2489 12.8494C19.2489 12.4518 19.5841 12.1294 19.9977 12.1294C20.4112 12.1294 20.7465 12.4518 20.7465 12.8494Z" fill="white"/>
</g>
<defs>
<clipPath id="clip0">
<rect width="12.48" height="12" fill="white" transform="translate(10.4268 10.0522)"/>
</clipPath>
</defs>
</svg>
