<svg width="56" height="35" viewBox="0 0 56 35" fill="none" xmlns="http://www.w3.org/2000/svg">
<rect x="0.138672" width="55.8613" height="34.9133" rx="2.6185" fill="#F7F7F7"/>
<g clip-path="url(#clip0_230_4594)">
<path d="M14.1626 25.3143V18.1362H21.6923L22.5002 19.1997L23.3354 18.1362H50.6494V24.8193C50.6494 24.8193 49.9368 25.3051 49.1108 25.3143H33.9832L33.0709 24.1821V25.3143H30.089V23.38C30.089 23.38 29.6805 23.6504 28.8 23.6504H27.7833V25.3143H23.2673L22.4594 24.228L21.6424 25.3143H14.1626Z" fill="white"/>
<path d="M5.37549 12.7231L7.07297 8.72607H10.0095L10.9717 10.9629V8.72607H14.6209L15.1928 10.3441L15.7465 8.72607H32.1268V9.53739C32.1268 9.53739 32.9891 8.72607 34.4007 8.72607L39.7155 8.74441L40.6641 10.9538V8.72607H43.7187L44.5583 9.99576V8.72607H47.6401V15.9087H44.5583L43.755 14.6345V15.9087H39.2707L38.8214 14.7766H37.6141L37.1693 15.9087H34.1283C32.912 15.9087 32.1313 15.1112 32.1313 15.1112V15.9087H27.5381L26.6258 14.7766V15.9087H9.57381L9.12448 14.7766H7.92172L7.47238 15.9087H5.37549V12.7231Z" fill="white"/>
<path d="M7.67228 9.61523L5.38477 14.9919H6.87347L7.29557 13.9147H9.75102L10.1731 14.9919H11.6981L9.41062 9.61523H7.67228ZM8.52103 10.862L9.26992 12.7413H7.77214L8.52103 10.862Z" fill="#4A5568"/>
<path d="M11.8521 14.9875V9.61084L13.9716 9.62001L15.2016 13.0853L16.4044 9.61084H18.5058V14.9875H17.176V11.0272L15.7644 14.9875H14.598L13.1819 11.0272V14.9875H11.8521Z" fill="#4A5568"/>
<path d="M19.4185 14.9875V9.61084H23.762V10.8118H20.7665V11.7331H23.6894V12.8653H20.7619V13.8187H23.7575V14.9875H19.4185Z" fill="#4A5568"/>
<path d="M24.5288 9.61523V14.9919H25.8587V13.0805H26.4169L28.0146 14.9919H29.6394L27.8875 13.0118C28.6046 12.9522 29.3489 12.3288 29.3489 11.3616C29.3489 10.2295 28.4684 9.61982 27.4881 9.61982L24.5288 9.61523ZM25.8587 10.8162H27.3791C27.7422 10.8162 28.01 11.1049 28.01 11.38C28.01 11.7375 27.6651 11.9438 27.3973 11.9438H25.8587V10.8162Z" fill="#4A5568"/>
<path d="M31.2506 14.9875H29.8936V9.61084H31.2506V14.9875Z" fill="#4A5568"/>
<path d="M34.4734 14.9873H34.1783C32.7577 14.9873 31.8999 13.8597 31.8999 12.3242C31.8999 10.752 32.7532 9.61523 34.5414 9.61523H36.012V10.8895H34.4915C33.7653 10.8895 33.2479 11.4625 33.2479 12.3379C33.2479 13.3784 33.8379 13.8139 34.6821 13.8139H35.0316L34.4734 14.9873Z" fill="#4A5568"/>
<path d="M37.3691 9.61543L35.0815 14.9875H36.5702L36.9923 13.9104H39.4478L39.8699 14.9875H41.3904L39.1029 9.61084L37.3691 9.61543ZM38.2133 10.8622L38.9622 12.7415H37.4644L38.2133 10.8622Z" fill="#4A5568"/>
<path d="M41.5444 14.9875V9.61084H43.2374L45.3978 12.989V9.61084H46.7277V14.9875H45.0892L42.8743 11.5222V14.9875H41.5444Z" fill="#4A5568"/>
<path d="M15.0747 24.3933V19.0166H19.4183V20.2175H16.4227V21.1389H19.3502V22.271H16.4227V23.2244H19.4183V24.3933H15.0747Z" fill="#4A5568"/>
<path d="M36.3477 24.3933V19.0166H40.6912V20.2175H37.6957V21.1389H40.6095V22.271H37.6957V23.2244H40.6912V24.3933H36.3477Z" fill="#4A5568"/>
<path d="M19.5865 24.3933L21.7016 21.7393L19.5366 19.0166H21.2114L22.5004 20.6988L23.7939 19.0166H25.4052L23.2675 21.7026L25.387 24.3887H23.7122L22.4596 22.734L21.2386 24.3887L19.5865 24.3933Z" fill="#4A5568"/>
<path d="M25.5459 19.021V24.3977H26.9121V22.7017H28.3145C29.4991 22.7017 30.3978 22.0646 30.3978 20.8316C30.3978 19.8094 29.6943 19.0256 28.487 19.0256H25.5459V19.021ZM26.9121 20.2357H28.3871C28.7684 20.2357 29.0453 20.474 29.0453 20.8545C29.0453 21.212 28.7729 21.4733 28.3826 21.4733H26.9121V20.2357Z" fill="#4A5568"/>
<path d="M30.9692 19.0166V24.3933H32.2991V22.4819H32.8573L34.455 24.3933H36.0798L34.3279 22.4131C35.045 22.3535 35.7894 21.7302 35.7894 20.763C35.7894 19.6308 34.9088 19.0212 33.9285 19.0212L30.9692 19.0166ZM32.3036 20.2221H33.8241C34.1872 20.2221 34.455 20.5109 34.455 20.7859C34.455 21.1434 34.11 21.3497 33.8423 21.3497H32.3036V20.2221Z" fill="#4A5568"/>
<path d="M41.3086 24.3931V23.2242H43.9728C44.3677 23.2242 44.5356 23.0088 44.5356 22.775C44.5356 22.5504 44.3677 22.3213 43.9728 22.3213H42.77C41.7261 22.3213 41.1406 21.6795 41.1406 20.7124C41.1406 19.8506 41.6762 19.021 43.2284 19.021H45.82L45.2618 20.2311H43.0197C42.593 20.2311 42.4614 20.4603 42.4614 20.6757C42.4614 20.9003 42.6248 21.1432 42.9516 21.1432H44.2133C45.3798 21.1432 45.8836 21.8125 45.8836 22.688C45.8836 23.6276 45.3208 24.3977 44.1498 24.3977H41.3086V24.3931Z" fill="#4A5568"/>
<path d="M46.1923 24.3931V23.2242H48.8566C49.2515 23.2242 49.4194 23.0088 49.4194 22.775C49.4194 22.5504 49.2515 22.3213 48.8566 22.3213H47.6538C46.6099 22.3213 46.0244 21.6795 46.0244 20.7124C46.0244 19.8506 46.56 19.021 48.1122 19.021H50.7038L50.1456 20.2311H47.9034C47.4768 20.2311 47.3452 20.4603 47.3452 20.6757C47.3452 20.9003 47.5086 21.1432 47.8354 21.1432H49.0971C50.2636 21.1432 50.7674 21.8125 50.7674 22.688C50.7674 23.6276 50.2046 24.3977 49.0336 24.3977H46.1923V24.3931Z" fill="#4A5568"/>
</g>
<defs>
<clipPath id="clip0_230_4594">
<rect width="45.3873" height="16.5838" fill="white" transform="translate(5.37549 8.72852)"/>
</clipPath>
</defs>
</svg>
