<svg version="1.2" xmlns="http://www.w3.org/2000/svg" viewBox="0 0 16 16" width="16" height="16">
	<title>grid-svg</title>
	<style>
		.s0 { fill: #232323 } 
	</style>
	<path id="Layer" class="s0" d="m1 2.5q0-0.3 0.1-0.6 0.1-0.2 0.3-0.5 0.3-0.2 0.5-0.3 0.3-0.1 0.6-0.1h3q0.3 0 0.6 0.1 0.2 0.1 0.5 0.3 0.2 0.3 0.3 0.5 0.1 0.3 0.1 0.6v3q0 0.3-0.1 0.6-0.1 0.2-0.3 0.5-0.3 0.2-0.5 0.3-0.3 0.1-0.6 0.1h-3q-0.3 0-0.6-0.1-0.2-0.1-0.5-0.3-0.2-0.3-0.3-0.5-0.1-0.3-0.1-0.6zm8 0q0-0.3 0.1-0.6 0.1-0.2 0.3-0.5 0.3-0.2 0.5-0.3 0.3-0.1 0.6-0.1h3q0.3 0 0.6 0.1 0.2 0.1 0.5 0.3 0.2 0.3 0.3 0.5 0.1 0.3 0.1 0.6v3q0 0.3-0.1 0.6-0.1 0.2-0.3 0.5-0.3 0.2-0.5 0.3-0.3 0.1-0.6 0.1h-3q-0.3 0-0.6-0.1-0.2-0.1-0.5-0.3-0.2-0.3-0.3-0.5-0.1-0.3-0.1-0.6zm-8 8q0-0.3 0.1-0.6 0.1-0.2 0.3-0.5 0.3-0.2 0.5-0.3 0.3-0.1 0.6-0.1h3q0.3 0 0.6 0.1 0.2 0.1 0.5 0.3 0.2 0.3 0.3 0.5 0.1 0.3 0.1 0.6v3q0 0.3-0.1 0.6-0.1 0.2-0.3 0.5-0.3 0.2-0.5 0.3-0.3 0.1-0.6 0.1h-3q-0.3 0-0.6-0.1-0.2-0.1-0.5-0.3-0.2-0.3-0.3-0.5-0.1-0.3-0.1-0.6zm8 0q0-0.3 0.1-0.6 0.1-0.2 0.3-0.5 0.3-0.2 0.5-0.3 0.3-0.1 0.6-0.1h3q0.3 0 0.6 0.1 0.2 0.1 0.5 0.3 0.2 0.3 0.3 0.5 0.1 0.3 0.1 0.6v3q0 0.3-0.1 0.6-0.1 0.2-0.3 0.5-0.3 0.2-0.5 0.3-0.3 0.1-0.6 0.1h-3q-0.3 0-0.6-0.1-0.2-0.1-0.5-0.3-0.2-0.3-0.3-0.5-0.1-0.3-0.1-0.6z"/>
</svg>