<svg xmlns="http://www.w3.org/2000/svg">
	<symbol id="leaf" viewBox="0 0 25 23" fill="none">
		<path d="M10.2357 7.16388C8.43209 5.59039 6.7818 4.32403 5.09329 3.28784C4.86295 3.13428 4.55606 3.21106 4.44097 3.44139C4.28742 3.67173 4.36419 3.97863 4.59453 4.09371C6.20629 5.09143 7.85653 6.35799 9.6219 7.85451C11.7326 9.69664 13.0373 11.3852 13.8817 13.4193C14.8794 15.8369 15.4934 18.5234 15.7621 21.8618C15.8004 22.1305 15.9924 22.284 16.2225 22.284H16.2608C16.5295 22.2457 16.7213 22.0154 16.683 21.7851C16.4144 18.3697 15.7621 15.6063 14.7259 13.0739C13.843 10.9248 12.423 9.0824 10.2357 7.16388Z" fill="#0DA487" />
		<path d="M23.7441 3.21094C23.5523 3.21094 23.3219 3.24923 23.1301 3.24923L22.8615 3.28772C21.7869 3.40279 20.6739 3.55635 19.5995 3.97852C18.4482 4.4007 17.5655 5.12979 16.9515 6.16604C16.0305 7.70105 15.5315 9.38956 15.4165 11.1549V11.5003V11.8072C15.3397 12.0758 15.4932 12.3444 15.7234 12.4212C15.992 12.498 16.2606 12.3445 16.3374 12.1143C16.4142 11.884 16.4142 11.6539 16.3757 11.462V11.2317C16.4525 9.61992 16.9513 8.08492 17.7956 6.70332C18.2946 5.85896 18.9852 5.2834 19.9447 4.938C20.8656 4.59259 21.8251 4.43903 22.9381 4.32396L23.2067 4.28567C23.3603 4.28567 23.4753 4.24738 23.6289 4.24738C23.5906 4.5543 23.5906 4.86142 23.5521 5.16834C23.4753 5.97422 23.3986 6.7801 23.3218 7.58598C23.1682 8.92909 22.8996 9.96534 22.4774 10.848C22.0937 11.6923 21.5565 12.2296 20.8657 12.4982C20.4052 12.6901 19.9062 12.8051 19.369 12.8436C19.0621 12.8819 18.7167 12.8819 18.3713 12.8436C18.0259 12.8053 17.7189 12.7668 17.4118 12.7286C17.1432 12.6903 16.9129 12.8436 16.8363 13.1122C16.798 13.3809 16.9513 13.6112 17.22 13.6878C17.5654 13.7646 17.9108 13.8029 18.333 13.8414H18.8702C19.1005 13.8414 19.2924 13.8414 19.4842 13.8031C20.0983 13.7263 20.7123 13.6112 21.2496 13.3809C22.1705 12.9972 22.8613 12.3064 23.3986 11.2702C23.8976 10.2725 24.1662 9.12113 24.3196 7.70126C24.3963 6.89538 24.4731 6.0895 24.5499 5.28362C24.5882 4.93821 24.6267 4.55449 24.665 4.2091C24.7033 3.94047 24.6267 3.71013 24.4731 3.55678C24.2432 3.28775 24.0129 3.21097 23.7442 3.21097L23.7441 3.21094Z" fill="#0DA487" />
		<path d="M4.05737 10.4638C4.326 10.7707 4.63293 11.0779 4.94006 11.3465C5.40053 11.7302 5.8995 12.0373 6.39825 12.306C7.7799 12.9968 9.27637 13.1118 10.658 13.1503H11.3871H11.6558C11.9244 13.1503 12.1162 12.92 12.1162 12.6513C12.1162 12.3827 11.8859 12.1909 11.6173 12.1909H10.6578C9.353 12.1526 8.00983 12.0373 6.7818 11.4233C6.32132 11.1929 5.89911 10.9243 5.51544 10.5789C5.24681 10.3486 4.9782 10.0799 4.74783 9.8113C3.75012 8.66002 2.98251 7.35518 2.40695 5.85845C1.90799 4.59209 1.56259 3.21045 1.33243 1.59869C1.40921 1.59869 1.52428 1.59869 1.63935 1.63698H1.75442C3.0214 1.75245 4.4796 1.90581 5.93779 2.2129C6.16813 2.25119 6.39827 2.32797 6.62859 2.36646L7.12755 2.51982C8.5092 2.90351 9.9674 3.28742 11.2338 3.97801C12.2315 4.51525 13.0373 5.24437 13.5363 6.08873C13.8817 6.66429 14.0735 7.31681 14.0735 8.00761C14.0735 8.27624 14.0735 8.65993 14.0353 9.04381C13.997 9.31244 14.1888 9.54278 14.4574 9.58104C14.7261 9.61933 14.9564 9.42749 14.9947 9.15886C15.033 8.73667 15.033 8.27617 15.033 8.00758C15.033 7.12489 14.8026 6.31902 14.3422 5.58994C13.7281 4.59223 12.8072 3.74782 11.6559 3.13383C10.3128 2.4047 8.81605 2.02082 7.35785 1.59882L6.85889 1.44527C6.62855 1.36848 6.35992 1.3302 6.12976 1.25342C4.63309 0.9463 3.13636 0.792944 1.83152 0.716184L1.75474 0.677693C1.60118 0.677693 1.44782 0.639404 1.29426 0.639404C0.987344 0.677693 0.757026 0.792962 0.565138 0.984814C0.411581 1.17666 0.373291 1.44529 0.373291 1.67561C0.603629 3.36418 0.987334 4.86085 1.52457 6.20397C2.17688 7.81572 2.98276 9.19717 4.05729 10.4637L4.05737 10.4638Z" fill="#0DA487" />
	</symbol>

	<symbol id="cake" viewBox="0 0 23 23" fill="none" xmlns="http://www.w3.org/2000/svg">
		<path d="M20.0174 9.85944C20.3241 9.41359 20.504 8.87381 20.504 8.29176C20.504 6.76214 19.264 5.52222 17.7344 5.52222H5.34208C3.81246 5.52217 2.57254 6.76214 2.57254 8.29176C2.57254 8.86712 2.74804 9.40142 3.04835 9.8443C1.67334 10.1424 0.643066 11.3654 0.643066 12.8298C0.643066 13.8086 1.10383 14.6792 1.81965 15.2384L1.80923 15.2065L1.80963 14.7276C1.80963 13.6572 2.67729 12.7896 3.74764 12.7896C4.81798 12.7896 5.68564 13.6573 5.68564 14.7276C5.68564 13.6572 6.5533 12.7896 7.62365 12.7896C8.69399 12.7896 9.56165 13.6573 9.56165 14.7276C9.56165 13.6572 10.4293 12.7896 11.4997 12.7896C12.57 12.7896 13.4377 13.6573 13.4377 14.7276C13.4377 13.6572 14.3053 12.7896 15.3757 12.7896C16.446 12.7896 17.3137 13.6573 17.3137 14.7276C17.3137 13.6572 18.1813 12.7896 19.2517 12.7896C20.322 12.7896 21.1897 13.6573 21.1897 14.7276L21.1901 15.2065L21.1797 15.2384C21.8955 14.6792 22.3563 13.8086 22.3563 12.8298C22.3567 11.389 21.3592 10.1819 20.0174 9.85944Z" fill="#F4D098" />
		<path d="M20.9251 9.50489C21.0716 9.12036 21.1473 8.71067 21.1473 8.29169C21.1473 6.40988 19.6163 4.87891 17.7345 4.87891H11.4999C10.6133 4.87891 9.89199 4.15761 9.89199 3.27104C9.89199 2.38446 10.6133 1.66316 11.4999 1.66316C12.3864 1.66316 13.1077 2.38446 13.1077 3.27104C13.1077 3.62619 13.3957 3.91418 13.7509 3.91418C14.106 3.91418 14.394 3.62619 14.394 3.27104C14.394 1.67515 13.0957 0.376831 11.4998 0.376831C9.90394 0.376831 8.60562 1.67515 8.60562 3.27104C8.60562 3.86562 8.78602 4.41874 9.09468 4.87891H5.3422C3.46039 4.87891 1.92942 6.40988 1.92942 8.29169C1.92942 8.70007 2.00134 9.09997 2.14056 9.47605C0.864065 10.0733 0 11.3779 0 12.8297C0 13.9034 0.455594 14.9039 1.25717 15.6072L3.19706 22.1625C3.27792 22.4357 3.52886 22.6231 3.81379 22.6231H19.1861C19.4759 22.6231 19.7299 22.4293 19.8065 22.1499L20.8889 18.196C20.9827 17.8534 20.781 17.4997 20.4384 17.4058C20.0956 17.3122 19.742 17.5137 19.6482 17.8563L18.6954 21.3369H4.29423L2.45263 15.1136L2.45294 14.7276C2.45294 14.0136 3.03377 13.4327 3.7478 13.4327C4.46183 13.4327 5.04271 14.0136 5.04271 14.7276C5.04271 15.0827 5.3307 15.3707 5.68585 15.3707C6.041 15.3707 6.32899 15.0827 6.32899 14.7276C6.32899 14.0136 6.90983 13.4327 7.62386 13.4327C8.33788 13.4327 8.91876 14.0136 8.91876 14.7276V17.7688C8.91876 18.124 9.20676 18.412 9.56191 18.412C9.91705 18.412 10.205 18.124 10.205 17.7688V14.7276C10.205 14.0136 10.7859 13.4327 11.4999 13.4327C12.2139 13.4327 12.7948 14.0136 12.7948 14.7276C12.7948 15.0827 13.0828 15.3707 13.4379 15.3707C13.7931 15.3707 14.0811 15.0827 14.0811 14.7276C14.0811 14.0136 14.6619 13.4327 15.376 13.4327C15.4206 13.4327 15.4647 13.435 15.5082 13.4394C16.1465 13.5044 16.6476 14.0353 16.6687 14.6854C16.6678 14.6994 16.6666 14.7134 16.6666 14.7276V17.7688C16.6666 18.124 16.9546 18.412 17.3097 18.412C17.6649 18.412 17.9529 18.124 17.9529 17.7688V14.8C17.9556 14.7762 17.9572 14.752 17.9572 14.7276C17.9572 14.0582 18.4677 13.5059 19.1198 13.4394C19.1633 13.435 19.2074 13.4327 19.2521 13.4327C19.9661 13.4327 20.5469 14.0136 20.5469 14.7281L20.5472 15.1235C20.5029 15.3678 20.6034 15.6194 20.8109 15.7649C20.922 15.8427 21.0511 15.8815 21.18 15.8815C21.3201 15.8815 21.46 15.8358 21.576 15.7452C22.4808 15.0383 22.9999 13.9757 22.9999 12.8297C22.9998 11.3873 22.1774 10.1128 20.9251 9.50489ZM17.3141 13.0244C16.8407 12.4864 16.1474 12.1464 15.3761 12.1464C14.6047 12.1464 13.9114 12.4864 13.438 13.0244C12.9646 12.4864 12.2712 12.1464 11.5 12.1464C10.7287 12.1464 10.0354 12.4864 9.56195 13.0244C9.08857 12.4864 8.3952 12.1464 7.62386 12.1464C6.8526 12.1464 6.15928 12.4864 5.68585 13.0244C5.21247 12.4864 4.51911 12.1464 3.74776 12.1464C3.69057 12.1464 3.63406 12.149 3.57777 12.1527C3.56268 12.1536 3.54763 12.1549 3.53263 12.1561C3.48456 12.1601 3.43695 12.1652 3.38973 12.1719C3.3812 12.1731 3.37257 12.1739 3.36408 12.1752C3.30973 12.1832 3.25605 12.1934 3.20286 12.2049C3.18916 12.2078 3.17564 12.2111 3.16203 12.2143C3.11886 12.2243 3.07609 12.2354 3.03378 12.2477C3.02187 12.2511 3.00983 12.2542 2.99806 12.2578C2.94681 12.2734 2.89627 12.2905 2.84641 12.3092C2.83522 12.3133 2.82422 12.318 2.81303 12.3224C2.77238 12.3383 2.73226 12.355 2.69264 12.3729C2.67979 12.3787 2.66686 12.3844 2.6541 12.3903C2.60617 12.4128 2.55886 12.4365 2.5126 12.4618C2.50572 12.4656 2.49903 12.4697 2.4922 12.4736C2.452 12.496 2.4126 12.5196 2.37374 12.5442C2.36121 12.5522 2.34868 12.5601 2.33623 12.5682C2.29432 12.5957 2.25299 12.6241 2.21283 12.6539C2.21032 12.6558 2.20767 12.6574 2.2052 12.6593C2.16306 12.6907 2.12227 12.7239 2.08225 12.7579C2.07097 12.7674 2.05992 12.7771 2.04883 12.7868C2.01572 12.8158 1.98329 12.8457 1.95171 12.8763C1.9447 12.8831 1.93738 12.8897 1.93041 12.8966C1.89344 12.9333 1.85768 12.9713 1.82296 13.0102C1.81384 13.0204 1.80504 13.0309 1.7961 13.0412C1.76838 13.0732 1.74147 13.1059 1.71537 13.1392C1.70751 13.1492 1.69943 13.1592 1.6917 13.1693C1.66007 13.2109 1.62962 13.2535 1.60051 13.297C1.59426 13.3064 1.58847 13.3159 1.58236 13.3253C1.55864 13.3618 1.53587 13.3989 1.51399 13.4366C1.50698 13.4488 1.49984 13.4608 1.49301 13.4731C1.46714 13.5194 1.44225 13.5664 1.41925 13.6144C1.41876 13.6155 1.41808 13.6165 1.4175 13.6177C1.33143 13.368 1.28628 13.1024 1.28628 12.8296C1.28628 11.7233 2.05556 10.7485 3.12398 10.4873H12.3039C12.659 10.4873 12.947 10.1993 12.947 9.84418C12.947 9.48903 12.659 9.20104 12.3039 9.20104H3.41974C3.28583 8.91862 3.2158 8.60947 3.2158 8.29174C3.2158 7.11928 4.16971 6.16529 5.34225 6.16529H17.7346C18.907 6.16529 19.861 7.11919 19.861 8.29174C19.861 8.72379 19.7319 9.13985 19.4877 9.49487C19.3676 9.66943 19.3411 9.89189 19.417 10.0897C19.4929 10.2875 19.6613 10.4353 19.8672 10.4848C20.9544 10.7461 21.7136 11.7104 21.7136 12.8297C21.7136 13.1025 21.6684 13.3681 21.5824 13.6179C21.5818 13.6166 21.581 13.6155 21.5804 13.6142C21.5575 13.5665 21.5329 13.5197 21.5071 13.4737C21.5001 13.4611 21.4928 13.4486 21.4855 13.4362C21.4639 13.3989 21.4414 13.3623 21.4179 13.3262C21.4116 13.3165 21.4056 13.3066 21.3991 13.297C21.3702 13.2536 21.3398 13.2113 21.3084 13.1698C21.3004 13.1593 21.2921 13.1491 21.284 13.1388C21.2581 13.1058 21.2315 13.0735 21.2041 13.0418C21.195 13.0312 21.186 13.0205 21.1766 13.0101C21.142 12.9713 21.1064 12.9336 21.0696 12.897C21.0623 12.8898 21.0547 12.8829 21.0474 12.8758C21.0161 12.8455 20.9841 12.8161 20.9514 12.7873C20.9401 12.7775 20.9288 12.7675 20.9173 12.7577C20.8773 12.724 20.8367 12.6909 20.7948 12.6596C20.7918 12.6574 20.7887 12.6554 20.7859 12.6532C20.7461 12.6237 20.7053 12.5957 20.6639 12.5686C20.6512 12.5603 20.6386 12.5522 20.6258 12.5441C20.5873 12.5198 20.5482 12.4964 20.5084 12.4742C20.5012 12.4701 20.4942 12.4658 20.487 12.4618C20.4409 12.4366 20.3938 12.4131 20.346 12.3906C20.3331 12.3845 20.3199 12.3787 20.3068 12.3729C20.2675 12.3552 20.2276 12.3384 20.1872 12.3227C20.1759 12.3182 20.1647 12.3136 20.1534 12.3093C20.1036 12.2907 20.0531 12.2736 20.002 12.258C19.9901 12.2544 19.978 12.2513 19.966 12.2478C19.9238 12.2356 19.8811 12.2246 19.8381 12.2145C19.8244 12.2112 19.8108 12.2079 19.797 12.2049C19.7438 12.1935 19.6902 12.1834 19.6359 12.1752C19.6274 12.1739 19.6188 12.1731 19.6102 12.172C19.563 12.1654 19.5153 12.1602 19.4672 12.1562C19.4522 12.1549 19.4372 12.1537 19.4221 12.1527C19.3658 12.1491 19.3093 12.1465 19.2521 12.1465C18.4808 12.1464 17.7874 12.4864 17.3141 13.0244Z" fill="#D99F46" />
	</symbol>
</svg>