<svg width="17" height="14" viewBox="0 0 17 14" fill="none" xmlns="http://www.w3.org/2000/svg">
	<path d="M0.875 2C0.875 2.49728 1.07254 2.97419 1.42417 3.32583C1.77581 3.67746 2.25272 3.875 2.75 3.875C3.24728 3.875 3.72419 3.67746 4.07583 3.32583C4.42746 2.97419 4.625 2.49728 4.625 2C4.625 1.50272 4.42746 1.02581 4.07583 0.674175C3.72419 0.322544 3.24728 0.125 2.75 0.125C2.25272 0.125 1.77581 0.322544 1.42417 0.674175C1.07254 1.02581 0.875 1.50272 0.875 2ZM6.5 1.25C6.5 0.973858 6.72386 0.75 7 0.75H16C16.2761 0.75 16.5 0.973858 16.5 1.25V2.75C16.5 3.02614 16.2761 3.25 16 3.25H7C6.72386 3.25 6.5 3.02614 6.5 2.75V1.25ZM0.875 7C0.875 7.49728 1.07254 7.97419 1.42417 8.32583C1.77581 8.67746 2.25272 8.875 2.75 8.875C3.24728 8.875 3.72419 8.67746 4.07583 8.32583C4.42746 7.97419 4.625 7.49728 4.625 7C4.625 6.50272 4.42746 6.02581 4.07583 5.67417C3.72419 5.32254 3.24728 5.125 2.75 5.125C2.25272 5.125 1.77581 5.32254 1.42417 5.67417C1.07254 6.02581 0.875 6.50272 0.875 7ZM6.5 6.25C6.5 5.97386 6.72386 5.75 7 5.75H16C16.2761 5.75 16.5 5.97386 16.5 6.25V7.75C16.5 8.02614 16.2761 8.25 16 8.25H7C6.72386 8.25 6.5 8.02614 6.5 7.75V6.25ZM0.875 12C0.875 12.4973 1.07254 12.9742 1.42417 13.3258C1.77581 13.6775 2.25272 13.875 2.75 13.875C3.24728 13.875 3.72419 13.6775 4.07583 13.3258C4.42746 12.9742 4.625 12.4973 4.625 12C4.625 11.5027 4.42746 11.0258 4.07583 10.6742C3.72419 10.3225 3.24728 10.125 2.75 10.125C2.25272 10.125 1.77581 10.3225 1.42417 10.6742C1.07254 11.0258 0.875 11.5027 0.875 12ZM6.5 11.25C6.5 10.9739 6.72386 10.75 7 10.75H16C16.2761 10.75 16.5 10.9739 16.5 11.25V12.75C16.5 13.0261 16.2761 13.25 16 13.25H7C6.72386 13.25 6.5 13.0261 6.5 12.75V11.25Z" fill="#232323" />
</svg>
