<svg width="57" height="35" viewBox="0 0 57 35" fill="none" xmlns="http://www.w3.org/2000/svg">
<rect x="0.942383" width="55.8613" height="34.9133" rx="2.6185" fill="#F7F7F7"/>
<path d="M22.6553 24.2667C27.8946 24.2667 32.1443 20.1977 32.1443 15.1862C32.1443 10.1747 27.8947 6.10986 22.6553 6.10986C17.4117 6.10986 13.1621 10.1747 13.1621 15.1862C13.1621 20.1977 17.4117 24.2667 22.6553 24.2667Z" fill="#4A5568"/>
<path d="M35.8583 24.2667C41.0988 24.2667 45.3494 20.1977 45.3494 15.1862C45.3494 10.1747 41.0988 6.10986 35.8583 6.10986C30.6134 6.10986 26.3672 10.1747 26.3672 15.1862C26.3672 20.1977 30.6134 24.2667 35.8583 24.2667Z" fill="#4A5568"/>
<path d="M29.2485 21.7908C27.4634 20.1662 26.3672 17.9779 26.3672 15.574C26.3672 13.1951 27.444 11.0275 29.1951 9.41113L29.4182 9.5106C31.1111 11.1187 32.1444 13.2448 32.1444 15.574C32.1444 17.9157 31.1015 20.046 29.3989 21.6582L29.2485 21.7908Z" fill="#4A5568"/>
<path d="M13.9873 25.8438H14.8589L15.977 28.6018L16.9764 25.8438H17.8982V29.5181H17.1818V26.7917L16.2234 29.5181H15.6804L14.722 26.8278V29.5181H13.9873V25.8438Z" fill="#4A5568"/>
<path d="M25.6561 29.5178V25.8931H25.0127V29.5178H25.6561Z" fill="#4A5568"/>
<path d="M24.6431 26.7061V27.3786H26.076V26.7061H24.6431Z" fill="#4A5568"/>
<path d="M21.5671 29.5182V26.7061H20.9556V29.5182H21.5671Z" fill="#4A5568"/>
<path d="M39.1686 29.5182V26.7061H38.5571V29.5182H39.1686Z" fill="#4A5568"/>
<path d="M44.6906 29.5183V26.002H44.0791V29.5183H44.6906Z" fill="#4A5568"/>
<path d="M30.8404 26.7061H30.2061V29.5183H30.8494V27.6585C31 27.3561 31.4518 27.2929 31.5248 27.2929V26.688C31.3742 26.688 30.8586 26.8008 30.8403 27.0762V26.7061H30.8404Z" fill="#4A5568"/>
<path d="M40.5652 26.7061H39.9263V29.5183H40.5744V27.6585C40.7204 27.3561 41.1767 27.2929 41.2452 27.2929V26.688C41.0991 26.688 40.5835 26.8008 40.5652 27.0762V26.7061Z" fill="#4A5568"/>
<path d="M23.4838 27.5093H24.109C24.109 27.0173 23.7896 26.7148 23.2648 26.7148C22.7399 26.7148 22.3247 26.9857 22.3247 27.5905C22.3247 28.1954 22.9681 28.2812 23.0731 28.3083C23.2009 28.3443 23.5523 28.385 23.5523 28.7687C23.5523 28.9131 23.3788 28.9492 23.2282 28.9492C23.0822 28.9492 22.9316 28.8364 22.9316 28.6694H22.2334C22.2334 29.3013 22.7308 29.5541 23.2282 29.5541C23.7257 29.5541 24.2003 29.1568 24.2003 28.6783C24.2003 28.209 23.7348 27.9335 23.3697 27.8794C22.8175 27.8026 22.8723 27.3287 23.1917 27.3287C23.4929 27.3287 23.4747 27.4596 23.4838 27.5093Z" fill="#4A5568"/>
<path d="M34.9428 28.5115C34.7146 28.7959 34.3632 28.9764 33.9707 28.9764C33.2862 28.9764 32.734 28.4302 32.734 27.7622C32.734 27.0851 33.2862 26.5389 33.9707 26.5389C34.3586 26.5389 34.71 26.7149 34.9336 26.9948H35.7368C35.4402 26.2997 34.7511 25.8438 33.9707 25.8438C32.8983 25.8438 32.0312 26.7014 32.0312 27.7622C32.0312 28.8139 32.8983 29.6761 33.9707 29.6761C34.7648 29.6761 35.4493 29.1886 35.7505 28.5115H34.9428Z" fill="#4A5568"/>
<path d="M43.2209 29.5863C44.0378 29.5863 44.7041 28.9272 44.7041 28.1238C44.7041 27.3113 44.0377 26.6567 43.2209 26.6567V27.2797C43.691 27.2797 44.0743 27.6588 44.0743 28.1238C44.0743 28.5842 43.691 28.9634 43.2209 28.9634V29.5863ZM43.2209 29.5863V28.9634C42.7509 28.9634 42.3676 28.5842 42.3676 28.1238C42.3676 27.6588 42.7509 27.2797 43.2209 27.2797V26.6567C42.4041 26.6567 41.7378 27.3113 41.7378 28.1238C41.7378 28.9272 42.4041 29.5863 43.2209 29.5863Z" fill="#4A5568"/>
<path d="M37.699 29.5863C38.5204 29.5863 39.1821 28.9272 39.1821 28.1238C39.1821 27.3113 38.5204 26.6567 37.699 26.6567V27.2797C38.169 27.2797 38.5523 27.6588 38.5523 28.1238C38.5523 28.5842 38.169 28.9634 37.699 28.9634V29.5863ZM37.699 26.6568C36.8821 26.6568 36.2158 27.3113 36.2158 28.1238C36.2158 28.9273 36.8822 29.5864 37.699 29.5864V28.9634C37.2289 28.9634 36.8456 28.5843 36.8456 28.1238C36.8456 27.6589 37.2289 27.2797 37.699 27.2797V26.6568Z" fill="#4A5568"/>
<path d="M28.0428 28.4121H29.4895C29.494 28.3715 29.4986 28.3263 29.4986 28.2857V28.1638C29.4758 27.5093 29.0605 26.7058 28.0429 26.6968V27.3784C28.3897 27.3784 28.732 27.5364 28.732 27.8478H28.0429V28.4121H28.0428ZM28.0428 29.5948C28.6178 29.5858 29.4256 29.2156 29.4256 28.7417H28.6543C28.6543 28.8546 28.3577 28.9583 28.0428 28.9539V29.5948ZM27.3355 28.4121H28.0428V27.8478H27.3537C27.3537 27.5364 27.696 27.3784 28.0428 27.3784V26.6968C28.0383 26.6968 28.0291 26.6968 28.0246 26.6968C27.1027 26.6968 26.6008 27.4552 26.5962 28.1955V28.2226C26.6099 28.9223 27.0617 29.5948 28.0154 29.5948C28.0246 29.5948 28.0337 29.5948 28.0428 29.5948V28.9538C27.696 28.9493 27.3355 28.8093 27.3355 28.4121Z" fill="#4A5568"/>
<path d="M20.1023 29.5863C20.9191 29.5863 21.5854 28.9272 21.5854 28.1238C21.5854 27.3113 20.9191 26.6567 20.1023 26.6567V27.2797C20.5723 27.2797 20.9557 27.6588 20.9557 28.1238C20.9557 28.5842 20.5723 28.9634 20.1023 28.9634V29.5863ZM20.1023 29.5863V28.9634C19.6322 28.9634 19.2489 28.5842 19.2489 28.1238C19.2489 27.6588 19.6322 27.2797 20.1023 27.2797V26.6567C19.2808 26.6567 18.6191 27.3113 18.6191 28.1238C18.6191 28.9272 19.2808 29.5863 20.1023 29.5863Z" fill="#4A5568"/>
</svg>
