<svg width="56" height="35" viewBox="0 0 56 35" fill="none" xmlns="http://www.w3.org/2000/svg">
<rect width="55.8613" height="34.9133" rx="2.6185" fill="#F7F7F7"/>
<path d="M12.0819 12.2202H8.77654C8.55036 12.2202 8.358 12.3849 8.32272 12.6086L6.98589 21.1015C6.95931 21.269 7.08884 21.4201 7.25848 21.4201H8.83647C9.06266 21.4201 9.25502 21.2555 9.2903 21.0313L9.65084 18.7406C9.68564 18.5164 9.87848 18.3517 10.1042 18.3517H11.1505C13.3278 18.3517 14.5844 17.296 14.9126 15.2039C15.0605 14.2886 14.9189 13.5694 14.4912 13.0658C14.0214 12.5127 13.1882 12.2202 12.0819 12.2202ZM12.4632 15.322C12.2824 16.5105 11.3762 16.5105 10.5 16.5105H10.0012L10.3512 14.291C10.3719 14.1569 10.4879 14.0581 10.6233 14.0581H10.8519C11.4487 14.0581 12.0118 14.0581 12.3027 14.399C12.4763 14.6024 12.5294 14.9046 12.4632 15.322Z" fill="#4A5568"/>
<path d="M21.9625 15.2834H20.3797C20.2448 15.2834 20.1283 15.3822 20.1075 15.5164L20.0375 15.96L19.9268 15.7992C19.5841 15.3009 18.82 15.1343 18.0574 15.1343C16.3083 15.1343 14.8144 16.4617 14.5234 18.3238C14.3721 19.2526 14.5872 20.1408 15.1131 20.7602C15.5954 21.3297 16.2856 21.567 17.1067 21.567C18.516 21.567 19.2975 20.659 19.2975 20.659L19.227 21.0997C19.2004 21.2682 19.3299 21.4193 19.4986 21.4193H20.9243C21.151 21.4193 21.3424 21.2546 21.3782 21.0304L22.2336 15.6021C22.2607 15.435 22.1316 15.2834 21.9625 15.2834ZM19.7562 18.3703C19.6035 19.2763 18.8857 19.8846 17.9704 19.8846C17.5107 19.8846 17.1434 19.7369 16.9076 19.457C16.6737 19.179 16.5847 18.7833 16.6592 18.3427C16.8017 17.4443 17.5315 16.8162 18.4329 16.8162C18.8824 16.8162 19.2477 16.9658 19.4884 17.2482C19.7296 17.5334 19.8253 17.9315 19.7562 18.3703Z" fill="#4A5568"/>
<path d="M30.3917 15.2842H28.8011C28.6494 15.2842 28.5068 15.3597 28.4208 15.4861L26.227 18.724L25.2971 15.6125C25.2387 15.4178 25.0594 15.2842 24.8564 15.2842H23.2934C23.1034 15.2842 22.9715 15.4701 23.0319 15.6493L24.7839 20.8011L23.1368 23.131C23.0072 23.3146 23.1377 23.5669 23.3615 23.5669H24.9501C25.1009 23.5669 25.242 23.4933 25.3276 23.3693L30.6179 15.7176C30.7445 15.5346 30.6145 15.2842 30.3917 15.2842Z" fill="#4A5568"/>
<path d="M35.6581 12.2202H32.3522C32.1265 12.2202 31.9342 12.3849 31.8989 12.6086L30.5621 21.1015C30.5355 21.269 30.665 21.4201 30.8337 21.4201H32.5301C32.6876 21.4201 32.8225 21.3049 32.8471 21.148L33.2265 18.7406C33.2613 18.5164 33.4542 18.3517 33.6799 18.3517H34.7258C36.9035 18.3517 38.1596 17.296 38.4883 15.2039C38.6367 14.2886 38.4941 13.5694 38.0664 13.0658C37.5971 12.5127 36.7643 12.2202 35.6581 12.2202ZM36.0394 15.322C35.8591 16.5105 34.9529 16.5105 34.0762 16.5105H33.5779L33.9283 14.291C33.9491 14.1569 34.0641 14.0581 34.1999 14.0581H34.4285C35.0249 14.0581 35.5885 14.0581 35.8794 14.399C36.0529 14.6024 36.1056 14.9046 36.0394 15.322Z" fill="#4A5568"/>
<path d="M45.5381 15.2834H43.9562C43.8204 15.2834 43.7049 15.3822 43.6846 15.5164L43.6145 15.96L43.5033 15.7992C43.1607 15.3009 42.397 15.1343 41.6344 15.1343C39.8853 15.1343 38.3919 16.4617 38.1009 18.3238C37.9501 19.2526 38.1642 20.1408 38.6901 20.7602C39.1734 21.3297 39.8626 21.567 40.6837 21.567C42.093 21.567 42.8745 20.659 42.8745 20.659L42.804 21.0997C42.7774 21.2682 42.9069 21.4193 43.0766 21.4193H44.5018C44.7275 21.4193 44.9199 21.2546 44.9552 21.0304L45.8111 15.6021C45.8372 15.435 45.7077 15.2834 45.5381 15.2834ZM43.3318 18.3703C43.18 19.2763 42.4613 19.8846 41.5459 19.8846C41.0873 19.8846 40.719 19.7369 40.4831 19.457C40.2492 19.179 40.1613 18.7833 40.2347 18.3427C40.3783 17.4443 41.1071 16.8162 42.0085 16.8162C42.4579 16.8162 42.8233 16.9658 43.064 17.2482C43.3061 17.5334 43.4018 17.9315 43.3318 18.3703Z" fill="#4A5568"/>
<path d="M47.4041 12.4532L46.0474 21.1015C46.0208 21.269 46.1504 21.4201 46.319 21.4201H47.6829C47.9096 21.4201 48.1019 21.2555 48.1367 21.0313L49.4745 12.5389C49.5011 12.3713 49.3716 12.2197 49.2029 12.2197H47.6757C47.5408 12.2202 47.4248 12.319 47.4041 12.4532Z" fill="#4A5568"/>
</svg>
