<svg width="56" height="35" viewBox="0 0 56 35" fill="none" xmlns="http://www.w3.org/2000/svg">
<rect x="0.0405273" width="55.8613" height="34.9133" rx="2.6185" fill="#F7F7F7"/>
<g clip-path="url(#clip0_230_4587)">
<mask id="mask0_230_4587" style="mask-type:alpha" maskUnits="userSpaceOnUse" x="11" y="9" width="34" height="15">
<path d="M11.3916 9.65186H44.5316V23.5653H11.3916V9.65186Z" fill="white"/>
</mask>
<g mask="url(#mask0_230_4587)">
<path fill-rule="evenodd" clip-rule="evenodd" d="M14.8507 15.9104C14.1365 15.6431 13.7451 15.4351 13.7451 15.1083C13.7451 14.831 13.9702 14.6726 14.3713 14.6726C15.1051 14.6726 15.8585 14.9598 16.377 15.2172L16.6705 13.3852C16.2596 13.1872 15.4182 12.8604 14.2539 12.8604C13.4321 12.8604 12.7472 13.0782 12.258 13.4842C11.7492 13.91 11.485 14.524 11.485 15.2667C11.485 16.6135 12.2971 17.1879 13.618 17.6731C14.4692 17.9801 14.7529 18.198 14.7529 18.5347C14.7529 18.8615 14.4789 19.0496 13.9799 19.0496C13.3635 19.0496 12.3461 18.7426 11.6807 18.3465L11.3872 20.1983C11.9547 20.5251 13.0113 20.8618 14.1072 20.8618C14.9779 20.8618 15.7019 20.6538 16.1912 20.2577C16.739 19.822 17.0228 19.1784 17.0228 18.3465C17.0228 16.97 16.1912 16.3957 14.8507 15.9104ZM21.801 14.831L22.0946 13.0089H20.545V10.797L18.4616 11.144L18.1607 13.0089L17.428 13.1292L17.1537 14.831H18.1577V18.4059C18.1577 19.3368 18.3925 19.9805 18.8719 20.3766C19.2731 20.7034 19.8503 20.8618 20.6624 20.8618C21.2886 20.8618 21.6701 20.7529 21.9343 20.6835V18.7525C21.7875 18.7922 21.4549 18.8615 21.2298 18.8615C20.7505 18.8615 20.545 18.6139 20.545 18.0494V14.831H21.801ZM26.4545 12.9025C25.7696 12.9025 25.2217 13.2664 25.0065 13.92L24.8597 13.0089H22.7366V20.7132H25.163V15.7124C25.4664 15.336 25.8968 15.2 26.4838 15.2C26.6111 15.2 26.748 15.2 26.9144 15.2297V12.9619C26.748 12.9223 26.6012 12.9025 26.4545 12.9025ZM28.7244 12.2464C29.4289 12.2464 29.9963 11.6621 29.9963 10.9491C29.9963 10.2262 29.4289 9.65186 28.7244 9.65186C28.0101 9.65186 27.4427 10.2262 27.4427 10.9491C27.4427 11.6621 28.0101 12.2464 28.7244 12.2464ZM27.5014 13.0089H29.9376V20.7132H27.5014V13.0089ZM36.8414 13.7021C36.4109 13.1376 35.8141 12.8604 35.0509 12.8604C34.3465 12.8604 33.7301 13.1574 33.1528 13.7813L33.0256 13.0089H30.8927V23.5653L33.3192 23.1593V20.6835C33.6909 20.8024 34.0725 20.8618 34.4149 20.8618C35.0216 20.8618 35.9021 20.7034 36.587 19.9508C37.2425 19.2278 37.5752 18.1089 37.5752 16.6333C37.5752 15.3262 37.3305 14.3359 36.8414 13.7021ZM34.8259 18.4554C34.6302 18.8317 34.3269 19.0298 33.9747 19.0298C33.7301 19.0298 33.5148 18.9803 33.3192 18.8813V15.2172C33.7301 14.7815 34.1018 14.732 34.2388 14.732C34.8552 14.732 35.1585 15.4054 35.1585 16.7224C35.1585 17.475 35.0509 18.0593 34.8259 18.4554ZM44.5316 16.7917C44.5316 15.5638 44.2674 14.5933 43.7488 13.91C43.2205 13.2169 42.428 12.8604 41.4203 12.8604C39.3558 12.8604 38.0742 14.4052 38.0742 16.8809C38.0742 18.2673 38.4166 19.3071 39.0916 19.9705C39.6983 20.5647 40.5691 20.8618 41.6942 20.8618C42.7313 20.8618 43.6901 20.6142 44.2968 20.2082L44.0326 18.5248C43.4357 18.8516 42.7411 19.0298 41.9584 19.0298C41.4887 19.0298 41.1659 18.9307 40.9311 18.7228C40.6766 18.505 40.5299 18.1485 40.481 17.6434H44.5022C44.512 17.5246 44.5316 16.97 44.5316 16.7917ZM40.4614 16.1382C40.5299 15.0389 40.8234 14.524 41.3811 14.524C41.929 14.524 42.2128 15.0489 42.2519 16.1382H40.4614Z" fill="#4A5568"/>
</g>
</g>
<defs>
<clipPath id="clip0_230_4587">
<rect width="33.1676" height="13.9653" fill="white" transform="translate(11.3872 9.60107)"/>
</clipPath>
</defs>
</svg>
