<svg width="59" height="35" viewBox="0 0 59 35" fill="none" xmlns="http://www.w3.org/2000/svg">
<rect x="0.971191" width="57.6069" height="34.9133" rx="2.6185" fill="#F7F7F7"/>
<g clip-path="url(#clip0_230_4615)">
<path d="M26.8649 24.2375H23.3296L25.5408 10.7188H29.0759L26.8649 24.2375Z" fill="#4A5568"/>
<path d="M39.6805 11.0492C38.9832 10.7756 37.8772 10.4736 36.5097 10.4736C33.0185 10.4736 30.56 12.3144 30.5449 14.9461C30.5159 16.8878 32.3051 17.9663 33.6433 18.6137C35.011 19.2753 35.476 19.7071 35.476 20.2968C35.4621 21.2024 34.3708 21.6199 33.3529 21.6199C31.9415 21.6199 31.1852 21.4047 30.0359 20.9008L29.5704 20.6848L29.0757 23.7195C29.9048 24.093 31.4325 24.4244 33.0185 24.439C36.7279 24.439 39.1429 22.6267 39.1715 19.8221C39.1856 18.2832 38.2409 17.104 36.204 16.1404C34.9676 15.5219 34.2103 15.1048 34.2103 14.4719C34.2248 13.8965 34.8508 13.3072 36.2466 13.3072C37.3959 13.2784 38.2403 13.5515 38.88 13.8249L39.1998 13.9684L39.6805 11.0492Z" fill="#4A5568"/>
<path d="M44.3793 19.4483C44.6705 18.6717 45.7908 15.6659 45.7908 15.6659C45.7761 15.6947 46.0813 14.8749 46.2559 14.3716L46.503 15.5365C46.503 15.5365 47.1724 18.7724 47.3178 19.4483C46.7653 19.4483 45.0776 19.4483 44.3793 19.4483ZM48.7432 10.7188H46.0086C45.1654 10.7188 44.5247 10.963 44.1609 11.8404L38.9097 24.2374H42.6191C42.6191 24.2374 43.2298 22.5688 43.3611 22.2095C43.768 22.2095 47.3766 22.2095 47.9001 22.2095C48.0016 22.6841 48.3219 24.2374 48.3219 24.2374H51.5953L48.7432 10.7188Z" fill="#4A5568"/>
<path d="M20.3767 10.7188L16.9145 19.9373L16.5362 18.0677C15.8961 15.9103 13.8887 13.5665 11.6484 12.401L14.8197 24.2232H18.5581L24.115 10.7188H20.3767Z" fill="#4A5568"/>
<path d="M13.6997 10.7188H8.0118L7.95361 10.9919C12.3905 12.1138 15.329 14.8179 16.5363 18.0682L15.2998 11.8551C15.0963 10.9917 14.4707 10.7472 13.6997 10.7188Z" fill="#FAA61A"/>
</g>
<defs>
<clipPath id="clip0_230_4615">
<rect width="43.6416" height="13.9653" fill="white" transform="translate(7.95361 10.4741)"/>
</clipPath>
</defs>
</svg>
