<svg width="78" height="60" viewBox="0 0 78 60" fill="none" xmlns="http://www.w3.org/2000/svg">
<g clip-path="url(#clip0)">
<ellipse opacity="0.8" cx="60.4431" cy="20.6666" rx="13.5188" ry="19.377" transform="rotate(5.91321 60.4431 20.6666)" fill="#FDC040"/>
<ellipse cx="41.0546" cy="26.7057" rx="13.5188" ry="19.377" transform="rotate(-18.8509 41.0546 26.7057)" fill="#FDC040"/>
<path d="M27 33H75.0709C75.4546 33.1667 76.3369 33.8 76.7973 35C77.3728 36.5 79 58.5 51.5 54C29.8624 54 24.8134 53.3333 25.0052 53C29 52 29.5 48 30 45C30.5 42 27 33 27 33Z" fill="#81B13D"/>
<path d="M63.1172 12.4323C62.486 12.4323 61.9746 12.9439 61.9746 13.5749V13.7574C61.9746 14.3886 62.486 14.9 63.1172 14.9C63.7484 14.9 64.2598 14.3886 64.2598 13.7574V13.5749C64.2598 12.9437 63.7484 12.4323 63.1172 12.4323Z" fill="black"/>
<path d="M66.0847 17.5298C65.4536 17.5298 64.9421 18.0412 64.9421 18.6723V18.8548C64.9421 19.4859 65.4536 19.9974 66.0847 19.9974C66.7159 19.9974 67.2273 19.486 67.2273 18.8548V18.6723C67.2273 18.0412 66.7159 17.5298 66.0847 17.5298Z" fill="black"/>
<path d="M41.0669 16.4568L40.9823 16.2948C40.6903 15.7353 39.9997 15.5185 39.4408 15.8107C38.8813 16.1027 38.6646 16.7929 38.9566 17.3523L39.0412 17.5142C39.2448 17.9048 39.6429 18.1285 40.0549 18.1285C40.2331 18.1285 40.4138 18.0867 40.5827 17.9984C41.1421 17.7063 41.3589 17.0162 41.0669 16.4568Z" fill="black"/>
<path d="M46.0569 19.6016L45.9723 19.4397C45.6803 18.8801 44.9899 18.6633 44.4308 18.9555C43.8713 19.2476 43.6546 19.9377 43.9466 20.4971L44.0312 20.6591C44.2348 21.0497 44.6328 21.2733 45.0449 21.2733C45.2231 21.2733 45.4038 21.2316 45.5727 21.1432C46.1321 20.8512 46.3489 20.161 46.0569 19.6016Z" fill="black"/>
<path d="M38.9475 42.3339L35.549 38.9352C35.1026 38.489 34.3791 38.4889 33.9332 38.9351C33.4868 39.3813 33.4868 40.1048 33.933 40.5509L37.3315 43.9495C37.5547 44.1727 37.8469 44.2842 38.1394 44.2842C38.4318 44.2842 38.7243 44.1727 38.9473 43.9497C39.3937 43.5034 39.3937 42.78 38.9475 42.3339Z" fill="black"/>
<path d="M49.0452 40.2046C48.6794 39.6906 47.9663 39.5702 47.4519 39.9364L35.5911 48.3806C35.077 48.7465 34.957 49.46 35.3229 49.974C35.5458 50.2872 35.8974 50.454 36.2547 50.454C36.4838 50.454 36.7154 50.3852 36.9163 50.2421L48.7771 41.7979C49.2911 41.432 49.4112 40.7186 49.0452 40.2046Z" fill="black"/>
<path d="M53.2385 41.9281C52.8729 41.414 52.1595 41.2937 51.6451 41.6599L47.0923 44.9012C46.5782 45.2674 46.4583 45.9807 46.8242 46.4947C47.0471 46.808 47.3987 46.9748 47.7559 46.9748C47.9851 46.9748 48.2165 46.9059 48.4176 46.7627L52.9704 43.5214C53.4845 43.1555 53.6044 42.4421 53.2385 41.9281Z" fill="black"/>
<path d="M77.7842 36.7438C77.415 36.2319 76.7011 36.1164 76.189 36.4852L75.8085 36.7596C75.81 36.6617 75.8123 36.5639 75.8123 36.4656C75.8123 35.3756 75.3882 34.35 74.6158 33.5755C73.8435 32.8052 72.8178 32.3811 71.7279 32.3811H71.3897C72.6437 29.9583 73.2803 27.0409 73.2803 23.6731C73.2803 17.0682 70.8044 9.84854 66.9728 5.28049C66.5671 4.79695 65.8465 4.73357 65.3631 5.13942C64.8797 5.54496 64.8165 6.2657 65.2221 6.74909C68.7292 10.93 70.9953 17.5732 70.9953 23.6731C70.9953 27.1884 70.2397 30.1143 68.7493 32.3811H66.4871L67.4923 31.6655C68.0065 31.2996 68.1264 30.5862 67.7604 30.0721C67.3946 29.5581 66.6815 29.4378 66.167 29.804L62.5473 32.3811H55.7509C56.4359 28.9117 55.7225 25.0358 53.6525 21.0709C52.1708 18.2336 50.0665 15.4882 47.6459 13.1622C50.1392 6.85588 54.2653 2.82165 58.2857 2.82165C59.4998 2.82165 60.7235 3.17493 61.9223 3.87206C62.4678 4.18894 63.1672 4.00384 63.4844 3.45845C63.8014 2.9129 63.6163 2.21349 63.0708 1.8963C61.5186 0.993968 59.9086 0.536476 58.2857 0.536476C53.4217 0.536476 48.7448 4.7159 45.8367 11.5516C44.8461 10.7366 43.8196 9.99555 42.7739 9.34977C37.8518 6.30988 33.191 5.65388 29.6503 7.50228C26.3845 9.209 24.2927 12.9934 23.7598 18.1583C23.6949 18.786 24.1513 19.3474 24.779 19.412C25.4082 19.4778 25.9682 19.0203 26.0326 18.3928C26.4843 14.0158 28.1449 10.8674 30.7081 9.5277C36.9487 6.26966 47.2551 13.7574 51.6268 22.1286C53.5712 25.8531 54.1695 29.2973 53.4124 32.3812H40.6019C40.5987 32.3812 40.5957 32.3812 40.5925 32.3812H34.7376L32.82 30.4637C32.3737 30.0176 31.6503 30.0176 31.2041 30.4637C30.7579 30.91 30.7579 31.6334 31.2041 32.0796L31.5056 32.3811H28.3688C27.0961 29.4885 26.2595 26.1669 26 22.9447C25.9494 22.3158 25.3992 21.8455 24.7695 21.8975C24.1405 21.9481 23.6717 22.4989 23.7223 23.128C23.933 25.7465 24.4735 28.352 25.3078 30.811C22.0512 28.0361 17.7976 26.5448 13.4182 26.7826C13.0099 26.8048 12.6446 27.0435 12.4604 27.4084C10.7421 30.8107 10.259 34.651 10.9717 38.2878C10.9784 38.3981 11.0002 38.504 11.0358 38.6034C11.2598 39.6411 11.5827 40.6601 12.002 41.6462C7.11142 42.4047 2.76853 45.2873 0.165419 49.5812C-0.0464928 49.9307 -0.0553287 50.3669 0.141958 50.725C1.98304 54.0663 4.88505 56.6334 8.29437 58.0961C8.38532 58.1494 8.48024 58.1898 8.57789 58.2157C10.4607 58.9833 12.491 59.4171 14.5789 59.4602C14.6933 59.4626 14.8065 59.4637 14.9206 59.4637C15.7334 59.4637 16.5385 59.4023 17.3318 59.287C17.4064 59.2826 17.4806 59.273 17.5527 59.2542C20.9109 58.7199 24.0331 57.1778 26.498 54.8607C26.5539 54.8691 26.6106 54.8749 26.6688 54.8749H31.7958C32.427 54.8749 32.9384 54.3635 32.9384 53.7323C32.9384 53.1012 32.427 52.5897 31.7958 52.5897H28.5152C28.815 52.1833 29.0992 51.7627 29.3636 51.3264C29.3717 51.3129 29.3783 51.2989 29.3857 51.2854C29.3926 51.273 29.4008 51.2618 29.4072 51.249C32.0685 45.9766 31.7673 39.6531 28.6403 34.6662H33.7908L36.9015 37.777C37.1247 38 37.4172 38.1115 37.7095 38.1115C38.0019 38.1115 38.2944 38 38.5176 37.777C38.9638 37.3306 38.9638 36.6073 38.5176 36.1611L37.0228 34.6662H40.124L44.3659 38.9081C44.5891 39.1312 44.8816 39.2427 45.174 39.2427C45.4663 39.2427 45.7588 39.1312 45.982 38.9081C46.4282 38.4618 46.4282 37.7384 45.982 37.2922L43.3562 34.6664H54.2708C54.272 34.6664 54.2732 34.6667 54.2746 34.6667C54.2758 34.6667 54.277 34.6664 54.2784 34.6664H59.3379L56.8434 36.4423C56.3292 36.8082 56.2093 37.5216 56.5753 38.0357C56.7982 38.3489 57.1498 38.5157 57.507 38.5157C57.7361 38.5157 57.9676 38.4468 58.1686 38.3036L63.2777 34.6662H69.3447C69.3453 34.6662 69.346 34.6664 69.3466 34.6664C69.3475 34.6664 69.3483 34.6662 69.3492 34.6662H71.7287C72.2093 34.6662 72.662 34.8535 73.0008 35.1912C73.3407 35.532 73.5279 35.9846 73.5279 36.4654C73.5279 37.1533 73.4843 37.8311 73.4004 38.4965L65.0107 44.5458C64.499 44.9149 64.3832 45.629 64.7522 46.141C64.9757 46.4507 65.3253 46.6154 65.68 46.6154C65.9116 46.6154 66.1453 46.5452 66.3474 46.3995L72.5835 41.9031C71.3376 45.3701 68.9361 48.2903 65.8453 50.1973L53.1032 37.4552C52.6568 37.0092 51.9335 37.0092 51.4873 37.4552C51.0411 37.9016 51.0411 38.6249 51.4873 39.0711L63.7173 51.3012C62.0612 52.0087 60.2634 52.4461 58.3795 52.5591L53.3983 47.5781C52.9522 47.132 52.2287 47.1318 51.7825 47.5782C51.3363 48.0244 51.3363 48.7478 51.7827 49.194L55.1783 52.5894H43.9925L42.1594 50.7563C41.713 50.3102 40.9897 50.3102 40.5434 50.7563C40.0972 51.2026 40.0972 51.926 40.5434 52.3722L40.7607 52.5894H36.5561C35.925 52.5894 35.4135 53.1009 35.4135 53.732C35.4135 54.3632 35.925 54.8746 36.5561 54.8746H43.0448L45.6219 57.4517C45.845 57.6747 46.1375 57.7862 46.4299 57.7862C46.7222 57.7862 47.0147 57.6747 47.2379 57.4517C47.6841 57.0053 47.6841 56.282 47.2379 55.8358L46.2768 54.8746H57.4014C60.282 54.8746 63.0097 54.209 65.4401 53.0247L66.3998 53.9845C66.623 54.2075 66.9155 54.319 67.2079 54.319C67.5002 54.319 67.7927 54.2075 68.0159 53.9845C68.4621 53.5381 68.4621 52.8148 68.0159 52.3685L67.4985 51.8512C71.6181 49.1391 74.589 44.8196 75.5105 39.7919L77.5259 38.3388C78.0374 37.9698 78.1532 37.2558 77.7842 36.7438ZM26.5599 35.6512C26.688 35.8472 26.8093 36.0466 26.9272 36.2476L24.0349 41.9866L20.7325 36.9333L23.0438 31.9277C24.4088 32.939 25.6061 34.1917 26.5599 35.6512ZM22.7837 44.249L16.4847 44.5662C16.0601 44.0764 15.6651 43.5563 15.3056 43.0061C14.5542 41.8563 13.9809 40.6199 13.5861 39.3374L19.5107 39.2407L22.7837 44.249ZM21.0907 30.706L19.2575 34.6761L15.6141 29.1009C17.5408 29.272 19.4009 29.825 21.0907 30.706ZM13.7005 30.3497L18.033 36.9793L13.0788 37.0602C12.7652 34.8233 12.9691 32.5215 13.7005 30.3497ZM13.1098 43.8075C13.2017 43.9579 13.2957 44.1077 13.3926 44.256C13.9002 45.0328 14.468 45.7582 15.0859 46.4301C15.131 46.4888 15.1817 46.5427 15.237 46.5916C16.2634 47.6786 17.4242 48.6186 18.6844 49.3922L12.6729 49.2686L9.83869 44.5283C10.8882 44.1659 11.9846 43.9219 13.1098 43.8075ZM7.72674 45.4489L9.97717 49.213L3.31545 49.0761C4.54304 47.5767 6.04501 46.348 7.72674 45.4489ZM8.45997 55.6595C6.43608 54.6563 4.65044 53.1895 3.2702 51.3606L11.188 51.5235L8.45997 55.6595ZM16.5787 57.0819C15.9348 57.1564 15.2824 57.1886 14.6254 57.1756C13.2523 57.1471 11.9078 56.9229 10.6265 56.5254L13.8889 51.5789L19.8704 51.7019L16.5787 57.0819ZM19.6943 56.3682L22.516 51.7564L25.9845 51.8277C26.0558 51.8343 26.1274 51.839 26.1988 51.8446C24.4795 53.9319 22.2181 55.491 19.6943 56.3682ZM26.1179 49.545C23.4668 49.2852 20.9464 48.3022 18.8298 46.7362L24.2311 46.4641L26.2462 49.5476L26.1179 49.545ZM28.1656 48.3075L25.4796 44.1974L28.1456 38.9072C29.1775 41.9357 29.1945 45.2504 28.1656 48.3075Z" fill="black"/>
<path d="M66.5713 38.7026C66.202 38.1907 65.4879 38.0752 64.9762 38.4442L60.9499 41.3475C60.4382 41.7164 60.3224 42.4305 60.6915 42.9425C60.9149 43.2522 61.2645 43.4169 61.6191 43.4169C61.8509 43.4169 62.0844 43.3467 62.2866 43.2009L66.3129 40.2977C66.8246 39.9287 66.9404 39.2146 66.5713 38.7026Z" fill="black"/>
</g>
<defs>
<clipPath id="clip0">
<rect width="78.0001" height="60" fill="white"/>
</clipPath>
</defs>
</svg>
