<svg width="215" height="66" viewBox="0 0 215 66" fill="none" xmlns="http://www.w3.org/2000/svg">
<g clip-path="url(#clip0_199_5079)">
<ellipse opacity="0.8" cx="60.4428" cy="26.6666" rx="13.5188" ry="19.377" transform="rotate(5.91321 60.4428 26.6666)" fill="#FDC040"/>
<ellipse cx="41.0546" cy="32.7057" rx="13.5188" ry="19.377" transform="rotate(-18.8509 41.0546 32.7057)" fill="#FDC040"/>
<path d="M27 39H75.0709C75.4546 39.1667 76.3369 39.8 76.7973 41C77.3728 42.5 79 64.5 51.5 60C29.8624 60 24.8134 59.3333 25.0052 59C29 58 29.5 54 30 51C30.5 48 27 39 27 39Z" fill="#81B13D"/>
<path d="M63.1172 18.4323C62.486 18.4323 61.9746 18.9439 61.9746 19.5749V19.7574C61.9746 20.3886 62.486 20.9 63.1172 20.9C63.7484 20.9 64.2598 20.3886 64.2598 19.7574V19.5749C64.2598 18.9437 63.7484 18.4323 63.1172 18.4323Z" fill="#253D4E"/>
<path d="M66.085 23.5298C65.4538 23.5298 64.9424 24.0412 64.9424 24.6723V24.8548C64.9424 25.4859 65.4538 25.9974 66.085 25.9974C66.7161 25.9974 67.2275 25.486 67.2275 24.8548V24.6723C67.2275 24.0412 66.7161 23.5298 66.085 23.5298Z" fill="#253D4E"/>
<path d="M41.0669 22.4568L40.9823 22.2949C40.6903 21.7353 39.9997 21.5185 39.4408 21.8107C38.8813 22.1028 38.6646 22.7929 38.9566 23.3523L39.0412 23.5142C39.2448 23.9048 39.6429 24.1285 40.0549 24.1285C40.2331 24.1285 40.4138 24.0867 40.5827 23.9984C41.1421 23.7063 41.3589 23.0162 41.0669 22.4568Z" fill="#253D4E"/>
<path d="M46.0566 25.6016L45.9721 25.4397C45.68 24.8801 44.9896 24.6633 44.4305 24.9555C43.8711 25.2476 43.6543 25.9377 43.9464 26.4971L44.0309 26.6591C44.2346 27.0497 44.6325 27.2733 45.0446 27.2733C45.2229 27.2733 45.4035 27.2316 45.5725 27.1432C46.1319 26.8512 46.3487 26.161 46.0566 25.6016Z" fill="#253D4E"/>
<path d="M38.9472 48.3339L35.5487 44.9352C35.1023 44.489 34.3789 44.4889 33.9329 44.9351C33.4866 45.3813 33.4866 46.1048 33.9328 46.5508L37.3313 49.9495C37.5545 50.1727 37.8467 50.2842 38.1392 50.2842C38.4315 50.2842 38.724 50.1727 38.9471 49.9497C39.3934 49.5034 39.3934 48.78 38.9472 48.3339Z" fill="#253D4E"/>
<path d="M49.0455 46.2046C48.6797 45.6906 47.9666 45.5702 47.4521 45.9364L35.5913 54.3806C35.0773 54.7465 34.9572 55.46 35.3232 55.974C35.5461 56.2872 35.8977 56.454 36.2549 56.454C36.484 56.454 36.7156 56.3852 36.9165 56.2421L48.7773 47.7979C49.2914 47.432 49.4114 46.7186 49.0455 46.2046Z" fill="#253D4E"/>
<path d="M53.2385 47.928C52.8729 47.414 52.1595 47.2937 51.6451 47.6599L47.0923 50.9012C46.5782 51.2674 46.4583 51.9807 46.8242 52.4947C47.0471 52.8079 47.3987 52.9748 47.7559 52.9748C47.9851 52.9748 48.2165 52.9059 48.4176 52.7627L52.9704 49.5214C53.4845 49.1555 53.6044 48.4421 53.2385 47.928Z" fill="#253D4E"/>
<path d="M77.7842 42.7438C77.415 42.2319 76.7011 42.1164 76.189 42.4852L75.8085 42.7596C75.81 42.6616 75.8123 42.5638 75.8123 42.4656C75.8123 41.3756 75.3882 40.35 74.6158 39.5755C73.8435 38.8052 72.8178 38.3811 71.7279 38.3811H71.3897C72.6437 35.9583 73.2803 33.0409 73.2803 29.673C73.2803 23.0681 70.8044 15.8485 66.9728 11.2805C66.5671 10.7969 65.8465 10.7336 65.3631 11.1394C64.8797 11.545 64.8165 12.2657 65.2221 12.7491C68.7292 16.93 70.9953 23.5732 70.9953 29.673C70.9953 33.1884 70.2397 36.1143 68.7493 38.3811H66.4871L67.4923 37.6655C68.0065 37.2996 68.1264 36.5861 67.7604 36.0721C67.3946 35.5581 66.6815 35.4378 66.167 35.804L62.5473 38.3811H55.7509C56.4359 34.9117 55.7225 31.0358 53.6525 27.0709C52.1708 24.2336 50.0665 21.4882 47.6459 19.1622C50.1392 12.8559 54.2653 8.82164 58.2857 8.82164C59.4998 8.82164 60.7235 9.17492 61.9223 9.87205C62.4678 10.1889 63.1672 10.0038 63.4844 9.45844C63.8014 8.91289 63.6163 8.21348 63.0708 7.8963C61.5186 6.99396 59.9086 6.53647 58.2857 6.53647C53.4217 6.53647 48.7448 10.7159 45.8367 17.5516C44.8461 16.7366 43.8196 15.9955 42.7739 15.3498C37.8518 12.3099 33.191 11.6539 29.6503 13.5023C26.3845 15.209 24.2927 18.9934 23.7598 24.1583C23.6949 24.786 24.1513 25.3474 24.779 25.412C25.4082 25.4778 25.9682 25.0203 26.0326 24.3928C26.4843 20.0158 28.1449 16.8674 30.7081 15.5277C36.9487 12.2697 47.2551 19.7574 51.6268 28.1286C53.5712 31.8531 54.1695 35.2973 53.4124 38.3812H40.6019C40.5987 38.3812 40.5957 38.3812 40.5925 38.3812H34.7376L32.82 36.4637C32.3737 36.0176 31.6503 36.0176 31.2041 36.4637C30.7579 36.91 30.7579 37.6334 31.2041 38.0796L31.5056 38.3811H28.3688C27.0961 35.4885 26.2595 32.1669 26 28.9447C25.9494 28.3158 25.3992 27.8455 24.7695 27.8975C24.1405 27.9481 23.6717 28.4989 23.7223 29.128C23.933 31.7465 24.4735 34.352 25.3078 36.811C22.0512 34.036 17.7976 32.5447 13.4182 32.7826C13.0099 32.8048 12.6446 33.0435 12.4604 33.4084C10.7421 36.8107 10.259 40.651 10.9717 44.2878C10.9784 44.3981 11.0002 44.504 11.0358 44.6034C11.2598 45.6411 11.5827 46.6601 12.002 47.6462C7.11142 48.4047 2.76853 51.2873 0.165419 55.5812C-0.0464928 55.9307 -0.0553287 56.3669 0.141958 56.725C1.98304 60.0663 4.88505 62.6334 8.29437 64.0961C8.38532 64.1494 8.48024 64.1898 8.57789 64.2157C10.4607 64.9833 12.491 65.4171 14.5789 65.4602C14.6933 65.4626 14.8065 65.4637 14.9206 65.4637C15.7334 65.4637 16.5385 65.4023 17.3318 65.287C17.4064 65.2825 17.4806 65.2729 17.5527 65.2542C20.9109 64.7199 24.0331 63.1778 26.498 60.8607C26.5539 60.8691 26.6106 60.8749 26.6688 60.8749H31.7958C32.427 60.8749 32.9384 60.3635 32.9384 59.7323C32.9384 59.1012 32.427 58.5897 31.7958 58.5897H28.5152C28.815 58.1833 29.0992 57.7627 29.3636 57.3263C29.3717 57.3129 29.3783 57.2989 29.3857 57.2854C29.3926 57.273 29.4008 57.2618 29.4072 57.249C32.0685 51.9766 31.7673 45.6531 28.6403 40.6662H33.7908L36.9015 43.777C37.1247 44 37.4172 44.1115 37.7095 44.1115C38.0019 44.1115 38.2944 44 38.5176 43.777C38.9638 43.3306 38.9638 42.6073 38.5176 42.161L37.0228 40.6662H40.124L44.3659 44.9081C44.5891 45.1312 44.8816 45.2427 45.174 45.2427C45.4663 45.2427 45.7588 45.1312 45.982 44.9081C46.4282 44.4618 46.4282 43.7384 45.982 43.2922L43.3562 40.6664H54.2708C54.272 40.6664 54.2732 40.6667 54.2746 40.6667C54.2758 40.6667 54.277 40.6664 54.2784 40.6664H59.3379L56.8434 42.4423C56.3292 42.8082 56.2093 43.5216 56.5753 44.0356C56.7982 44.3489 57.1498 44.5157 57.507 44.5157C57.7361 44.5157 57.9676 44.4468 58.1686 44.3036L63.2777 40.6662H69.3447C69.3453 40.6662 69.346 40.6664 69.3466 40.6664C69.3475 40.6664 69.3483 40.6662 69.3492 40.6662H71.7287C72.2093 40.6662 72.662 40.8535 73.0008 41.1912C73.3407 41.532 73.5279 41.9846 73.5279 42.4654C73.5279 43.1533 73.4843 43.831 73.4004 44.4965L65.0107 50.5458C64.499 50.9149 64.3832 51.629 64.7522 52.141C64.9757 52.4507 65.3253 52.6154 65.68 52.6154C65.9116 52.6154 66.1453 52.5452 66.3474 52.3995L72.5835 47.9031C71.3376 51.3701 68.9361 54.2903 65.8453 56.1973L53.1032 43.4552C52.6568 43.0091 51.9335 43.0091 51.4873 43.4552C51.0411 43.9016 51.0411 44.6249 51.4873 45.0711L63.7173 57.3012C62.0612 58.0087 60.2634 58.4461 58.3795 58.5591L53.3983 53.5781C52.9522 53.132 52.2287 53.1318 51.7825 53.5782C51.3363 54.0244 51.3363 54.7478 51.7827 55.194L55.1783 58.5894H43.9925L42.1594 56.7563C41.713 56.3102 40.9897 56.3102 40.5434 56.7563C40.0972 57.2026 40.0972 57.926 40.5434 58.3722L40.7607 58.5894H36.5561C35.925 58.5894 35.4135 59.1009 35.4135 59.732C35.4135 60.3632 35.925 60.8746 36.5561 60.8746H43.0448L45.6219 63.4517C45.845 63.6747 46.1375 63.7862 46.4299 63.7862C46.7222 63.7862 47.0147 63.6747 47.2379 63.4517C47.6841 63.0053 47.6841 62.282 47.2379 61.8357L46.2768 60.8746H57.4014C60.282 60.8746 63.0097 60.209 65.4401 59.0247L66.3998 59.9845C66.623 60.2075 66.9155 60.319 67.2079 60.319C67.5002 60.319 67.7927 60.2075 68.0159 59.9845C68.4621 59.5381 68.4621 58.8148 68.0159 58.3685L67.4985 57.8512C71.6181 55.1391 74.589 50.8196 75.5105 45.7919L77.5259 44.3388C78.0374 43.9698 78.1532 43.2558 77.7842 42.7438ZM26.5599 41.6511C26.688 41.8472 26.8093 42.0466 26.9272 42.2476L24.0349 47.9865L20.7325 42.9333L23.0438 37.9277C24.4088 38.939 25.6061 40.1917 26.5599 41.6511ZM22.7837 50.249L16.4847 50.5662C16.0601 50.0764 15.6651 49.5563 15.3056 49.006C14.5542 47.8563 13.9809 46.6199 13.5861 45.3374L19.5107 45.2407L22.7837 50.249ZM21.0907 36.706L19.2575 40.6761L15.6141 35.1009C17.5408 35.272 19.4009 35.825 21.0907 36.706ZM13.7005 36.3497L18.033 42.9793L13.0788 43.0602C12.7652 40.8233 12.9691 38.5215 13.7005 36.3497ZM13.1098 49.8075C13.2017 49.9579 13.2957 50.1076 13.3926 50.256C13.9002 51.0328 14.468 51.7581 15.0859 52.4301C15.131 52.4888 15.1817 52.5427 15.237 52.5916C16.2634 53.6786 17.4242 54.6186 18.6844 55.3922L12.6729 55.2686L9.83869 50.5283C10.8882 50.1658 11.9846 49.9219 13.1098 49.8075ZM7.72674 51.4489L9.97717 55.213L3.31545 55.0761C4.54304 53.5767 6.04501 52.348 7.72674 51.4489ZM8.45997 61.6595C6.43608 60.6563 4.65044 59.1895 3.2702 57.3606L11.188 57.5235L8.45997 61.6595ZM16.5787 63.0819C15.9348 63.1564 15.2824 63.1886 14.6254 63.1756C13.2523 63.1471 11.9078 62.9229 10.6265 62.5254L13.8889 57.5789L19.8704 57.7019L16.5787 63.0819ZM19.6943 62.3682L22.516 57.7564L25.9845 57.8277C26.0558 57.8343 26.1274 57.839 26.1988 57.8446C24.4795 59.9319 22.2181 61.491 19.6943 62.3682ZM26.1179 55.545C23.4668 55.2852 20.9464 54.3022 18.8298 52.7362L24.2311 52.4641L26.2462 55.5476L26.1179 55.545ZM28.1656 54.3075L25.4796 50.1974L28.1456 44.9072C29.1775 47.9357 29.1945 51.2504 28.1656 54.3075Z" fill="#253D4E"/>
<path d="M66.5713 44.7026C66.202 44.1907 65.4879 44.0753 64.9762 44.4442L60.9499 47.3475C60.4382 47.7165 60.3224 48.4305 60.6915 48.9425C60.9149 49.2522 61.2645 49.4169 61.6191 49.4169C61.8509 49.4169 62.0844 49.3467 62.2866 49.2009L66.3129 46.2977C66.8246 45.9287 66.9404 45.2146 66.5713 44.7026Z" fill="#253D4E"/>
</g>
<path d="M95.2394 61L95.2285 55.9424L92.7215 60.128H92.0893L89.5823 56.0078V61H88.2307V53.37H89.397L92.4272 58.4276L95.4029 53.37H96.5692L96.5801 61H95.2394ZM104.68 59.2342H100.865L100.113 61H98.6519L102.085 53.37H103.481L106.925 61H105.443L104.68 59.2342ZM104.211 58.1224L102.772 54.787L101.344 58.1224H104.211ZM113.978 61L112.419 58.7655C112.353 58.7728 112.255 58.7764 112.125 58.7764H110.402V61H108.985V53.37H112.125C112.786 53.37 113.36 53.479 113.847 53.697C114.341 53.915 114.719 54.2275 114.98 54.6344C115.242 55.0413 115.373 55.5246 115.373 56.0841C115.373 56.6582 115.231 57.1523 114.948 57.5665C114.672 57.9807 114.272 58.2895 113.749 58.493L115.504 61H113.978ZM113.945 56.0841C113.945 55.5972 113.785 55.223 113.465 54.9614C113.146 54.6998 112.677 54.569 112.059 54.569H110.402V57.6101H112.059C112.677 57.6101 113.146 57.4793 113.465 57.2177C113.785 56.9488 113.945 56.571 113.945 56.0841ZM119.489 54.569H116.961V53.37H123.435V54.569H120.906V61H119.489V54.569ZM135.414 61.1199L134.454 60.1934C133.742 60.8038 132.888 61.109 131.893 61.109C131.362 61.109 130.886 61.0218 130.465 60.8474C130.044 60.673 129.713 60.4332 129.473 60.128C129.233 59.8155 129.113 59.4631 129.113 59.0707C129.113 58.5984 129.251 58.1842 129.528 57.8281C129.804 57.4648 130.254 57.1087 130.879 56.7599C130.574 56.4547 130.356 56.1713 130.225 55.9097C130.094 55.6408 130.029 55.3647 130.029 55.0813C130.029 54.5436 130.229 54.1112 130.629 53.7842C131.035 53.4499 131.573 53.2828 132.242 53.2828C132.859 53.2828 133.354 53.4354 133.724 53.7406C134.095 54.0385 134.28 54.4455 134.28 54.9614C134.28 55.3538 134.156 55.7026 133.909 56.0078C133.67 56.313 133.274 56.6218 132.721 56.9343L134.367 58.5039C134.549 58.1478 134.691 57.7191 134.792 57.2177L135.893 57.5774C135.748 58.2532 135.519 58.8345 135.207 59.3214L136.166 60.237L135.414 61.1199ZM132.242 54.2529C131.944 54.2529 131.708 54.3292 131.533 54.4818C131.359 54.6271 131.272 54.8197 131.272 55.0595C131.272 55.2339 131.319 55.401 131.413 55.5609C131.508 55.7135 131.689 55.9242 131.958 56.1931C132.394 55.9533 132.696 55.7462 132.863 55.5718C133.037 55.3901 133.125 55.1939 133.125 54.9832C133.125 54.7579 133.045 54.5799 132.885 54.4491C132.732 54.3183 132.518 54.2529 132.242 54.2529ZM131.991 59.9972C132.623 59.9972 133.175 59.8046 133.648 59.4195L131.631 57.4902C131.195 57.73 130.886 57.9625 130.705 58.1878C130.53 58.4058 130.443 58.6529 130.443 58.929C130.443 59.2487 130.585 59.5067 130.868 59.7029C131.152 59.8991 131.526 59.9972 131.991 59.9972ZM147.79 57.0978H149.13V60.1389C148.738 60.4514 148.28 60.6912 147.757 60.8583C147.234 61.0254 146.696 61.109 146.144 61.109C145.366 61.109 144.665 60.9419 144.04 60.6076C143.415 60.2661 142.925 59.7974 142.569 59.2015C142.213 58.6056 142.035 57.9335 142.035 57.185C142.035 56.4365 142.213 55.7644 142.569 55.1685C142.925 54.5726 143.415 54.1076 144.04 53.7733C144.672 53.4318 145.381 53.261 146.166 53.261C146.805 53.261 147.386 53.3664 147.91 53.5771C148.433 53.7878 148.872 54.0967 149.229 54.5036L148.335 55.3756C147.753 54.7943 147.052 54.5036 146.231 54.5036C145.693 54.5036 145.214 54.6162 144.792 54.8415C144.378 55.0668 144.051 55.3829 143.811 55.7898C143.579 56.1967 143.462 56.6618 143.462 57.185C143.462 57.6937 143.579 58.1515 143.811 58.5584C144.051 58.9653 144.378 59.2851 144.792 59.5176C145.214 59.7501 145.69 59.8664 146.22 59.8664C146.816 59.8664 147.339 59.7356 147.79 59.474V57.0978ZM157.082 61L155.523 58.7655C155.457 58.7728 155.359 58.7764 155.229 58.7764H153.506V61H152.089V53.37H155.229C155.89 53.37 156.464 53.479 156.951 53.697C157.445 53.915 157.823 54.2275 158.084 54.6344C158.346 55.0413 158.477 55.5246 158.477 56.0841C158.477 56.6582 158.335 57.1523 158.052 57.5665C157.775 57.9807 157.376 58.2895 156.853 58.493L158.608 61H157.082ZM157.049 56.0841C157.049 55.5972 156.889 55.223 156.569 54.9614C156.249 54.6998 155.781 54.569 155.163 54.569H153.506V57.6101H155.163C155.781 57.6101 156.249 57.4793 156.569 57.2177C156.889 56.9488 157.049 56.571 157.049 56.0841ZM164.716 61.109C163.939 61.109 163.238 60.9419 162.613 60.6076C161.988 60.2661 161.497 59.7974 161.141 59.2015C160.785 58.5984 160.607 57.9262 160.607 57.185C160.607 56.4438 160.785 55.7753 161.141 55.1794C161.497 54.5763 161.988 54.1076 162.613 53.7733C163.238 53.4318 163.939 53.261 164.716 53.261C165.494 53.261 166.195 53.4318 166.82 53.7733C167.445 54.1076 167.936 54.5726 168.292 55.1685C168.648 55.7644 168.826 56.4365 168.826 57.185C168.826 57.9335 168.648 58.6056 168.292 59.2015C167.936 59.7974 167.445 60.2661 166.82 60.6076C166.195 60.9419 165.494 61.109 164.716 61.109ZM164.716 59.8664C165.225 59.8664 165.683 59.7538 166.09 59.5285C166.497 59.296 166.816 58.9762 167.049 58.5693C167.282 58.1551 167.398 57.6937 167.398 57.185C167.398 56.6763 167.282 56.2185 167.049 55.8116C166.816 55.3974 166.497 55.0777 166.09 54.8524C165.683 54.6199 165.225 54.5036 164.716 54.5036C164.208 54.5036 163.75 54.6199 163.343 54.8524C162.936 55.0777 162.616 55.3974 162.384 55.8116C162.151 56.2185 162.035 56.6763 162.035 57.185C162.035 57.6937 162.151 58.1551 162.384 58.5693C162.616 58.9762 162.936 59.296 163.343 59.5285C163.75 59.7538 164.208 59.8664 164.716 59.8664ZM174.949 61.109C174.179 61.109 173.481 60.9419 172.856 60.6076C172.239 60.2661 171.752 59.7974 171.396 59.2015C171.047 58.6056 170.873 57.9335 170.873 57.185C170.873 56.4365 171.051 55.7644 171.407 55.1685C171.763 54.5726 172.25 54.1076 172.867 53.7733C173.492 53.4318 174.19 53.261 174.96 53.261C175.585 53.261 176.156 53.37 176.671 53.588C177.187 53.806 177.623 54.1221 177.979 54.5363L177.064 55.3974C176.512 54.8015 175.832 54.5036 175.026 54.5036C174.502 54.5036 174.034 54.6199 173.619 54.8524C173.205 55.0777 172.882 55.3938 172.649 55.8007C172.417 56.2076 172.301 56.6691 172.301 57.185C172.301 57.7009 172.417 58.1624 172.649 58.5693C172.882 58.9762 173.205 59.296 173.619 59.5285C174.034 59.7538 174.502 59.8664 175.026 59.8664C175.832 59.8664 176.512 59.5648 177.064 58.9617L177.979 59.8337C177.623 60.2479 177.184 60.564 176.661 60.782C176.145 61 175.574 61.109 174.949 61.109ZM186.15 59.8119V61H180.427V53.37H185.997V54.5581H181.844V56.5419H185.528V57.7082H181.844V59.8119H186.15ZM193.812 61L192.253 58.7655C192.187 58.7728 192.089 58.7764 191.959 58.7764H190.236V61H188.819V53.37H191.959C192.62 53.37 193.194 53.479 193.681 53.697C194.175 53.915 194.553 54.2275 194.814 54.6344C195.076 55.0413 195.207 55.5246 195.207 56.0841C195.207 56.6582 195.065 57.1523 194.782 57.5665C194.506 57.9807 194.106 58.2895 193.583 58.493L195.338 61H193.812ZM193.779 56.0841C193.779 55.5972 193.619 55.223 193.299 54.9614C192.98 54.6998 192.511 54.569 191.893 54.569H190.236V57.6101H191.893C192.511 57.6101 192.98 57.4793 193.299 57.2177C193.619 56.9488 193.779 56.571 193.779 56.0841ZM201.067 58.3077V61H199.65V58.3295L196.653 53.37H198.168L200.403 57.0869L202.659 53.37H204.054L201.067 58.3077Z" fill="white"/>
<path d="M117.633 7.15C118.521 7.15 119.243 7.446 119.798 8.038C120.353 8.63 120.63 9.37 120.63 10.258V42.6145C120.63 43.5765 120.297 44.3905 119.631 45.0565C119.002 45.6855 118.207 46 117.245 46C116.764 46 116.264 45.926 115.746 45.778C115.265 45.593 114.895 45.3525 114.636 45.0565L92.8245 17.362L94.2675 16.474V42.892C94.2675 43.78 93.9715 44.52 93.3795 45.112C92.8245 45.704 92.0845 46 91.1595 46C90.2715 46 89.55 45.704 88.995 45.112C88.44 44.52 88.1625 43.78 88.1625 42.892V10.5355C88.1625 9.5735 88.477 8.778 89.106 8.149C89.772 7.483 90.586 7.15 91.548 7.15C92.066 7.15 92.6025 7.261 93.1575 7.483C93.7125 7.668 94.1195 7.964 94.3785 8.371L115.524 35.344L114.58 36.01V10.258C114.58 9.37 114.858 8.63 115.413 8.038C115.968 7.446 116.708 7.15 117.633 7.15ZM142.383 46.555C139.238 46.555 136.5 45.9075 134.169 44.6125C131.875 43.2805 130.099 41.486 128.841 39.229C127.62 36.972 127.01 34.419 127.01 31.57C127.01 28.24 127.676 25.4095 129.008 23.0785C130.377 20.7105 132.153 18.8975 134.336 17.6395C136.519 16.3815 138.831 15.7525 141.273 15.7525C143.16 15.7525 144.936 16.141 146.601 16.918C148.303 17.695 149.802 18.768 151.097 20.137C152.392 21.469 153.409 23.023 154.149 24.799C154.926 26.575 155.315 28.462 155.315 30.46C155.278 31.348 154.926 32.0695 154.26 32.6245C153.594 33.1795 152.817 33.457 151.929 33.457H130.728L129.063 27.907H149.432L148.211 29.017V27.5185C148.137 26.4455 147.748 25.4835 147.045 24.6325C146.379 23.7815 145.528 23.1155 144.492 22.6345C143.493 22.1165 142.42 21.8575 141.273 21.8575C140.163 21.8575 139.127 22.0055 138.165 22.3015C137.203 22.5975 136.371 23.097 135.668 23.8C134.965 24.503 134.41 25.4465 134.003 26.6305C133.596 27.8145 133.392 29.313 133.392 31.126C133.392 33.124 133.799 34.826 134.613 36.232C135.464 37.601 136.537 38.6555 137.832 39.3955C139.164 40.0985 140.57 40.45 142.05 40.45C143.419 40.45 144.511 40.339 145.325 40.117C146.139 39.895 146.786 39.636 147.267 39.34C147.785 39.007 148.248 38.7295 148.655 38.5075C149.321 38.1745 149.95 38.008 150.542 38.008C151.356 38.008 152.022 38.2855 152.54 38.8405C153.095 39.3955 153.372 40.043 153.372 40.783C153.372 41.782 152.854 42.6885 151.818 43.5025C150.856 44.3165 149.506 45.038 147.767 45.667C146.028 46.259 144.233 46.555 142.383 46.555ZM159.391 41.3935C159.021 40.8755 158.854 40.2095 158.891 39.3955C158.928 38.5815 159.409 37.8785 160.334 37.2865C160.926 36.9165 161.555 36.7685 162.221 36.8425C162.887 36.8795 163.535 37.2125 164.164 37.8415C165.237 38.9145 166.365 39.747 167.549 40.339C168.733 40.931 170.213 41.227 171.989 41.227C172.544 41.19 173.155 41.116 173.821 41.005C174.487 40.857 175.06 40.561 175.541 40.117C176.059 39.636 176.318 38.9145 176.318 37.9525C176.318 37.1385 176.041 36.491 175.486 36.01C174.931 35.529 174.191 35.122 173.266 34.789C172.378 34.456 171.379 34.1415 170.269 33.8455C169.122 33.5125 167.938 33.1425 166.717 32.7355C165.533 32.3285 164.441 31.8105 163.442 31.1815C162.443 30.5155 161.629 29.646 161 28.573C160.371 27.5 160.057 26.1495 160.057 24.5215C160.057 22.6715 160.575 21.099 161.611 19.804C162.647 18.509 163.979 17.51 165.607 16.807C167.272 16.104 169.011 15.7525 170.824 15.7525C171.971 15.7525 173.173 15.9005 174.431 16.1965C175.689 16.4555 176.892 16.8995 178.039 17.5285C179.186 18.1205 180.148 18.916 180.925 19.915C181.332 20.47 181.572 21.136 181.646 21.913C181.72 22.69 181.369 23.393 180.592 24.022C180.037 24.466 179.389 24.6695 178.649 24.6325C177.909 24.5585 177.299 24.2995 176.818 23.8555C176.189 23.0415 175.338 22.394 174.265 21.913C173.229 21.432 172.026 21.1915 170.657 21.1915C170.102 21.1915 169.492 21.2655 168.826 21.4135C168.197 21.5245 167.642 21.802 167.161 22.246C166.68 22.653 166.439 23.319 166.439 24.244C166.439 25.095 166.717 25.7795 167.272 26.2975C167.827 26.7785 168.567 27.1855 169.492 27.5185C170.454 27.8145 171.471 28.1105 172.544 28.4065C173.654 28.7025 174.783 29.054 175.93 29.461C177.077 29.868 178.131 30.4045 179.093 31.0705C180.055 31.7365 180.832 32.606 181.424 33.679C182.016 34.715 182.312 36.047 182.312 37.675C182.312 39.562 181.757 41.1715 180.647 42.5035C179.537 43.8355 178.15 44.853 176.485 45.556C174.82 46.222 173.118 46.555 171.379 46.555C169.196 46.555 167.013 46.185 164.83 45.445C162.647 44.668 160.834 43.3175 159.391 41.3935ZM188.197 16.8625H201.35C202.238 16.8625 202.978 17.1585 203.57 17.7505C204.162 18.3425 204.458 19.0825 204.458 19.9705C204.458 20.8215 204.162 21.543 203.57 22.135C202.978 22.69 202.238 22.9675 201.35 22.9675H188.197C187.309 22.9675 186.569 22.6715 185.977 22.0795C185.385 21.4875 185.089 20.7475 185.089 19.8595C185.089 19.0085 185.385 18.3055 185.977 17.7505C186.569 17.1585 187.309 16.8625 188.197 16.8625ZM194.135 9.925C195.097 9.925 195.874 10.258 196.466 10.924C197.095 11.553 197.41 12.3485 197.41 13.3105V38.008C197.41 38.526 197.502 38.9515 197.687 39.2845C197.909 39.6175 198.187 39.858 198.52 40.006C198.89 40.154 199.278 40.228 199.685 40.228C200.129 40.228 200.536 40.154 200.906 40.006C201.276 39.821 201.702 39.7285 202.183 39.7285C202.701 39.7285 203.163 39.969 203.57 40.45C204.014 40.931 204.236 41.597 204.236 42.448C204.236 43.484 203.663 44.335 202.516 45.001C201.406 45.667 200.203 46 198.908 46C198.131 46 197.262 45.9445 196.3 45.8335C195.375 45.6855 194.487 45.371 193.636 44.89C192.822 44.372 192.137 43.595 191.582 42.559C191.027 41.523 190.75 40.0985 190.75 38.2855V13.3105C190.75 12.3485 191.064 11.553 191.693 10.924C192.359 10.258 193.173 9.925 194.135 9.925Z" fill="white"/>
<defs>
<clipPath id="clip0_199_5079">
<rect width="78.0001" height="60" fill="white" transform="translate(0 6)"/>
</clipPath>
</defs>
</svg>
